<?xml version="1.0" encoding="utf-8" standalone="no"?>
<!DOCTYPE svg PUBLIC "-//W3C//DTD SVG 1.1//EN"
  "http://www.w3.org/Graphics/SVG/1.1/DTD/svg11.dtd">
<!-- Created with matplotlib (https://matplotlib.org/) -->
<svg height="574.678125pt" version="1.1" viewBox="0 0 1173.34375 574.678125" width="1173.34375pt" xmlns="http://www.w3.org/2000/svg" xmlns:xlink="http://www.w3.org/1999/xlink">
 <metadata>
  <rdf:RDF xmlns:cc="http://creativecommons.org/ns#" xmlns:dc="http://purl.org/dc/elements/1.1/" xmlns:rdf="http://www.w3.org/1999/02/22-rdf-syntax-ns#">
   <cc:Work>
    <dc:type rdf:resource="http://purl.org/dc/dcmitype/StillImage"/>
    <dc:date>2021-10-21T20:35:35.506425</dc:date>
    <dc:format>image/svg+xml</dc:format>
    <dc:creator>
     <cc:Agent>
      <dc:title>Matplotlib v3.3.4, https://matplotlib.org/</dc:title>
     </cc:Agent>
    </dc:creator>
   </cc:Work>
  </rdf:RDF>
 </metadata>
 <defs>
  <style type="text/css">*{stroke-linecap:butt;stroke-linejoin:round;}</style>
 </defs>
 <g id="figure_1">
  <g id="patch_1">
   <path d="M 0 574.678125 
L 1173.34375 574.678125 
L 1173.34375 0 
L 0 0 
z
" style="fill:none;"/>
  </g>
  <g id="axes_1">
   <g id="patch_2">
    <path d="M 50.14375 550.8 
L 1166.14375 550.8 
L 1166.14375 7.2 
L 50.14375 7.2 
z
" style="fill:#ffffff;"/>
   </g>
   <g id="patch_3">
    <path clip-path="url(#pec64d2d51e)" d="M 275.321625 550.8 
L 281.978068 550.8 
L 281.978068 522.038095 
L 275.321625 522.038095 
z
" style="fill:#ff0000;opacity:0.4;"/>
   </g>
   <g id="patch_4">
    <path clip-path="url(#pec64d2d51e)" d="M 281.978068 550.8 
L 288.63451 550.8 
L 288.63451 522.038095 
L 281.978068 522.038095 
z
" style="fill:#ff0000;opacity:0.4;"/>
   </g>
   <g id="patch_5">
    <path clip-path="url(#pec64d2d51e)" d="M 288.63451 550.8 
L 295.290953 550.8 
L 295.290953 522.038095 
L 288.63451 522.038095 
z
" style="fill:#ff0000;opacity:0.4;"/>
   </g>
   <g id="patch_6">
    <path clip-path="url(#pec64d2d51e)" d="M 295.290953 550.8 
L 301.947395 550.8 
L 301.947395 464.514286 
L 295.290953 464.514286 
z
" style="fill:#ff0000;opacity:0.4;"/>
   </g>
   <g id="patch_7">
    <path clip-path="url(#pec64d2d51e)" d="M 301.947395 550.8 
L 308.603838 550.8 
L 308.603838 493.27619 
L 301.947395 493.27619 
z
" style="fill:#ff0000;opacity:0.4;"/>
   </g>
   <g id="patch_8">
    <path clip-path="url(#pec64d2d51e)" d="M 308.603838 550.8 
L 315.26028 550.8 
L 315.26028 406.990476 
L 308.603838 406.990476 
z
" style="fill:#ff0000;opacity:0.4;"/>
   </g>
   <g id="patch_9">
    <path clip-path="url(#pec64d2d51e)" d="M 315.26028 550.8 
L 321.916723 550.8 
L 321.916723 464.514286 
L 315.26028 464.514286 
z
" style="fill:#ff0000;opacity:0.4;"/>
   </g>
   <g id="patch_10">
    <path clip-path="url(#pec64d2d51e)" d="M 321.916723 550.8 
L 328.573165 550.8 
L 328.573165 378.228571 
L 321.916723 378.228571 
z
" style="fill:#ff0000;opacity:0.4;"/>
   </g>
   <g id="patch_11">
    <path clip-path="url(#pec64d2d51e)" d="M 328.573165 550.8 
L 335.229608 550.8 
L 335.229608 320.704762 
L 328.573165 320.704762 
z
" style="fill:#ff0000;opacity:0.4;"/>
   </g>
   <g id="patch_12">
    <path clip-path="url(#pec64d2d51e)" d="M 335.229608 550.8 
L 341.88605 550.8 
L 341.88605 378.228571 
L 335.229608 378.228571 
z
" style="fill:#ff0000;opacity:0.4;"/>
   </g>
   <g id="patch_13">
    <path clip-path="url(#pec64d2d51e)" d="M 341.88605 550.8 
L 348.542493 550.8 
L 348.542493 320.704762 
L 341.88605 320.704762 
z
" style="fill:#ff0000;opacity:0.4;"/>
   </g>
   <g id="patch_14">
    <path clip-path="url(#pec64d2d51e)" d="M 348.542493 550.8 
L 355.198935 550.8 
L 355.198935 291.942857 
L 348.542493 291.942857 
z
" style="fill:#ff0000;opacity:0.4;"/>
   </g>
   <g id="patch_15">
    <path clip-path="url(#pec64d2d51e)" d="M 355.198935 550.8 
L 361.855378 550.8 
L 361.855378 205.657143 
L 355.198935 205.657143 
z
" style="fill:#ff0000;opacity:0.4;"/>
   </g>
   <g id="patch_16">
    <path clip-path="url(#pec64d2d51e)" d="M 361.855378 550.8 
L 368.51182 550.8 
L 368.51182 119.371429 
L 361.855378 119.371429 
z
" style="fill:#ff0000;opacity:0.4;"/>
   </g>
   <g id="patch_17">
    <path clip-path="url(#pec64d2d51e)" d="M 368.51182 550.8 
L 375.168263 550.8 
L 375.168263 33.085714 
L 368.51182 33.085714 
z
" style="fill:#ff0000;opacity:0.4;"/>
   </g>
   <g id="patch_18">
    <path clip-path="url(#pec64d2d51e)" d="M 375.168263 550.8 
L 381.824705 550.8 
L 381.824705 176.895238 
L 375.168263 176.895238 
z
" style="fill:#ff0000;opacity:0.4;"/>
   </g>
   <g id="patch_19">
    <path clip-path="url(#pec64d2d51e)" d="M 381.824705 550.8 
L 388.481148 550.8 
L 388.481148 90.609524 
L 381.824705 90.609524 
z
" style="fill:#ff0000;opacity:0.4;"/>
   </g>
   <g id="patch_20">
    <path clip-path="url(#pec64d2d51e)" d="M 388.481148 550.8 
L 395.13759 550.8 
L 395.13759 176.895238 
L 388.481148 176.895238 
z
" style="fill:#ff0000;opacity:0.4;"/>
   </g>
   <g id="patch_21">
    <path clip-path="url(#pec64d2d51e)" d="M 395.13759 550.8 
L 401.794033 550.8 
L 401.794033 205.657143 
L 395.13759 205.657143 
z
" style="fill:#ff0000;opacity:0.4;"/>
   </g>
   <g id="patch_22">
    <path clip-path="url(#pec64d2d51e)" d="M 401.794033 550.8 
L 408.450475 550.8 
L 408.450475 90.609524 
L 401.794033 90.609524 
z
" style="fill:#ff0000;opacity:0.4;"/>
   </g>
   <g id="patch_23">
    <path clip-path="url(#pec64d2d51e)" d="M 408.450475 550.8 
L 415.106918 550.8 
L 415.106918 234.419048 
L 408.450475 234.419048 
z
" style="fill:#ff0000;opacity:0.4;"/>
   </g>
   <g id="patch_24">
    <path clip-path="url(#pec64d2d51e)" d="M 415.106918 550.8 
L 421.76336 550.8 
L 421.76336 464.514286 
L 415.106918 464.514286 
z
" style="fill:#ff0000;opacity:0.4;"/>
   </g>
   <g id="patch_25">
    <path clip-path="url(#pec64d2d51e)" d="M 421.76336 550.8 
L 428.419803 550.8 
L 428.419803 435.752381 
L 421.76336 435.752381 
z
" style="fill:#ff0000;opacity:0.4;"/>
   </g>
   <g id="patch_26">
    <path clip-path="url(#pec64d2d51e)" d="M 428.419803 550.8 
L 435.076245 550.8 
L 435.076245 435.752381 
L 428.419803 435.752381 
z
" style="fill:#ff0000;opacity:0.4;"/>
   </g>
   <g id="patch_27">
    <path clip-path="url(#pec64d2d51e)" d="M 435.076245 550.8 
L 441.732688 550.8 
L 441.732688 522.038095 
L 435.076245 522.038095 
z
" style="fill:#ff0000;opacity:0.4;"/>
   </g>
   <g id="patch_28">
    <path clip-path="url(#pec64d2d51e)" d="M 441.732688 550.8 
L 448.38913 550.8 
L 448.38913 493.27619 
L 441.732688 493.27619 
z
" style="fill:#ff0000;opacity:0.4;"/>
   </g>
   <g id="patch_29">
    <path clip-path="url(#pec64d2d51e)" d="M 448.38913 550.8 
L 455.045573 550.8 
L 455.045573 464.514286 
L 448.38913 464.514286 
z
" style="fill:#ff0000;opacity:0.4;"/>
   </g>
   <g id="patch_30">
    <path clip-path="url(#pec64d2d51e)" d="M 455.045573 550.8 
L 461.702015 550.8 
L 461.702015 493.27619 
L 455.045573 493.27619 
z
" style="fill:#ff0000;opacity:0.4;"/>
   </g>
   <g id="patch_31">
    <path clip-path="url(#pec64d2d51e)" d="M 461.702015 550.8 
L 468.358458 550.8 
L 468.358458 522.038095 
L 461.702015 522.038095 
z
" style="fill:#ff0000;opacity:0.4;"/>
   </g>
   <g id="patch_32">
    <path clip-path="url(#pec64d2d51e)" d="M 468.358458 550.8 
L 475.0149 550.8 
L 475.0149 550.8 
L 468.358458 550.8 
z
" style="fill:#ff0000;opacity:0.4;"/>
   </g>
   <g id="patch_33">
    <path clip-path="url(#pec64d2d51e)" d="M 475.0149 550.8 
L 481.671343 550.8 
L 481.671343 522.038095 
L 475.0149 522.038095 
z
" style="fill:#ff0000;opacity:0.4;"/>
   </g>
   <g id="patch_34">
    <path clip-path="url(#pec64d2d51e)" d="M 481.671343 550.8 
L 488.327785 550.8 
L 488.327785 550.8 
L 481.671343 550.8 
z
" style="fill:#ff0000;opacity:0.4;"/>
   </g>
   <g id="patch_35">
    <path clip-path="url(#pec64d2d51e)" d="M 488.327785 550.8 
L 494.984228 550.8 
L 494.984228 550.8 
L 488.327785 550.8 
z
" style="fill:#ff0000;opacity:0.4;"/>
   </g>
   <g id="patch_36">
    <path clip-path="url(#pec64d2d51e)" d="M 494.984228 550.8 
L 501.64067 550.8 
L 501.64067 550.8 
L 494.984228 550.8 
z
" style="fill:#ff0000;opacity:0.4;"/>
   </g>
   <g id="patch_37">
    <path clip-path="url(#pec64d2d51e)" d="M 501.64067 550.8 
L 508.297113 550.8 
L 508.297113 550.8 
L 501.64067 550.8 
z
" style="fill:#ff0000;opacity:0.4;"/>
   </g>
   <g id="patch_38">
    <path clip-path="url(#pec64d2d51e)" d="M 508.297113 550.8 
L 514.953555 550.8 
L 514.953555 550.8 
L 508.297113 550.8 
z
" style="fill:#ff0000;opacity:0.4;"/>
   </g>
   <g id="patch_39">
    <path clip-path="url(#pec64d2d51e)" d="M 514.953555 550.8 
L 521.609998 550.8 
L 521.609998 550.8 
L 514.953555 550.8 
z
" style="fill:#ff0000;opacity:0.4;"/>
   </g>
   <g id="patch_40">
    <path clip-path="url(#pec64d2d51e)" d="M 521.609998 550.8 
L 528.26644 550.8 
L 528.26644 550.8 
L 521.609998 550.8 
z
" style="fill:#ff0000;opacity:0.4;"/>
   </g>
   <g id="patch_41">
    <path clip-path="url(#pec64d2d51e)" d="M 528.26644 550.8 
L 534.922883 550.8 
L 534.922883 550.8 
L 528.26644 550.8 
z
" style="fill:#ff0000;opacity:0.4;"/>
   </g>
   <g id="patch_42">
    <path clip-path="url(#pec64d2d51e)" d="M 534.922883 550.8 
L 541.579325 550.8 
L 541.579325 550.8 
L 534.922883 550.8 
z
" style="fill:#ff0000;opacity:0.4;"/>
   </g>
   <g id="patch_43">
    <path clip-path="url(#pec64d2d51e)" d="M 541.579325 550.8 
L 548.235768 550.8 
L 548.235768 550.8 
L 541.579325 550.8 
z
" style="fill:#ff0000;opacity:0.4;"/>
   </g>
   <g id="patch_44">
    <path clip-path="url(#pec64d2d51e)" d="M 548.235768 550.8 
L 554.89221 550.8 
L 554.89221 522.038095 
L 548.235768 522.038095 
z
" style="fill:#ff0000;opacity:0.4;"/>
   </g>
   <g id="patch_45">
    <path clip-path="url(#pec64d2d51e)" d="M 554.89221 550.8 
L 561.548653 550.8 
L 561.548653 522.038095 
L 554.89221 522.038095 
z
" style="fill:#ff0000;opacity:0.4;"/>
   </g>
   <g id="patch_46">
    <path clip-path="url(#pec64d2d51e)" d="M 561.548653 550.8 
L 568.205095 550.8 
L 568.205095 550.8 
L 561.548653 550.8 
z
" style="fill:#ff0000;opacity:0.4;"/>
   </g>
   <g id="patch_47">
    <path clip-path="url(#pec64d2d51e)" d="M 568.205095 550.8 
L 574.861538 550.8 
L 574.861538 550.8 
L 568.205095 550.8 
z
" style="fill:#ff0000;opacity:0.4;"/>
   </g>
   <g id="patch_48">
    <path clip-path="url(#pec64d2d51e)" d="M 574.861538 550.8 
L 581.51798 550.8 
L 581.51798 550.8 
L 574.861538 550.8 
z
" style="fill:#ff0000;opacity:0.4;"/>
   </g>
   <g id="patch_49">
    <path clip-path="url(#pec64d2d51e)" d="M 581.51798 550.8 
L 588.174423 550.8 
L 588.174423 522.038095 
L 581.51798 522.038095 
z
" style="fill:#ff0000;opacity:0.4;"/>
   </g>
   <g id="patch_50">
    <path clip-path="url(#pec64d2d51e)" d="M 588.174423 550.8 
L 594.830865 550.8 
L 594.830865 493.27619 
L 588.174423 493.27619 
z
" style="fill:#ff0000;opacity:0.4;"/>
   </g>
   <g id="patch_51">
    <path clip-path="url(#pec64d2d51e)" d="M 594.830865 550.8 
L 601.487308 550.8 
L 601.487308 550.8 
L 594.830865 550.8 
z
" style="fill:#ff0000;opacity:0.4;"/>
   </g>
   <g id="patch_52">
    <path clip-path="url(#pec64d2d51e)" d="M 601.487308 550.8 
L 608.14375 550.8 
L 608.14375 493.27619 
L 601.487308 493.27619 
z
" style="fill:#ff0000;opacity:0.4;"/>
   </g>
   <g id="patch_53">
    <path clip-path="url(#pec64d2d51e)" d="M 608.14375 550.8 
L 614.800192 550.8 
L 614.800192 550.8 
L 608.14375 550.8 
z
" style="fill:#ff0000;opacity:0.4;"/>
   </g>
   <g id="patch_54">
    <path clip-path="url(#pec64d2d51e)" d="M 614.800192 550.8 
L 621.456635 550.8 
L 621.456635 464.514286 
L 614.800192 464.514286 
z
" style="fill:#ff0000;opacity:0.4;"/>
   </g>
   <g id="patch_55">
    <path clip-path="url(#pec64d2d51e)" d="M 621.456635 550.8 
L 628.113077 550.8 
L 628.113077 522.038095 
L 621.456635 522.038095 
z
" style="fill:#ff0000;opacity:0.4;"/>
   </g>
   <g id="patch_56">
    <path clip-path="url(#pec64d2d51e)" d="M 628.113077 550.8 
L 634.76952 550.8 
L 634.76952 522.038095 
L 628.113077 522.038095 
z
" style="fill:#ff0000;opacity:0.4;"/>
   </g>
   <g id="patch_57">
    <path clip-path="url(#pec64d2d51e)" d="M 634.76952 550.8 
L 641.425962 550.8 
L 641.425962 522.038095 
L 634.76952 522.038095 
z
" style="fill:#ff0000;opacity:0.4;"/>
   </g>
   <g id="patch_58">
    <path clip-path="url(#pec64d2d51e)" d="M 641.425962 550.8 
L 648.082405 550.8 
L 648.082405 435.752381 
L 641.425962 435.752381 
z
" style="fill:#ff0000;opacity:0.4;"/>
   </g>
   <g id="patch_59">
    <path clip-path="url(#pec64d2d51e)" d="M 648.082405 550.8 
L 654.738847 550.8 
L 654.738847 378.228571 
L 648.082405 378.228571 
z
" style="fill:#ff0000;opacity:0.4;"/>
   </g>
   <g id="patch_60">
    <path clip-path="url(#pec64d2d51e)" d="M 654.738847 550.8 
L 661.39529 550.8 
L 661.39529 291.942857 
L 654.738847 291.942857 
z
" style="fill:#ff0000;opacity:0.4;"/>
   </g>
   <g id="patch_61">
    <path clip-path="url(#pec64d2d51e)" d="M 661.39529 550.8 
L 668.051732 550.8 
L 668.051732 522.038095 
L 661.39529 522.038095 
z
" style="fill:#ff0000;opacity:0.4;"/>
   </g>
   <g id="patch_62">
    <path clip-path="url(#pec64d2d51e)" d="M 668.051732 550.8 
L 674.708175 550.8 
L 674.708175 464.514286 
L 668.051732 464.514286 
z
" style="fill:#ff0000;opacity:0.4;"/>
   </g>
   <g id="patch_63">
    <path clip-path="url(#pec64d2d51e)" d="M 674.708175 550.8 
L 681.364617 550.8 
L 681.364617 320.704762 
L 674.708175 320.704762 
z
" style="fill:#ff0000;opacity:0.4;"/>
   </g>
   <g id="patch_64">
    <path clip-path="url(#pec64d2d51e)" d="M 681.364617 550.8 
L 688.02106 550.8 
L 688.02106 349.466667 
L 681.364617 349.466667 
z
" style="fill:#ff0000;opacity:0.4;"/>
   </g>
   <g id="patch_65">
    <path clip-path="url(#pec64d2d51e)" d="M 688.02106 550.8 
L 694.677502 550.8 
L 694.677502 320.704762 
L 688.02106 320.704762 
z
" style="fill:#ff0000;opacity:0.4;"/>
   </g>
   <g id="patch_66">
    <path clip-path="url(#pec64d2d51e)" d="M 694.677502 550.8 
L 701.333945 550.8 
L 701.333945 320.704762 
L 694.677502 320.704762 
z
" style="fill:#ff0000;opacity:0.4;"/>
   </g>
   <g id="patch_67">
    <path clip-path="url(#pec64d2d51e)" d="M 701.333945 550.8 
L 707.990387 550.8 
L 707.990387 435.752381 
L 701.333945 435.752381 
z
" style="fill:#ff0000;opacity:0.4;"/>
   </g>
   <g id="patch_68">
    <path clip-path="url(#pec64d2d51e)" d="M 707.990387 550.8 
L 714.64683 550.8 
L 714.64683 320.704762 
L 707.990387 320.704762 
z
" style="fill:#ff0000;opacity:0.4;"/>
   </g>
   <g id="patch_69">
    <path clip-path="url(#pec64d2d51e)" d="M 714.64683 550.8 
L 721.303272 550.8 
L 721.303272 291.942857 
L 714.64683 291.942857 
z
" style="fill:#ff0000;opacity:0.4;"/>
   </g>
   <g id="patch_70">
    <path clip-path="url(#pec64d2d51e)" d="M 721.303272 550.8 
L 727.959715 550.8 
L 727.959715 406.990476 
L 721.303272 406.990476 
z
" style="fill:#ff0000;opacity:0.4;"/>
   </g>
   <g id="patch_71">
    <path clip-path="url(#pec64d2d51e)" d="M 727.959715 550.8 
L 734.616157 550.8 
L 734.616157 435.752381 
L 727.959715 435.752381 
z
" style="fill:#ff0000;opacity:0.4;"/>
   </g>
   <g id="patch_72">
    <path clip-path="url(#pec64d2d51e)" d="M 734.616157 550.8 
L 741.2726 550.8 
L 741.2726 378.228571 
L 734.616157 378.228571 
z
" style="fill:#ff0000;opacity:0.4;"/>
   </g>
   <g id="patch_73">
    <path clip-path="url(#pec64d2d51e)" d="M 741.2726 550.8 
L 747.929042 550.8 
L 747.929042 435.752381 
L 741.2726 435.752381 
z
" style="fill:#ff0000;opacity:0.4;"/>
   </g>
   <g id="patch_74">
    <path clip-path="url(#pec64d2d51e)" d="M 747.929042 550.8 
L 754.585485 550.8 
L 754.585485 349.466667 
L 747.929042 349.466667 
z
" style="fill:#ff0000;opacity:0.4;"/>
   </g>
   <g id="patch_75">
    <path clip-path="url(#pec64d2d51e)" d="M 754.585485 550.8 
L 761.241927 550.8 
L 761.241927 378.228571 
L 754.585485 378.228571 
z
" style="fill:#ff0000;opacity:0.4;"/>
   </g>
   <g id="patch_76">
    <path clip-path="url(#pec64d2d51e)" d="M 761.241927 550.8 
L 767.89837 550.8 
L 767.89837 435.752381 
L 761.241927 435.752381 
z
" style="fill:#ff0000;opacity:0.4;"/>
   </g>
   <g id="patch_77">
    <path clip-path="url(#pec64d2d51e)" d="M 767.89837 550.8 
L 774.554812 550.8 
L 774.554812 320.704762 
L 767.89837 320.704762 
z
" style="fill:#ff0000;opacity:0.4;"/>
   </g>
   <g id="patch_78">
    <path clip-path="url(#pec64d2d51e)" d="M 774.554812 550.8 
L 781.211255 550.8 
L 781.211255 464.514286 
L 774.554812 464.514286 
z
" style="fill:#ff0000;opacity:0.4;"/>
   </g>
   <g id="patch_79">
    <path clip-path="url(#pec64d2d51e)" d="M 781.211255 550.8 
L 787.867697 550.8 
L 787.867697 234.419048 
L 781.211255 234.419048 
z
" style="fill:#ff0000;opacity:0.4;"/>
   </g>
   <g id="patch_80">
    <path clip-path="url(#pec64d2d51e)" d="M 787.867697 550.8 
L 794.52414 550.8 
L 794.52414 349.466667 
L 787.867697 349.466667 
z
" style="fill:#ff0000;opacity:0.4;"/>
   </g>
   <g id="patch_81">
    <path clip-path="url(#pec64d2d51e)" d="M 794.52414 550.8 
L 801.180582 550.8 
L 801.180582 435.752381 
L 794.52414 435.752381 
z
" style="fill:#ff0000;opacity:0.4;"/>
   </g>
   <g id="patch_82">
    <path clip-path="url(#pec64d2d51e)" d="M 801.180582 550.8 
L 807.837025 550.8 
L 807.837025 406.990476 
L 801.180582 406.990476 
z
" style="fill:#ff0000;opacity:0.4;"/>
   </g>
   <g id="patch_83">
    <path clip-path="url(#pec64d2d51e)" d="M 807.837025 550.8 
L 814.493467 550.8 
L 814.493467 464.514286 
L 807.837025 464.514286 
z
" style="fill:#ff0000;opacity:0.4;"/>
   </g>
   <g id="patch_84">
    <path clip-path="url(#pec64d2d51e)" d="M 814.493467 550.8 
L 821.14991 550.8 
L 821.14991 435.752381 
L 814.493467 435.752381 
z
" style="fill:#ff0000;opacity:0.4;"/>
   </g>
   <g id="patch_85">
    <path clip-path="url(#pec64d2d51e)" d="M 821.14991 550.8 
L 827.806352 550.8 
L 827.806352 435.752381 
L 821.14991 435.752381 
z
" style="fill:#ff0000;opacity:0.4;"/>
   </g>
   <g id="patch_86">
    <path clip-path="url(#pec64d2d51e)" d="M 827.806352 550.8 
L 834.462795 550.8 
L 834.462795 406.990476 
L 827.806352 406.990476 
z
" style="fill:#ff0000;opacity:0.4;"/>
   </g>
   <g id="patch_87">
    <path clip-path="url(#pec64d2d51e)" d="M 834.462795 550.8 
L 841.119237 550.8 
L 841.119237 493.27619 
L 834.462795 493.27619 
z
" style="fill:#ff0000;opacity:0.4;"/>
   </g>
   <g id="patch_88">
    <path clip-path="url(#pec64d2d51e)" d="M 841.119237 550.8 
L 847.77568 550.8 
L 847.77568 522.038095 
L 841.119237 522.038095 
z
" style="fill:#ff0000;opacity:0.4;"/>
   </g>
   <g id="patch_89">
    <path clip-path="url(#pec64d2d51e)" d="M 847.77568 550.8 
L 854.432122 550.8 
L 854.432122 464.514286 
L 847.77568 464.514286 
z
" style="fill:#ff0000;opacity:0.4;"/>
   </g>
   <g id="patch_90">
    <path clip-path="url(#pec64d2d51e)" d="M 854.432122 550.8 
L 861.088565 550.8 
L 861.088565 464.514286 
L 854.432122 464.514286 
z
" style="fill:#ff0000;opacity:0.4;"/>
   </g>
   <g id="patch_91">
    <path clip-path="url(#pec64d2d51e)" d="M 861.088565 550.8 
L 867.745007 550.8 
L 867.745007 464.514286 
L 861.088565 464.514286 
z
" style="fill:#ff0000;opacity:0.4;"/>
   </g>
   <g id="patch_92">
    <path clip-path="url(#pec64d2d51e)" d="M 867.745007 550.8 
L 874.40145 550.8 
L 874.40145 493.27619 
L 867.745007 493.27619 
z
" style="fill:#ff0000;opacity:0.4;"/>
   </g>
   <g id="patch_93">
    <path clip-path="url(#pec64d2d51e)" d="M 874.40145 550.8 
L 881.057892 550.8 
L 881.057892 550.8 
L 874.40145 550.8 
z
" style="fill:#ff0000;opacity:0.4;"/>
   </g>
   <g id="patch_94">
    <path clip-path="url(#pec64d2d51e)" d="M 881.057892 550.8 
L 887.714335 550.8 
L 887.714335 550.8 
L 881.057892 550.8 
z
" style="fill:#ff0000;opacity:0.4;"/>
   </g>
   <g id="patch_95">
    <path clip-path="url(#pec64d2d51e)" d="M 887.714335 550.8 
L 894.370777 550.8 
L 894.370777 493.27619 
L 887.714335 493.27619 
z
" style="fill:#ff0000;opacity:0.4;"/>
   </g>
   <g id="patch_96">
    <path clip-path="url(#pec64d2d51e)" d="M 894.370777 550.8 
L 901.02722 550.8 
L 901.02722 493.27619 
L 894.370777 493.27619 
z
" style="fill:#ff0000;opacity:0.4;"/>
   </g>
   <g id="patch_97">
    <path clip-path="url(#pec64d2d51e)" d="M 901.02722 550.8 
L 907.683662 550.8 
L 907.683662 493.27619 
L 901.02722 493.27619 
z
" style="fill:#ff0000;opacity:0.4;"/>
   </g>
   <g id="patch_98">
    <path clip-path="url(#pec64d2d51e)" d="M 907.683662 550.8 
L 914.340105 550.8 
L 914.340105 550.8 
L 907.683662 550.8 
z
" style="fill:#ff0000;opacity:0.4;"/>
   </g>
   <g id="patch_99">
    <path clip-path="url(#pec64d2d51e)" d="M 914.340105 550.8 
L 920.996547 550.8 
L 920.996547 550.8 
L 914.340105 550.8 
z
" style="fill:#ff0000;opacity:0.4;"/>
   </g>
   <g id="patch_100">
    <path clip-path="url(#pec64d2d51e)" d="M 920.996547 550.8 
L 927.65299 550.8 
L 927.65299 522.038095 
L 920.996547 522.038095 
z
" style="fill:#ff0000;opacity:0.4;"/>
   </g>
   <g id="patch_101">
    <path clip-path="url(#pec64d2d51e)" d="M 927.65299 550.8 
L 934.309432 550.8 
L 934.309432 550.8 
L 927.65299 550.8 
z
" style="fill:#ff0000;opacity:0.4;"/>
   </g>
   <g id="patch_102">
    <path clip-path="url(#pec64d2d51e)" d="M 934.309432 550.8 
L 940.965875 550.8 
L 940.965875 522.038095 
L 934.309432 522.038095 
z
" style="fill:#ff0000;opacity:0.4;"/>
   </g>
   <g id="matplotlib.axis_1">
    <g id="xtick_1">
     <g id="line2d_1">
      <defs>
       <path d="M 0 0 
L 0 3.5 
" id="m5a01d9f773" style="stroke:#000000;stroke-width:0.8;"/>
      </defs>
      <g>
       <use style="stroke:#000000;stroke-width:0.8;" x="191.317724" xlink:href="#m5a01d9f773" y="550.8"/>
      </g>
     </g>
     <g id="text_1">
      <!-- −5 -->
      <g transform="translate(183.946631 565.398438)scale(0.1 -0.1)">
       <defs>
        <path d="M 10.59375 35.5 
L 73.1875 35.5 
L 73.1875 27.203125 
L 10.59375 27.203125 
z
" id="DejaVuSans-8722"/>
        <path d="M 10.796875 72.90625 
L 49.515625 72.90625 
L 49.515625 64.59375 
L 19.828125 64.59375 
L 19.828125 46.734375 
Q 21.96875 47.46875 24.109375 47.828125 
Q 26.265625 48.1875 28.421875 48.1875 
Q 40.625 48.1875 47.75 41.5 
Q 54.890625 34.8125 54.890625 23.390625 
Q 54.890625 11.625 47.5625 5.09375 
Q 40.234375 -1.421875 26.90625 -1.421875 
Q 22.3125 -1.421875 17.546875 -0.640625 
Q 12.796875 0.140625 7.71875 1.703125 
L 7.71875 11.625 
Q 12.109375 9.234375 16.796875 8.0625 
Q 21.484375 6.890625 26.703125 6.890625 
Q 35.15625 6.890625 40.078125 11.328125 
Q 45.015625 15.765625 45.015625 23.390625 
Q 45.015625 31 40.078125 35.4375 
Q 35.15625 39.890625 26.703125 39.890625 
Q 22.75 39.890625 18.8125 39.015625 
Q 14.890625 38.140625 10.796875 36.28125 
z
" id="DejaVuSans-53"/>
       </defs>
       <use xlink:href="#DejaVuSans-8722"/>
       <use x="83.789062" xlink:href="#DejaVuSans-53"/>
      </g>
     </g>
    </g>
    <g id="xtick_2">
     <g id="line2d_2">
      <g>
       <use style="stroke:#000000;stroke-width:0.8;" x="374.908369" xlink:href="#m5a01d9f773" y="550.8"/>
      </g>
     </g>
     <g id="text_2">
      <!-- 0 -->
      <g transform="translate(371.727119 565.398438)scale(0.1 -0.1)">
       <defs>
        <path d="M 31.78125 66.40625 
Q 24.171875 66.40625 20.328125 58.90625 
Q 16.5 51.421875 16.5 36.375 
Q 16.5 21.390625 20.328125 13.890625 
Q 24.171875 6.390625 31.78125 6.390625 
Q 39.453125 6.390625 43.28125 13.890625 
Q 47.125 21.390625 47.125 36.375 
Q 47.125 51.421875 43.28125 58.90625 
Q 39.453125 66.40625 31.78125 66.40625 
z
M 31.78125 74.21875 
Q 44.046875 74.21875 50.515625 64.515625 
Q 56.984375 54.828125 56.984375 36.375 
Q 56.984375 17.96875 50.515625 8.265625 
Q 44.046875 -1.421875 31.78125 -1.421875 
Q 19.53125 -1.421875 13.0625 8.265625 
Q 6.59375 17.96875 6.59375 36.375 
Q 6.59375 54.828125 13.0625 64.515625 
Q 19.53125 74.21875 31.78125 74.21875 
z
" id="DejaVuSans-48"/>
       </defs>
       <use xlink:href="#DejaVuSans-48"/>
      </g>
     </g>
    </g>
    <g id="xtick_3">
     <g id="line2d_3">
      <g>
       <use style="stroke:#000000;stroke-width:0.8;" x="558.499014" xlink:href="#m5a01d9f773" y="550.8"/>
      </g>
     </g>
     <g id="text_3">
      <!-- 5 -->
      <g transform="translate(555.317764 565.398438)scale(0.1 -0.1)">
       <use xlink:href="#DejaVuSans-53"/>
      </g>
     </g>
    </g>
    <g id="xtick_4">
     <g id="line2d_4">
      <g>
       <use style="stroke:#000000;stroke-width:0.8;" x="742.089659" xlink:href="#m5a01d9f773" y="550.8"/>
      </g>
     </g>
     <g id="text_4">
      <!-- 10 -->
      <g transform="translate(735.727159 565.398438)scale(0.1 -0.1)">
       <defs>
        <path d="M 12.40625 8.296875 
L 28.515625 8.296875 
L 28.515625 63.921875 
L 10.984375 60.40625 
L 10.984375 69.390625 
L 28.421875 72.90625 
L 38.28125 72.90625 
L 38.28125 8.296875 
L 54.390625 8.296875 
L 54.390625 0 
L 12.40625 0 
z
" id="DejaVuSans-49"/>
       </defs>
       <use xlink:href="#DejaVuSans-49"/>
       <use x="63.623047" xlink:href="#DejaVuSans-48"/>
      </g>
     </g>
    </g>
    <g id="xtick_5">
     <g id="line2d_5">
      <g>
       <use style="stroke:#000000;stroke-width:0.8;" x="925.680304" xlink:href="#m5a01d9f773" y="550.8"/>
      </g>
     </g>
     <g id="text_5">
      <!-- 15 -->
      <g transform="translate(919.317804 565.398438)scale(0.1 -0.1)">
       <use xlink:href="#DejaVuSans-49"/>
       <use x="63.623047" xlink:href="#DejaVuSans-53"/>
      </g>
     </g>
    </g>
    <g id="xtick_6">
     <g id="line2d_6">
      <g>
       <use style="stroke:#000000;stroke-width:0.8;" x="1109.270949" xlink:href="#m5a01d9f773" y="550.8"/>
      </g>
     </g>
     <g id="text_6">
      <!-- 20 -->
      <g transform="translate(1102.908449 565.398438)scale(0.1 -0.1)">
       <defs>
        <path d="M 19.1875 8.296875 
L 53.609375 8.296875 
L 53.609375 0 
L 7.328125 0 
L 7.328125 8.296875 
Q 12.9375 14.109375 22.625 23.890625 
Q 32.328125 33.6875 34.8125 36.53125 
Q 39.546875 41.84375 41.421875 45.53125 
Q 43.3125 49.21875 43.3125 52.78125 
Q 43.3125 58.59375 39.234375 62.25 
Q 35.15625 65.921875 28.609375 65.921875 
Q 23.96875 65.921875 18.8125 64.3125 
Q 13.671875 62.703125 7.8125 59.421875 
L 7.8125 69.390625 
Q 13.765625 71.78125 18.9375 73 
Q 24.125 74.21875 28.421875 74.21875 
Q 39.75 74.21875 46.484375 68.546875 
Q 53.21875 62.890625 53.21875 53.421875 
Q 53.21875 48.921875 51.53125 44.890625 
Q 49.859375 40.875 45.40625 35.40625 
Q 44.1875 33.984375 37.640625 27.21875 
Q 31.109375 20.453125 19.1875 8.296875 
z
" id="DejaVuSans-50"/>
       </defs>
       <use xlink:href="#DejaVuSans-50"/>
       <use x="63.623047" xlink:href="#DejaVuSans-48"/>
      </g>
     </g>
    </g>
   </g>
   <g id="matplotlib.axis_2">
    <g id="ytick_1">
     <g id="line2d_7">
      <defs>
       <path d="M 0 0 
L -3.5 0 
" id="mc02e1e2085" style="stroke:#000000;stroke-width:0.8;"/>
      </defs>
      <g>
       <use style="stroke:#000000;stroke-width:0.8;" x="50.14375" xlink:href="#mc02e1e2085" y="550.8"/>
      </g>
     </g>
     <g id="text_7">
      <!-- 0.00 -->
      <g transform="translate(20.878125 554.599219)scale(0.1 -0.1)">
       <defs>
        <path d="M 10.6875 12.40625 
L 21 12.40625 
L 21 0 
L 10.6875 0 
z
" id="DejaVuSans-46"/>
       </defs>
       <use xlink:href="#DejaVuSans-48"/>
       <use x="63.623047" xlink:href="#DejaVuSans-46"/>
       <use x="95.410156" xlink:href="#DejaVuSans-48"/>
       <use x="159.033203" xlink:href="#DejaVuSans-48"/>
      </g>
     </g>
    </g>
    <g id="ytick_2">
     <g id="line2d_8">
      <g>
       <use style="stroke:#000000;stroke-width:0.8;" x="50.14375" xlink:href="#mc02e1e2085" y="446.518017"/>
      </g>
     </g>
     <g id="text_8">
      <!-- 0.05 -->
      <g transform="translate(20.878125 450.317236)scale(0.1 -0.1)">
       <use xlink:href="#DejaVuSans-48"/>
       <use x="63.623047" xlink:href="#DejaVuSans-46"/>
       <use x="95.410156" xlink:href="#DejaVuSans-48"/>
       <use x="159.033203" xlink:href="#DejaVuSans-53"/>
      </g>
     </g>
    </g>
    <g id="ytick_3">
     <g id="line2d_9">
      <g>
       <use style="stroke:#000000;stroke-width:0.8;" x="50.14375" xlink:href="#mc02e1e2085" y="342.236034"/>
      </g>
     </g>
     <g id="text_9">
      <!-- 0.10 -->
      <g transform="translate(20.878125 346.035253)scale(0.1 -0.1)">
       <use xlink:href="#DejaVuSans-48"/>
       <use x="63.623047" xlink:href="#DejaVuSans-46"/>
       <use x="95.410156" xlink:href="#DejaVuSans-49"/>
       <use x="159.033203" xlink:href="#DejaVuSans-48"/>
      </g>
     </g>
    </g>
    <g id="ytick_4">
     <g id="line2d_10">
      <g>
       <use style="stroke:#000000;stroke-width:0.8;" x="50.14375" xlink:href="#mc02e1e2085" y="237.954051"/>
      </g>
     </g>
     <g id="text_10">
      <!-- 0.15 -->
      <g transform="translate(20.878125 241.75327)scale(0.1 -0.1)">
       <use xlink:href="#DejaVuSans-48"/>
       <use x="63.623047" xlink:href="#DejaVuSans-46"/>
       <use x="95.410156" xlink:href="#DejaVuSans-49"/>
       <use x="159.033203" xlink:href="#DejaVuSans-53"/>
      </g>
     </g>
    </g>
    <g id="ytick_5">
     <g id="line2d_11">
      <g>
       <use style="stroke:#000000;stroke-width:0.8;" x="50.14375" xlink:href="#mc02e1e2085" y="133.672068"/>
      </g>
     </g>
     <g id="text_11">
      <!-- 0.20 -->
      <g transform="translate(20.878125 137.471287)scale(0.1 -0.1)">
       <use xlink:href="#DejaVuSans-48"/>
       <use x="63.623047" xlink:href="#DejaVuSans-46"/>
       <use x="95.410156" xlink:href="#DejaVuSans-50"/>
       <use x="159.033203" xlink:href="#DejaVuSans-48"/>
      </g>
     </g>
    </g>
    <g id="ytick_6">
     <g id="line2d_12">
      <g>
       <use style="stroke:#000000;stroke-width:0.8;" x="50.14375" xlink:href="#mc02e1e2085" y="29.390086"/>
      </g>
     </g>
     <g id="text_12">
      <!-- 0.25 -->
      <g transform="translate(20.878125 33.189304)scale(0.1 -0.1)">
       <use xlink:href="#DejaVuSans-48"/>
       <use x="63.623047" xlink:href="#DejaVuSans-46"/>
       <use x="95.410156" xlink:href="#DejaVuSans-50"/>
       <use x="159.033203" xlink:href="#DejaVuSans-53"/>
      </g>
     </g>
    </g>
    <g id="text_13">
     <!-- Density -->
     <g transform="translate(14.798438 298.008594)rotate(-90)scale(0.1 -0.1)">
      <defs>
       <path d="M 19.671875 64.796875 
L 19.671875 8.109375 
L 31.59375 8.109375 
Q 46.6875 8.109375 53.6875 14.9375 
Q 60.6875 21.78125 60.6875 36.53125 
Q 60.6875 51.171875 53.6875 57.984375 
Q 46.6875 64.796875 31.59375 64.796875 
z
M 9.8125 72.90625 
L 30.078125 72.90625 
Q 51.265625 72.90625 61.171875 64.09375 
Q 71.09375 55.28125 71.09375 36.53125 
Q 71.09375 17.671875 61.125 8.828125 
Q 51.171875 0 30.078125 0 
L 9.8125 0 
z
" id="DejaVuSans-68"/>
       <path d="M 56.203125 29.59375 
L 56.203125 25.203125 
L 14.890625 25.203125 
Q 15.484375 15.921875 20.484375 11.0625 
Q 25.484375 6.203125 34.421875 6.203125 
Q 39.59375 6.203125 44.453125 7.46875 
Q 49.3125 8.734375 54.109375 11.28125 
L 54.109375 2.78125 
Q 49.265625 0.734375 44.1875 -0.34375 
Q 39.109375 -1.421875 33.890625 -1.421875 
Q 20.796875 -1.421875 13.15625 6.1875 
Q 5.515625 13.8125 5.515625 26.8125 
Q 5.515625 40.234375 12.765625 48.109375 
Q 20.015625 56 32.328125 56 
Q 43.359375 56 49.78125 48.890625 
Q 56.203125 41.796875 56.203125 29.59375 
z
M 47.21875 32.234375 
Q 47.125 39.59375 43.09375 43.984375 
Q 39.0625 48.390625 32.421875 48.390625 
Q 24.90625 48.390625 20.390625 44.140625 
Q 15.875 39.890625 15.1875 32.171875 
z
" id="DejaVuSans-101"/>
       <path d="M 54.890625 33.015625 
L 54.890625 0 
L 45.90625 0 
L 45.90625 32.71875 
Q 45.90625 40.484375 42.875 44.328125 
Q 39.84375 48.1875 33.796875 48.1875 
Q 26.515625 48.1875 22.3125 43.546875 
Q 18.109375 38.921875 18.109375 30.90625 
L 18.109375 0 
L 9.078125 0 
L 9.078125 54.6875 
L 18.109375 54.6875 
L 18.109375 46.1875 
Q 21.34375 51.125 25.703125 53.5625 
Q 30.078125 56 35.796875 56 
Q 45.21875 56 50.046875 50.171875 
Q 54.890625 44.34375 54.890625 33.015625 
z
" id="DejaVuSans-110"/>
       <path d="M 44.28125 53.078125 
L 44.28125 44.578125 
Q 40.484375 46.53125 36.375 47.5 
Q 32.28125 48.484375 27.875 48.484375 
Q 21.1875 48.484375 17.84375 46.4375 
Q 14.5 44.390625 14.5 40.28125 
Q 14.5 37.15625 16.890625 35.375 
Q 19.28125 33.59375 26.515625 31.984375 
L 29.59375 31.296875 
Q 39.15625 29.25 43.1875 25.515625 
Q 47.21875 21.78125 47.21875 15.09375 
Q 47.21875 7.46875 41.1875 3.015625 
Q 35.15625 -1.421875 24.609375 -1.421875 
Q 20.21875 -1.421875 15.453125 -0.5625 
Q 10.6875 0.296875 5.421875 2 
L 5.421875 11.28125 
Q 10.40625 8.6875 15.234375 7.390625 
Q 20.0625 6.109375 24.8125 6.109375 
Q 31.15625 6.109375 34.5625 8.28125 
Q 37.984375 10.453125 37.984375 14.40625 
Q 37.984375 18.0625 35.515625 20.015625 
Q 33.0625 21.96875 24.703125 23.78125 
L 21.578125 24.515625 
Q 13.234375 26.265625 9.515625 29.90625 
Q 5.8125 33.546875 5.8125 39.890625 
Q 5.8125 47.609375 11.28125 51.796875 
Q 16.75 56 26.8125 56 
Q 31.78125 56 36.171875 55.265625 
Q 40.578125 54.546875 44.28125 53.078125 
z
" id="DejaVuSans-115"/>
       <path d="M 9.421875 54.6875 
L 18.40625 54.6875 
L 18.40625 0 
L 9.421875 0 
z
M 9.421875 75.984375 
L 18.40625 75.984375 
L 18.40625 64.59375 
L 9.421875 64.59375 
z
" id="DejaVuSans-105"/>
       <path d="M 18.3125 70.21875 
L 18.3125 54.6875 
L 36.8125 54.6875 
L 36.8125 47.703125 
L 18.3125 47.703125 
L 18.3125 18.015625 
Q 18.3125 11.328125 20.140625 9.421875 
Q 21.96875 7.515625 27.59375 7.515625 
L 36.8125 7.515625 
L 36.8125 0 
L 27.59375 0 
Q 17.1875 0 13.234375 3.875 
Q 9.28125 7.765625 9.28125 18.015625 
L 9.28125 47.703125 
L 2.6875 47.703125 
L 2.6875 54.6875 
L 9.28125 54.6875 
L 9.28125 70.21875 
z
" id="DejaVuSans-116"/>
       <path d="M 32.171875 -5.078125 
Q 28.375 -14.84375 24.75 -17.8125 
Q 21.140625 -20.796875 15.09375 -20.796875 
L 7.90625 -20.796875 
L 7.90625 -13.28125 
L 13.1875 -13.28125 
Q 16.890625 -13.28125 18.9375 -11.515625 
Q 21 -9.765625 23.484375 -3.21875 
L 25.09375 0.875 
L 2.984375 54.6875 
L 12.5 54.6875 
L 29.59375 11.921875 
L 46.6875 54.6875 
L 56.203125 54.6875 
z
" id="DejaVuSans-121"/>
      </defs>
      <use xlink:href="#DejaVuSans-68"/>
      <use x="77.001953" xlink:href="#DejaVuSans-101"/>
      <use x="138.525391" xlink:href="#DejaVuSans-110"/>
      <use x="201.904297" xlink:href="#DejaVuSans-115"/>
      <use x="254.003906" xlink:href="#DejaVuSans-105"/>
      <use x="281.787109" xlink:href="#DejaVuSans-116"/>
      <use x="320.996094" xlink:href="#DejaVuSans-121"/>
     </g>
    </g>
   </g>
   <g id="line2d_13">
    <path clip-path="url(#pec64d2d51e)" d="M 100.871023 550.723181 
L 121.263896 550.553432 
L 136.558551 550.246773 
L 146.754988 549.880807 
L 156.951425 549.309572 
L 167.147861 548.440741 
L 172.24608 547.857996 
L 177.344298 547.152785 
L 182.442517 546.304791 
L 187.540735 545.291561 
L 192.638953 544.088542 
L 197.737172 542.669186 
L 202.83539 541.005131 
L 207.933608 539.066471 
L 213.031827 536.822112 
L 218.130045 534.240246 
L 223.228263 531.288917 
L 228.326482 527.936708 
L 233.4247 524.153526 
L 238.522919 519.911497 
L 243.621137 515.185944 
L 248.719355 509.956443 
L 253.817574 504.207939 
L 258.915792 497.931875 
L 264.01401 491.127329 
L 269.112229 483.802097 
L 274.210447 475.973698 
L 279.308665 467.670248 
L 284.406884 458.93115 
L 289.505102 449.807567 
L 294.603321 440.36262 
L 304.799757 420.819915 
L 314.996194 401.034203 
L 320.094412 391.320237 
L 325.192631 381.883469 
L 330.290849 372.847363 
L 335.389067 364.336381 
L 340.487286 356.473213 
L 345.585504 349.375873 
L 350.683723 343.154757 
L 355.781941 337.909766 
L 360.880159 333.727587 
L 365.978378 330.679246 
L 371.076596 328.818025 
L 376.174814 328.177835 
L 381.273033 328.772107 
L 386.371251 330.593252 
L 391.46947 333.61273 
L 396.567688 337.781711 
L 401.665906 343.032322 
L 406.764125 349.279421 
L 411.862343 356.422842 
L 416.960561 364.350003 
L 422.05878 372.938806 
L 427.156998 382.060679 
L 432.255216 391.583689 
L 442.451653 411.306649 
L 452.64809 431.095701 
L 457.746308 440.728942 
L 462.844527 450.05526 
L 467.942745 458.989701 
L 473.040963 467.459789 
L 478.139182 475.405709 
L 483.2374 482.780099 
L 488.335618 489.547509 
L 493.433837 495.683591 
L 498.532055 501.174051 
L 503.630274 506.013471 
L 508.728492 510.204021 
L 513.82671 513.754152 
L 518.924929 516.6773 
L 524.023147 518.990668 
L 529.121365 520.71411 
L 534.219584 521.86915 
L 539.317802 522.478163 
L 544.41602 522.563729 
L 549.514239 522.148156 
L 554.612457 521.253183 
L 559.710676 519.89985 
L 564.808894 518.108513 
L 569.907112 515.898996 
L 575.005331 513.290852 
L 580.103549 510.303703 
L 585.201767 506.957639 
L 590.299986 503.273646 
L 595.398204 499.274024 
L 600.496422 494.982783 
L 605.594641 490.425979 
L 610.692859 485.631974 
L 615.791078 480.631598 
L 625.987514 470.14756 
L 641.282169 453.782043 
L 651.478606 442.926109 
L 661.675043 432.511109 
L 666.773261 427.572207 
L 671.87148 422.863798 
L 676.969698 418.421128 
L 682.067916 414.276168 
L 687.166135 410.457224 
L 692.264353 406.988656 
L 697.362571 403.890712 
L 702.46079 401.17949 
L 707.559008 398.867006 
L 712.657226 396.961368 
L 717.755445 395.467029 
L 722.853663 394.385109 
L 727.951882 393.713745 
L 733.0501 393.448469 
L 738.148318 393.582573 
L 743.246537 394.10744 
L 748.344755 395.012844 
L 753.442973 396.287186 
L 758.541192 397.917675 
L 763.63941 399.890444 
L 768.737628 402.190612 
L 773.835847 404.802306 
L 778.934065 407.708641 
L 784.032284 410.891687 
L 789.130502 414.332436 
L 794.22872 418.010777 
L 799.326939 421.905505 
L 804.425157 425.994362 
L 809.523375 430.254123 
L 819.719812 439.189505 
L 829.916249 448.512833 
L 860.505559 476.838825 
L 870.701996 485.808815 
L 880.898433 494.305793 
L 885.996651 498.34486 
L 891.094869 502.230991 
L 896.193088 505.956471 
L 901.291306 509.515302 
L 906.389524 512.903101 
L 911.487743 516.116981 
L 916.585961 519.155436 
L 921.684179 522.018211 
L 926.782398 524.706191 
L 931.880616 527.221283 
L 936.978835 529.566313 
L 942.077053 531.744926 
L 947.175271 533.761496 
L 952.27349 535.621044 
L 957.371708 537.329155 
L 962.469926 538.89191 
L 967.568145 540.315806 
L 972.666363 541.607691 
L 977.764581 542.774692 
L 987.961018 544.763531 
L 998.157455 546.342278 
L 1008.353892 547.57093 
L 1018.550328 548.507458 
L 1028.746765 549.205987 
L 1038.943202 549.715375 
L 1054.237857 550.216278 
L 1074.63073 550.564529 
L 1100.121822 550.734032 
L 1115.416477 550.771513 
L 1115.416477 550.771513 
" style="fill:none;stroke:#ff0000;stroke-linecap:square;stroke-width:1.5;"/>
   </g>
   <g id="patch_103">
    <path d="M 50.14375 550.8 
L 50.14375 7.2 
" style="fill:none;stroke:#000000;stroke-linecap:square;stroke-linejoin:miter;stroke-width:0.8;"/>
   </g>
   <g id="patch_104">
    <path d="M 1166.14375 550.8 
L 1166.14375 7.2 
" style="fill:none;stroke:#000000;stroke-linecap:square;stroke-linejoin:miter;stroke-width:0.8;"/>
   </g>
   <g id="patch_105">
    <path d="M 50.14375 550.8 
L 1166.14375 550.8 
" style="fill:none;stroke:#000000;stroke-linecap:square;stroke-linejoin:miter;stroke-width:0.8;"/>
   </g>
   <g id="patch_106">
    <path d="M 50.14375 7.2 
L 1166.14375 7.2 
" style="fill:none;stroke:#000000;stroke-linecap:square;stroke-linejoin:miter;stroke-width:0.8;"/>
   </g>
  </g>
 </g>
 <defs>
  <clipPath id="pec64d2d51e">
   <rect height="543.6" width="1116" x="50.14375" y="7.2"/>
  </clipPath>
 </defs>
</svg>
