<?xml version="1.0" encoding="utf-8" standalone="no"?>
<!DOCTYPE svg PUBLIC "-//W3C//DTD SVG 1.1//EN"
  "http://www.w3.org/Graphics/SVG/1.1/DTD/svg11.dtd">
<!-- Created with matplotlib (https://matplotlib.org/) -->
<svg height="615.8291pt" version="1.1" viewBox="0 0 1172.182813 615.8291" width="1172.182813pt" xmlns="http://www.w3.org/2000/svg" xmlns:xlink="http://www.w3.org/1999/xlink">
 <metadata>
  <rdf:RDF xmlns:cc="http://creativecommons.org/ns#" xmlns:dc="http://purl.org/dc/elements/1.1/" xmlns:rdf="http://www.w3.org/1999/02/22-rdf-syntax-ns#">
   <cc:Work>
    <dc:type rdf:resource="http://purl.org/dc/dcmitype/StillImage"/>
    <dc:date>2021-10-21T20:33:49.271773</dc:date>
    <dc:format>image/svg+xml</dc:format>
    <dc:creator>
     <cc:Agent>
      <dc:title>Matplotlib v3.3.4, https://matplotlib.org/</dc:title>
     </cc:Agent>
    </dc:creator>
   </cc:Work>
  </rdf:RDF>
 </metadata>
 <defs>
  <style type="text/css">*{stroke-linecap:butt;stroke-linejoin:round;}</style>
 </defs>
 <g id="figure_1">
  <g id="patch_1">
   <path d="M 0 615.8291 
L 1172.182813 615.8291 
L 1172.182813 0 
L 0 0 
z
" style="fill:none;"/>
  </g>
  <g id="axes_1">
   <g id="patch_2">
    <path d="M 48.982813 565.918125 
L 1164.982812 565.918125 
L 1164.982812 22.318125 
L 48.982813 22.318125 
z
" style="fill:#ffffff;"/>
   </g>
   <g id="matplotlib.axis_1">
    <g id="xtick_1">
     <g id="line2d_1">
      <defs>
       <path d="M 0 0 
L 0 3.5 
" id="m1db8424b70" style="stroke:#000000;stroke-width:0.8;"/>
      </defs>
      <g>
       <use style="stroke:#000000;stroke-width:0.8;" x="99.710085" xlink:href="#m1db8424b70" y="565.918125"/>
      </g>
     </g>
     <g id="text_1">
      <!-- one -->
      <g transform="translate(102.008645 588.419734)rotate(-90)scale(0.0833 -0.0833)">
       <defs>
        <path d="M 30.609375 48.390625 
Q 23.390625 48.390625 19.1875 42.75 
Q 14.984375 37.109375 14.984375 27.296875 
Q 14.984375 17.484375 19.15625 11.84375 
Q 23.34375 6.203125 30.609375 6.203125 
Q 37.796875 6.203125 41.984375 11.859375 
Q 46.1875 17.53125 46.1875 27.296875 
Q 46.1875 37.015625 41.984375 42.703125 
Q 37.796875 48.390625 30.609375 48.390625 
z
M 30.609375 56 
Q 42.328125 56 49.015625 48.375 
Q 55.71875 40.765625 55.71875 27.296875 
Q 55.71875 13.875 49.015625 6.21875 
Q 42.328125 -1.421875 30.609375 -1.421875 
Q 18.84375 -1.421875 12.171875 6.21875 
Q 5.515625 13.875 5.515625 27.296875 
Q 5.515625 40.765625 12.171875 48.375 
Q 18.84375 56 30.609375 56 
z
" id="DejaVuSans-111"/>
        <path d="M 54.890625 33.015625 
L 54.890625 0 
L 45.90625 0 
L 45.90625 32.71875 
Q 45.90625 40.484375 42.875 44.328125 
Q 39.84375 48.1875 33.796875 48.1875 
Q 26.515625 48.1875 22.3125 43.546875 
Q 18.109375 38.921875 18.109375 30.90625 
L 18.109375 0 
L 9.078125 0 
L 9.078125 54.6875 
L 18.109375 54.6875 
L 18.109375 46.1875 
Q 21.34375 51.125 25.703125 53.5625 
Q 30.078125 56 35.796875 56 
Q 45.21875 56 50.046875 50.171875 
Q 54.890625 44.34375 54.890625 33.015625 
z
" id="DejaVuSans-110"/>
        <path d="M 56.203125 29.59375 
L 56.203125 25.203125 
L 14.890625 25.203125 
Q 15.484375 15.921875 20.484375 11.0625 
Q 25.484375 6.203125 34.421875 6.203125 
Q 39.59375 6.203125 44.453125 7.46875 
Q 49.3125 8.734375 54.109375 11.28125 
L 54.109375 2.78125 
Q 49.265625 0.734375 44.1875 -0.34375 
Q 39.109375 -1.421875 33.890625 -1.421875 
Q 20.796875 -1.421875 13.15625 6.1875 
Q 5.515625 13.8125 5.515625 26.8125 
Q 5.515625 40.234375 12.765625 48.109375 
Q 20.015625 56 32.328125 56 
Q 43.359375 56 49.78125 48.890625 
Q 56.203125 41.796875 56.203125 29.59375 
z
M 47.21875 32.234375 
Q 47.125 39.59375 43.09375 43.984375 
Q 39.0625 48.390625 32.421875 48.390625 
Q 24.90625 48.390625 20.390625 44.140625 
Q 15.875 39.890625 15.1875 32.171875 
z
" id="DejaVuSans-101"/>
       </defs>
       <use xlink:href="#DejaVuSans-111"/>
       <use x="61.181641" xlink:href="#DejaVuSans-110"/>
       <use x="124.560547" xlink:href="#DejaVuSans-101"/>
      </g>
     </g>
    </g>
    <g id="xtick_2">
     <g id="line2d_2">
      <g>
       <use style="stroke:#000000;stroke-width:0.8;" x="353.600339" xlink:href="#m1db8424b70" y="565.918125"/>
      </g>
     </g>
     <g id="text_2">
      <!-- two -->
      <g transform="translate(355.898898 588.093042)rotate(-90)scale(0.0833 -0.0833)">
       <defs>
        <path d="M 18.3125 70.21875 
L 18.3125 54.6875 
L 36.8125 54.6875 
L 36.8125 47.703125 
L 18.3125 47.703125 
L 18.3125 18.015625 
Q 18.3125 11.328125 20.140625 9.421875 
Q 21.96875 7.515625 27.59375 7.515625 
L 36.8125 7.515625 
L 36.8125 0 
L 27.59375 0 
Q 17.1875 0 13.234375 3.875 
Q 9.28125 7.765625 9.28125 18.015625 
L 9.28125 47.703125 
L 2.6875 47.703125 
L 2.6875 54.6875 
L 9.28125 54.6875 
L 9.28125 70.21875 
z
" id="DejaVuSans-116"/>
        <path d="M 4.203125 54.6875 
L 13.1875 54.6875 
L 24.421875 12.015625 
L 35.59375 54.6875 
L 46.1875 54.6875 
L 57.421875 12.015625 
L 68.609375 54.6875 
L 77.59375 54.6875 
L 63.28125 0 
L 52.6875 0 
L 40.921875 44.828125 
L 29.109375 0 
L 18.5 0 
z
" id="DejaVuSans-119"/>
       </defs>
       <use xlink:href="#DejaVuSans-116"/>
       <use x="39.208984" xlink:href="#DejaVuSans-119"/>
       <use x="120.996094" xlink:href="#DejaVuSans-111"/>
      </g>
     </g>
    </g>
    <g id="xtick_3">
     <g id="line2d_3">
      <g>
       <use style="stroke:#000000;stroke-width:0.8;" x="607.490593" xlink:href="#m1db8424b70" y="565.918125"/>
      </g>
     </g>
     <g id="text_3">
      <!-- three -->
      <g transform="translate(609.789152 594.950975)rotate(-90)scale(0.0833 -0.0833)">
       <defs>
        <path d="M 54.890625 33.015625 
L 54.890625 0 
L 45.90625 0 
L 45.90625 32.71875 
Q 45.90625 40.484375 42.875 44.328125 
Q 39.84375 48.1875 33.796875 48.1875 
Q 26.515625 48.1875 22.3125 43.546875 
Q 18.109375 38.921875 18.109375 30.90625 
L 18.109375 0 
L 9.078125 0 
L 9.078125 75.984375 
L 18.109375 75.984375 
L 18.109375 46.1875 
Q 21.34375 51.125 25.703125 53.5625 
Q 30.078125 56 35.796875 56 
Q 45.21875 56 50.046875 50.171875 
Q 54.890625 44.34375 54.890625 33.015625 
z
" id="DejaVuSans-104"/>
        <path d="M 41.109375 46.296875 
Q 39.59375 47.171875 37.8125 47.578125 
Q 36.03125 48 33.890625 48 
Q 26.265625 48 22.1875 43.046875 
Q 18.109375 38.09375 18.109375 28.8125 
L 18.109375 0 
L 9.078125 0 
L 9.078125 54.6875 
L 18.109375 54.6875 
L 18.109375 46.1875 
Q 20.953125 51.171875 25.484375 53.578125 
Q 30.03125 56 36.53125 56 
Q 37.453125 56 38.578125 55.875 
Q 39.703125 55.765625 41.0625 55.515625 
z
" id="DejaVuSans-114"/>
       </defs>
       <use xlink:href="#DejaVuSans-116"/>
       <use x="39.208984" xlink:href="#DejaVuSans-104"/>
       <use x="102.587891" xlink:href="#DejaVuSans-114"/>
       <use x="141.451172" xlink:href="#DejaVuSans-101"/>
       <use x="202.974609" xlink:href="#DejaVuSans-101"/>
      </g>
     </g>
    </g>
    <g id="xtick_4">
     <g id="line2d_4">
      <g>
       <use style="stroke:#000000;stroke-width:0.8;" x="861.380847" xlink:href="#m1db8424b70" y="565.918125"/>
      </g>
     </g>
     <g id="text_4">
      <!-- four -->
      <g transform="translate(863.679406 589.651012)rotate(-90)scale(0.0833 -0.0833)">
       <defs>
        <path d="M 37.109375 75.984375 
L 37.109375 68.5 
L 28.515625 68.5 
Q 23.6875 68.5 21.796875 66.546875 
Q 19.921875 64.59375 19.921875 59.515625 
L 19.921875 54.6875 
L 34.71875 54.6875 
L 34.71875 47.703125 
L 19.921875 47.703125 
L 19.921875 0 
L 10.890625 0 
L 10.890625 47.703125 
L 2.296875 47.703125 
L 2.296875 54.6875 
L 10.890625 54.6875 
L 10.890625 58.5 
Q 10.890625 67.625 15.140625 71.796875 
Q 19.390625 75.984375 28.609375 75.984375 
z
" id="DejaVuSans-102"/>
        <path d="M 8.5 21.578125 
L 8.5 54.6875 
L 17.484375 54.6875 
L 17.484375 21.921875 
Q 17.484375 14.15625 20.5 10.265625 
Q 23.53125 6.390625 29.59375 6.390625 
Q 36.859375 6.390625 41.078125 11.03125 
Q 45.3125 15.671875 45.3125 23.6875 
L 45.3125 54.6875 
L 54.296875 54.6875 
L 54.296875 0 
L 45.3125 0 
L 45.3125 8.40625 
Q 42.046875 3.421875 37.71875 1 
Q 33.40625 -1.421875 27.6875 -1.421875 
Q 18.265625 -1.421875 13.375 4.4375 
Q 8.5 10.296875 8.5 21.578125 
z
M 31.109375 56 
z
" id="DejaVuSans-117"/>
       </defs>
       <use xlink:href="#DejaVuSans-102"/>
       <use x="35.205078" xlink:href="#DejaVuSans-111"/>
       <use x="96.386719" xlink:href="#DejaVuSans-117"/>
       <use x="159.765625" xlink:href="#DejaVuSans-114"/>
      </g>
     </g>
    </g>
    <g id="xtick_5">
     <g id="line2d_5">
      <g>
       <use style="stroke:#000000;stroke-width:0.8;" x="1115.271101" xlink:href="#m1db8424b70" y="565.918125"/>
      </g>
     </g>
     <g id="text_5">
      <!-- five -->
      <g transform="translate(1117.56966 588.220595)rotate(-90)scale(0.0833 -0.0833)">
       <defs>
        <path d="M 9.421875 54.6875 
L 18.40625 54.6875 
L 18.40625 0 
L 9.421875 0 
z
M 9.421875 75.984375 
L 18.40625 75.984375 
L 18.40625 64.59375 
L 9.421875 64.59375 
z
" id="DejaVuSans-105"/>
        <path d="M 2.984375 54.6875 
L 12.5 54.6875 
L 29.59375 8.796875 
L 46.6875 54.6875 
L 56.203125 54.6875 
L 35.6875 0 
L 23.484375 0 
z
" id="DejaVuSans-118"/>
       </defs>
       <use xlink:href="#DejaVuSans-102"/>
       <use x="35.205078" xlink:href="#DejaVuSans-105"/>
       <use x="62.988281" xlink:href="#DejaVuSans-118"/>
       <use x="122.167969" xlink:href="#DejaVuSans-101"/>
      </g>
     </g>
    </g>
    <g id="text_6">
     <!-- Kroki -->
     <g transform="translate(594.417188 606.549412)scale(0.1 -0.1)">
      <defs>
       <path d="M 9.8125 72.90625 
L 19.671875 72.90625 
L 19.671875 42.09375 
L 52.390625 72.90625 
L 65.09375 72.90625 
L 28.90625 38.921875 
L 67.671875 0 
L 54.6875 0 
L 19.671875 35.109375 
L 19.671875 0 
L 9.8125 0 
z
" id="DejaVuSans-75"/>
       <path d="M 9.078125 75.984375 
L 18.109375 75.984375 
L 18.109375 31.109375 
L 44.921875 54.6875 
L 56.390625 54.6875 
L 27.390625 29.109375 
L 57.625 0 
L 45.90625 0 
L 18.109375 26.703125 
L 18.109375 0 
L 9.078125 0 
z
" id="DejaVuSans-107"/>
      </defs>
      <use xlink:href="#DejaVuSans-75"/>
      <use x="65.576172" xlink:href="#DejaVuSans-114"/>
      <use x="104.439453" xlink:href="#DejaVuSans-111"/>
      <use x="165.621094" xlink:href="#DejaVuSans-107"/>
      <use x="223.53125" xlink:href="#DejaVuSans-105"/>
     </g>
    </g>
   </g>
   <g id="matplotlib.axis_2">
    <g id="ytick_1">
     <g id="line2d_6">
      <defs>
       <path d="M 0 0 
L -3.5 0 
" id="me90e3230a5" style="stroke:#000000;stroke-width:0.8;"/>
      </defs>
      <g>
       <use style="stroke:#000000;stroke-width:0.8;" x="48.982813" xlink:href="#me90e3230a5" y="565.918125"/>
      </g>
     </g>
     <g id="text_7">
      <!-- −50 -->
      <g transform="translate(20.878125 569.717344)scale(0.1 -0.1)">
       <defs>
        <path d="M 10.59375 35.5 
L 73.1875 35.5 
L 73.1875 27.203125 
L 10.59375 27.203125 
z
" id="DejaVuSans-8722"/>
        <path d="M 10.796875 72.90625 
L 49.515625 72.90625 
L 49.515625 64.59375 
L 19.828125 64.59375 
L 19.828125 46.734375 
Q 21.96875 47.46875 24.109375 47.828125 
Q 26.265625 48.1875 28.421875 48.1875 
Q 40.625 48.1875 47.75 41.5 
Q 54.890625 34.8125 54.890625 23.390625 
Q 54.890625 11.625 47.5625 5.09375 
Q 40.234375 -1.421875 26.90625 -1.421875 
Q 22.3125 -1.421875 17.546875 -0.640625 
Q 12.796875 0.140625 7.71875 1.703125 
L 7.71875 11.625 
Q 12.109375 9.234375 16.796875 8.0625 
Q 21.484375 6.890625 26.703125 6.890625 
Q 35.15625 6.890625 40.078125 11.328125 
Q 45.015625 15.765625 45.015625 23.390625 
Q 45.015625 31 40.078125 35.4375 
Q 35.15625 39.890625 26.703125 39.890625 
Q 22.75 39.890625 18.8125 39.015625 
Q 14.890625 38.140625 10.796875 36.28125 
z
" id="DejaVuSans-53"/>
        <path d="M 31.78125 66.40625 
Q 24.171875 66.40625 20.328125 58.90625 
Q 16.5 51.421875 16.5 36.375 
Q 16.5 21.390625 20.328125 13.890625 
Q 24.171875 6.390625 31.78125 6.390625 
Q 39.453125 6.390625 43.28125 13.890625 
Q 47.125 21.390625 47.125 36.375 
Q 47.125 51.421875 43.28125 58.90625 
Q 39.453125 66.40625 31.78125 66.40625 
z
M 31.78125 74.21875 
Q 44.046875 74.21875 50.515625 64.515625 
Q 56.984375 54.828125 56.984375 36.375 
Q 56.984375 17.96875 50.515625 8.265625 
Q 44.046875 -1.421875 31.78125 -1.421875 
Q 19.53125 -1.421875 13.0625 8.265625 
Q 6.59375 17.96875 6.59375 36.375 
Q 6.59375 54.828125 13.0625 64.515625 
Q 19.53125 74.21875 31.78125 74.21875 
z
" id="DejaVuSans-48"/>
       </defs>
       <use xlink:href="#DejaVuSans-8722"/>
       <use x="83.789062" xlink:href="#DejaVuSans-53"/>
       <use x="147.412109" xlink:href="#DejaVuSans-48"/>
      </g>
     </g>
    </g>
    <g id="ytick_2">
     <g id="line2d_7">
      <g>
       <use style="stroke:#000000;stroke-width:0.8;" x="48.982813" xlink:href="#me90e3230a5" y="430.018125"/>
      </g>
     </g>
     <g id="text_8">
      <!-- −25 -->
      <g transform="translate(20.878125 433.817344)scale(0.1 -0.1)">
       <defs>
        <path d="M 19.1875 8.296875 
L 53.609375 8.296875 
L 53.609375 0 
L 7.328125 0 
L 7.328125 8.296875 
Q 12.9375 14.109375 22.625 23.890625 
Q 32.328125 33.6875 34.8125 36.53125 
Q 39.546875 41.84375 41.421875 45.53125 
Q 43.3125 49.21875 43.3125 52.78125 
Q 43.3125 58.59375 39.234375 62.25 
Q 35.15625 65.921875 28.609375 65.921875 
Q 23.96875 65.921875 18.8125 64.3125 
Q 13.671875 62.703125 7.8125 59.421875 
L 7.8125 69.390625 
Q 13.765625 71.78125 18.9375 73 
Q 24.125 74.21875 28.421875 74.21875 
Q 39.75 74.21875 46.484375 68.546875 
Q 53.21875 62.890625 53.21875 53.421875 
Q 53.21875 48.921875 51.53125 44.890625 
Q 49.859375 40.875 45.40625 35.40625 
Q 44.1875 33.984375 37.640625 27.21875 
Q 31.109375 20.453125 19.1875 8.296875 
z
" id="DejaVuSans-50"/>
       </defs>
       <use xlink:href="#DejaVuSans-8722"/>
       <use x="83.789062" xlink:href="#DejaVuSans-50"/>
       <use x="147.412109" xlink:href="#DejaVuSans-53"/>
      </g>
     </g>
    </g>
    <g id="ytick_3">
     <g id="line2d_8">
      <g>
       <use style="stroke:#000000;stroke-width:0.8;" x="48.982813" xlink:href="#me90e3230a5" y="294.118125"/>
      </g>
     </g>
     <g id="text_9">
      <!-- 0 -->
      <g transform="translate(35.620313 297.917344)scale(0.1 -0.1)">
       <use xlink:href="#DejaVuSans-48"/>
      </g>
     </g>
    </g>
    <g id="ytick_4">
     <g id="line2d_9">
      <g>
       <use style="stroke:#000000;stroke-width:0.8;" x="48.982813" xlink:href="#me90e3230a5" y="158.218125"/>
      </g>
     </g>
     <g id="text_10">
      <!-- 25 -->
      <g transform="translate(29.257813 162.017344)scale(0.1 -0.1)">
       <use xlink:href="#DejaVuSans-50"/>
       <use x="63.623047" xlink:href="#DejaVuSans-53"/>
      </g>
     </g>
    </g>
    <g id="ytick_5">
     <g id="line2d_10">
      <g>
       <use style="stroke:#000000;stroke-width:0.8;" x="48.982813" xlink:href="#me90e3230a5" y="22.318125"/>
      </g>
     </g>
     <g id="text_11">
      <!-- 50 -->
      <g transform="translate(29.257813 26.117344)scale(0.1 -0.1)">
       <use xlink:href="#DejaVuSans-53"/>
       <use x="63.623047" xlink:href="#DejaVuSans-48"/>
      </g>
     </g>
    </g>
    <g id="text_12">
     <!-- Wartości -->
     <g transform="translate(14.798438 315.625156)rotate(-90)scale(0.1 -0.1)">
      <defs>
       <path d="M 3.328125 72.90625 
L 13.28125 72.90625 
L 28.609375 11.28125 
L 43.890625 72.90625 
L 54.984375 72.90625 
L 70.3125 11.28125 
L 85.59375 72.90625 
L 95.609375 72.90625 
L 77.296875 0 
L 64.890625 0 
L 49.515625 63.28125 
L 33.984375 0 
L 21.578125 0 
z
" id="DejaVuSans-87"/>
       <path d="M 34.28125 27.484375 
Q 23.390625 27.484375 19.1875 25 
Q 14.984375 22.515625 14.984375 16.5 
Q 14.984375 11.71875 18.140625 8.90625 
Q 21.296875 6.109375 26.703125 6.109375 
Q 34.1875 6.109375 38.703125 11.40625 
Q 43.21875 16.703125 43.21875 25.484375 
L 43.21875 27.484375 
z
M 52.203125 31.203125 
L 52.203125 0 
L 43.21875 0 
L 43.21875 8.296875 
Q 40.140625 3.328125 35.546875 0.953125 
Q 30.953125 -1.421875 24.3125 -1.421875 
Q 15.921875 -1.421875 10.953125 3.296875 
Q 6 8.015625 6 15.921875 
Q 6 25.140625 12.171875 29.828125 
Q 18.359375 34.515625 30.609375 34.515625 
L 43.21875 34.515625 
L 43.21875 35.40625 
Q 43.21875 41.609375 39.140625 45 
Q 35.0625 48.390625 27.6875 48.390625 
Q 23 48.390625 18.546875 47.265625 
Q 14.109375 46.140625 10.015625 43.890625 
L 10.015625 52.203125 
Q 14.9375 54.109375 19.578125 55.046875 
Q 24.21875 56 28.609375 56 
Q 40.484375 56 46.34375 49.84375 
Q 52.203125 43.703125 52.203125 31.203125 
z
" id="DejaVuSans-97"/>
       <path d="M 35.015625 80.328125 
L 44.734375 80.328125 
L 28.8125 61.96875 
L 21.34375 61.96875 
z
M 44.28125 53.078125 
L 44.28125 44.578125 
Q 40.484375 46.53125 36.375 47.5 
Q 32.28125 48.484375 27.875 48.484375 
Q 21.1875 48.484375 17.84375 46.4375 
Q 14.5 44.390625 14.5 40.28125 
Q 14.5 37.15625 16.890625 35.375 
Q 19.28125 33.59375 26.515625 31.984375 
L 29.59375 31.296875 
Q 39.15625 29.25 43.1875 25.515625 
Q 47.21875 21.78125 47.21875 15.09375 
Q 47.21875 7.46875 41.1875 3.015625 
Q 35.15625 -1.421875 24.609375 -1.421875 
Q 20.21875 -1.421875 15.453125 -0.5625 
Q 10.6875 0.296875 5.421875 2 
L 5.421875 11.28125 
Q 10.40625 8.6875 15.234375 7.390625 
Q 20.0625 6.109375 24.8125 6.109375 
Q 31.15625 6.109375 34.5625 8.28125 
Q 37.984375 10.453125 37.984375 14.40625 
Q 37.984375 18.0625 35.515625 20.015625 
Q 33.0625 21.96875 24.703125 23.78125 
L 21.578125 24.515625 
Q 13.234375 26.265625 9.515625 29.90625 
Q 5.8125 33.546875 5.8125 39.890625 
Q 5.8125 47.609375 11.28125 51.796875 
Q 16.75 56 26.8125 56 
Q 31.78125 56 36.171875 55.265625 
Q 40.578125 54.546875 44.28125 53.078125 
z
" id="DejaVuSans-347"/>
       <path d="M 48.78125 52.59375 
L 48.78125 44.1875 
Q 44.96875 46.296875 41.140625 47.34375 
Q 37.3125 48.390625 33.40625 48.390625 
Q 24.65625 48.390625 19.8125 42.84375 
Q 14.984375 37.3125 14.984375 27.296875 
Q 14.984375 17.28125 19.8125 11.734375 
Q 24.65625 6.203125 33.40625 6.203125 
Q 37.3125 6.203125 41.140625 7.25 
Q 44.96875 8.296875 48.78125 10.40625 
L 48.78125 2.09375 
Q 45.015625 0.34375 40.984375 -0.53125 
Q 36.96875 -1.421875 32.421875 -1.421875 
Q 20.0625 -1.421875 12.78125 6.34375 
Q 5.515625 14.109375 5.515625 27.296875 
Q 5.515625 40.671875 12.859375 48.328125 
Q 20.21875 56 33.015625 56 
Q 37.15625 56 41.109375 55.140625 
Q 45.0625 54.296875 48.78125 52.59375 
z
" id="DejaVuSans-99"/>
      </defs>
      <use xlink:href="#DejaVuSans-87"/>
      <use x="92.501953" xlink:href="#DejaVuSans-97"/>
      <use x="153.78125" xlink:href="#DejaVuSans-114"/>
      <use x="194.894531" xlink:href="#DejaVuSans-116"/>
      <use x="234.103516" xlink:href="#DejaVuSans-111"/>
      <use x="295.285156" xlink:href="#DejaVuSans-347"/>
      <use x="347.384766" xlink:href="#DejaVuSans-99"/>
      <use x="402.365234" xlink:href="#DejaVuSans-105"/>
     </g>
    </g>
   </g>
   <g id="line2d_11">
    <path clip-path="url(#p370e329488)" d="M 99.710085 274.660551 
L 100.725646 274.358144 
L 101.741207 270.285346 
L 102.756768 273.622176 
L 103.772329 284.289512 
L 104.78789 287.245471 
L 105.803451 292.433988 
L 106.819012 289.425642 
L 107.834573 285.53512 
L 108.850134 286.621696 
L 109.865695 293.955714 
L 110.881256 293.917355 
L 111.896817 286.788366 
L 112.912378 292.513193 
L 113.927939 281.909552 
L 114.9435 276.028642 
L 115.959061 275.864143 
L 116.974622 280.005088 
L 117.990184 271.984016 
L 119.005745 275.218235 
L 120.021306 266.696711 
L 121.036867 265.069699 
L 122.052428 256.732616 
L 123.067989 261.670879 
L 124.08355 271.985364 
L 125.099111 270.092191 
L 126.114672 261.382677 
L 127.130233 263.29136 
L 129.161355 262.029266 
L 130.176916 269.189617 
L 131.192477 262.487722 
L 132.208038 265.358998 
L 133.223599 262.935886 
L 134.23916 275.5849 
L 135.254721 278.791538 
L 136.270282 284.496062 
L 138.301404 273.485759 
L 139.316965 273.569174 
L 141.348087 268.395265 
L 142.363648 273.743586 
L 143.379209 280.145363 
L 144.39477 269.417796 
L 145.410331 274.642362 
L 146.425892 272.108753 
L 147.441453 273.339043 
L 148.457014 267.674571 
L 149.472575 263.086783 
L 150.488136 259.669777 
L 151.503697 257.158917 
L 152.519258 252.124121 
L 153.534819 245.478711 
L 154.55038 246.395879 
L 155.565941 246.109636 
L 156.581502 253.905468 
L 157.597063 253.328607 
L 158.612624 246.829294 
L 159.628185 247.783339 
L 160.643746 239.387143 
L 161.659307 225.988811 
L 162.674868 218.200417 
L 163.690429 207.000557 
L 164.70599 212.752229 
L 166.737112 215.951606 
L 167.752673 214.038702 
L 168.768234 216.117349 
L 169.783795 214.628484 
L 170.799356 213.481279 
L 171.814917 208.013964 
L 172.830478 204.85614 
L 174.8616 201.787056 
L 175.877161 206.000661 
L 176.892722 200.063101 
L 177.908283 195.451285 
L 178.923844 195.871818 
L 179.939405 198.293921 
L 180.954966 204.255575 
L 181.970527 206.570644 
L 182.986089 201.935491 
L 184.00165 196.355624 
L 185.017211 195.381464 
L 186.032772 194.60166 
L 187.048333 200.04574 
L 188.063894 202.410173 
L 190.095016 205.655287 
L 191.110577 205.287118 
L 192.126138 202.040769 
L 193.141699 207.956957 
L 195.172821 201.967754 
L 196.188382 199.880608 
L 197.203943 194.913044 
L 198.219504 201.541456 
L 199.235065 201.562084 
L 200.250626 200.492318 
L 201.266187 193.872646 
L 202.281748 193.725035 
L 203.297309 196.29735 
L 204.31287 193.684351 
L 205.328431 188.876972 
L 206.343992 192.241861 
L 207.359553 185.184713 
L 208.375114 190.289071 
L 209.390675 189.926011 
L 210.406236 189.035133 
L 211.421797 186.43329 
L 212.437358 187.291507 
L 213.452919 179.583679 
L 214.46848 179.979393 
L 216.499602 193.257421 
L 217.515163 191.774413 
L 218.530724 182.979645 
L 219.546285 188.140877 
L 220.561846 182.530938 
L 221.577407 182.462033 
L 222.592968 193.440634 
L 223.608529 195.176043 
L 224.62409 193.196023 
L 225.639651 188.579015 
L 226.655212 193.706134 
L 227.670773 197.156789 
L 228.686334 203.542599 
L 229.701895 206.659441 
L 230.717456 218.345527 
L 231.733017 218.804928 
L 232.748578 214.921219 
L 233.764139 209.120334 
L 234.7797 206.683104 
L 235.795261 198.81838 
L 236.810822 195.350539 
L 237.826383 190.323073 
L 238.841944 183.785116 
L 239.857505 189.789984 
L 240.873066 183.798924 
L 241.888627 184.251962 
L 242.904188 186.850442 
L 243.919749 183.402567 
L 244.93531 180.826756 
L 245.950871 177.50495 
L 246.966432 171.203308 
L 247.981993 173.455595 
L 248.997555 180.947765 
L 250.013116 189.496354 
L 251.028677 180.380208 
L 252.044238 180.31083 
L 253.059799 175.174934 
L 254.07536 176.355399 
L 255.090921 174.192948 
L 256.106482 172.499405 
L 257.122043 174.43247 
L 258.137604 175.062095 
L 259.153165 163.157553 
L 260.168726 165.446642 
L 261.184287 160.793989 
L 262.199848 160.937396 
L 263.215409 164.378142 
L 264.23097 170.998718 
L 266.262092 170.896094 
L 267.277653 177.647207 
L 268.293214 176.258111 
L 269.308775 181.415822 
L 270.324336 181.227854 
L 271.339897 180.585611 
L 272.355458 179.282121 
L 273.371019 178.778389 
L 274.38658 185.407708 
L 275.402141 183.718095 
L 276.417702 188.193034 
L 277.433263 194.216678 
L 278.448824 191.245638 
L 279.464385 191.650972 
L 280.479946 188.88666 
L 282.511068 207.448704 
L 283.526629 206.550061 
L 284.54219 204.523457 
L 285.557751 204.357164 
L 286.573312 207.295004 
L 287.588873 199.397286 
L 288.604434 202.766964 
L 289.619995 205.491243 
L 290.635556 199.908045 
L 291.651117 198.860986 
L 292.666678 195.417466 
L 293.682239 198.175311 
L 294.6978 197.265415 
L 295.713361 202.308455 
L 296.728922 203.432227 
L 297.744483 206.766706 
L 298.760044 207.884972 
L 299.775605 198.807741 
L 300.791166 202.289213 
L 301.806727 201.512986 
L 302.822288 194.041194 
L 303.837849 191.936862 
L 304.85341 204.099698 
L 305.868971 207.958156 
L 307.900093 212.085692 
L 308.915654 206.324446 
L 309.931215 216.12657 
L 310.946776 212.374906 
L 311.962337 214.144524 
L 312.977898 216.830844 
L 313.99346 218.993377 
L 315.009021 219.226255 
L 316.024582 212.623467 
L 317.040143 207.105784 
L 318.055704 204.693679 
L 319.071265 199.347275 
L 320.086826 200.484119 
L 321.102387 199.295814 
L 322.117948 204.488881 
L 323.133509 202.663071 
L 325.164631 207.68226 
L 326.180192 208.17992 
L 327.195753 218.308527 
L 328.211314 222.503607 
L 329.226875 222.294221 
L 330.242436 218.258664 
L 331.257997 208.259384 
L 332.273558 217.309312 
L 333.289119 221.345321 
L 334.30468 218.494797 
L 335.320241 215.073593 
L 336.335802 212.649907 
L 337.351363 214.735357 
L 338.366924 217.783897 
L 339.382485 215.398747 
L 340.398046 216.839174 
L 341.413607 211.441743 
L 342.429168 211.364485 
L 343.444729 212.771732 
L 344.46029 213.33717 
L 345.475851 213.430397 
L 346.491412 215.324738 
L 347.506973 219.109971 
L 348.522534 221.823938 
L 349.538095 221.046296 
L 350.553656 214.879604 
L 351.569217 210.58211 
L 352.584778 213.519423 
L 353.600339 222.000363 
L 354.6159 217.644812 
L 355.631461 225.309264 
L 356.647022 220.636145 
L 357.662583 219.818097 
L 358.678144 217.155264 
L 359.693705 222.523504 
L 360.709266 237.871976 
L 361.724827 244.940215 
L 362.740388 233.62537 
L 363.755949 231.742847 
L 364.77151 234.106005 
L 365.787071 237.408381 
L 366.802632 239.066451 
L 367.818193 244.414795 
L 368.833754 241.889836 
L 369.849315 247.439862 
L 370.864876 248.994683 
L 371.880437 246.903326 
L 372.895998 238.075053 
L 373.911559 243.56461 
L 374.92712 244.905316 
L 375.942681 239.530738 
L 376.958242 238.316993 
L 377.973803 247.367921 
L 378.989365 240.374546 
L 380.004926 242.255171 
L 381.020487 249.803145 
L 383.051609 267.369229 
L 384.06717 268.331715 
L 385.082731 259.753011 
L 386.098292 266.216714 
L 387.113853 269.231226 
L 388.129414 269.812875 
L 389.144975 269.845514 
L 390.160536 263.837598 
L 391.176097 264.476172 
L 392.191658 282.506648 
L 393.207219 272.363631 
L 394.22278 264.151577 
L 395.238341 248.242555 
L 396.253902 251.912598 
L 397.269463 245.298725 
L 398.285024 243.199936 
L 399.300585 246.771603 
L 400.316146 238.033282 
L 401.331707 241.556456 
L 402.347268 241.921907 
L 403.362829 235.51835 
L 404.37839 234.608961 
L 405.393951 232.239489 
L 406.409512 231.649959 
L 407.425073 229.578152 
L 408.440634 216.346188 
L 409.456195 217.552776 
L 410.471756 211.93033 
L 411.487317 211.144135 
L 412.502878 222.513063 
L 413.518439 228.698107 
L 414.534 230.930621 
L 415.549561 227.400876 
L 416.565122 234.056413 
L 417.580683 231.701927 
L 419.611805 233.748191 
L 420.627366 232.61314 
L 421.642927 228.401755 
L 422.658488 226.426752 
L 423.674049 220.898565 
L 424.68961 225.741052 
L 425.705171 215.027182 
L 426.720732 207.120524 
L 427.736293 210.039359 
L 428.751854 211.928435 
L 429.767415 219.221224 
L 430.782976 215.472564 
L 431.798537 217.911119 
L 432.814098 218.538047 
L 433.829659 219.784454 
L 434.84522 214.85148 
L 435.860781 212.217306 
L 436.876342 211.037384 
L 437.891903 200.038712 
L 438.907464 196.662554 
L 439.923025 196.326112 
L 440.938586 194.767512 
L 441.954147 198.740909 
L 442.969708 211.127054 
L 443.98527 217.448781 
L 445.000831 222.094834 
L 446.016392 229.051934 
L 447.031953 233.40772 
L 448.047514 229.027851 
L 449.063075 223.050687 
L 450.078636 232.949072 
L 451.094197 237.861171 
L 452.109758 229.363088 
L 453.125319 225.38648 
L 454.14088 216.975382 
L 455.156441 212.890518 
L 456.172002 218.436407 
L 457.187563 223.116858 
L 458.203124 233.80136 
L 459.218685 238.703325 
L 460.234246 229.988121 
L 461.249807 239.568709 
L 462.265368 243.062523 
L 463.280929 242.829634 
L 464.29649 243.101756 
L 465.312051 240.383039 
L 466.327612 242.623316 
L 467.343173 239.259973 
L 468.358734 239.874679 
L 469.374295 238.590503 
L 470.389856 240.838942 
L 471.405417 247.33923 
L 472.420978 250.124501 
L 473.436539 251.986579 
L 474.4521 255.64589 
L 475.467661 258.65884 
L 476.483222 249.866886 
L 477.498783 244.826023 
L 478.514344 244.488557 
L 479.529905 243.653934 
L 480.545466 249.849988 
L 481.561027 246.049288 
L 482.576588 248.22909 
L 483.592149 252.308014 
L 484.60771 241.614351 
L 485.623271 247.835515 
L 486.638832 247.723286 
L 487.654393 249.011756 
L 488.669954 247.63873 
L 489.685515 251.510296 
L 490.701076 251.563597 
L 491.716637 248.47882 
L 492.732198 246.97318 
L 493.747759 250.190134 
L 495.778881 264.336921 
L 496.794442 262.33428 
L 497.810003 275.571826 
L 498.825564 269.84087 
L 499.841125 268.360057 
L 500.856686 278.93712 
L 501.872247 279.139025 
L 502.887808 278.594104 
L 503.903369 278.405048 
L 504.91893 271.590196 
L 505.934491 268.691427 
L 506.950052 269.520786 
L 507.965613 267.157827 
L 508.981174 260.885455 
L 509.996736 262.914532 
L 511.012297 260.402737 
L 512.027858 256.42451 
L 513.043419 247.274343 
L 514.05898 254.682291 
L 515.074541 252.963787 
L 517.105663 233.093448 
L 519.136785 231.027672 
L 520.152346 231.587757 
L 521.167907 234.213328 
L 523.199029 243.126149 
L 524.21459 244.572872 
L 525.230151 243.410195 
L 526.245712 253.976783 
L 527.261273 251.042315 
L 529.292395 260.868861 
L 530.307956 257.713304 
L 531.323517 260.58306 
L 532.339078 265.155976 
L 533.354639 262.983867 
L 534.3702 264.193374 
L 535.385761 267.423799 
L 536.401322 258.500091 
L 537.416883 256.871007 
L 538.432444 263.447055 
L 539.448005 271.03831 
L 540.463566 269.283155 
L 541.479127 277.271193 
L 542.494688 284.271303 
L 543.510249 279.795928 
L 544.52581 277.150012 
L 545.541371 277.449973 
L 546.556932 282.459457 
L 547.572493 288.898314 
L 548.588054 289.74709 
L 549.603615 289.207528 
L 550.619176 296.842015 
L 551.634737 298.124853 
L 552.650298 301.86058 
L 553.665859 297.385585 
L 554.68142 306.330467 
L 555.696981 307.151026 
L 556.712542 313.974576 
L 557.728103 315.13039 
L 558.743664 318.040588 
L 559.759225 314.969853 
L 560.774786 316.253107 
L 561.790347 316.850432 
L 562.805908 318.012665 
L 563.821469 324.450817 
L 564.83703 315.621646 
L 565.852591 313.609587 
L 566.868152 307.979654 
L 567.883713 303.081069 
L 568.899274 294.01868 
L 569.914835 292.649666 
L 570.930396 294.639318 
L 571.945957 293.7117 
L 572.961518 293.312503 
L 573.977079 292.15019 
L 574.992641 300.697979 
L 576.008202 296.659655 
L 577.023763 301.470205 
L 578.039324 300.11412 
L 579.054885 297.742708 
L 580.070446 298.449107 
L 581.086007 300.823037 
L 582.101568 291.188862 
L 583.117129 296.143252 
L 584.13269 293.672867 
L 585.148251 295.22316 
L 586.163812 292.653633 
L 587.179373 293.681476 
L 588.194934 299.056744 
L 589.210495 301.2491 
L 590.226056 300.299138 
L 591.241617 289.070826 
L 592.257178 284.635542 
L 593.272739 285.45086 
L 594.2883 289.538829 
L 595.303861 289.441882 
L 596.319422 289.466707 
L 597.334983 292.749098 
L 599.366105 296.344875 
L 600.381666 291.529081 
L 601.397227 288.600086 
L 602.412788 295.141702 
L 603.428349 299.000334 
L 604.44391 300.998283 
L 605.459471 297.964805 
L 606.475032 293.711276 
L 607.490593 292.882602 
L 608.506154 280.366837 
L 610.537276 271.456514 
L 611.552837 266.103191 
L 612.568398 255.286202 
L 613.583959 260.078193 
L 614.59952 269.775593 
L 615.615081 263.944223 
L 616.630642 271.396489 
L 617.646203 268.11694 
L 618.661764 271.202133 
L 619.677325 267.065612 
L 620.692886 276.695111 
L 621.708447 280.050284 
L 622.724008 275.168879 
L 623.739569 271.392778 
L 624.75513 270.02442 
L 625.770691 277.316999 
L 626.786252 282.69206 
L 627.801813 288.707565 
L 628.817374 292.60855 
L 629.832935 278.699838 
L 630.848496 273.844973 
L 631.864057 274.41125 
L 632.879618 274.532406 
L 633.895179 270.383589 
L 634.91074 273.355113 
L 635.926301 266.300649 
L 636.941862 263.377422 
L 637.957423 271.231641 
L 638.972984 269.983413 
L 639.988546 277.060239 
L 641.004107 278.209166 
L 642.019668 277.117581 
L 643.035229 273.250749 
L 644.05079 263.766548 
L 645.066351 269.01413 
L 646.081912 269.7625 
L 647.097473 272.929236 
L 648.113034 257.33244 
L 649.128595 271.72428 
L 650.144156 266.124843 
L 651.159717 262.407328 
L 652.175278 258.122239 
L 653.190839 258.392525 
L 654.2064 262.574909 
L 655.221961 263.261974 
L 657.253083 249.481516 
L 658.268644 244.864915 
L 659.284205 243.208803 
L 660.299766 235.429635 
L 661.315327 243.798632 
L 662.330888 239.774563 
L 663.346449 228.841333 
L 664.36201 225.2309 
L 665.377571 216.992421 
L 666.393132 212.237371 
L 667.408693 212.833651 
L 668.424254 214.917242 
L 670.455376 234.692842 
L 671.470937 233.997006 
L 672.486498 227.139503 
L 673.502059 225.653492 
L 674.51762 221.309626 
L 675.533181 214.08357 
L 676.548742 209.17505 
L 677.564303 212.929116 
L 678.579864 215.849388 
L 679.595425 219.500324 
L 680.610986 227.97054 
L 681.626547 229.845904 
L 682.642108 229.00232 
L 683.657669 221.940716 
L 684.67323 223.698049 
L 685.688791 216.580346 
L 686.704352 216.137847 
L 687.719913 213.856293 
L 688.735474 215.178741 
L 689.751035 211.084859 
L 690.766596 210.853226 
L 691.782157 213.034277 
L 692.797718 220.248073 
L 693.813279 219.510977 
L 694.82884 221.518182 
L 695.844401 223.879491 
L 696.859962 223.66702 
L 698.891084 221.850878 
L 699.906645 221.56503 
L 700.922206 228.626382 
L 701.937767 219.350548 
L 702.953328 223.590606 
L 703.968889 230.061307 
L 704.984451 233.2464 
L 706.000012 229.207201 
L 707.015573 226.217593 
L 708.031134 234.826465 
L 709.046695 237.223292 
L 710.062256 235.180619 
L 711.077817 230.286886 
L 712.093378 223.808451 
L 713.108939 230.322916 
L 714.1245 223.684673 
L 715.140061 222.689023 
L 716.155622 214.284175 
L 717.171183 221.175788 
L 719.202305 230.233045 
L 720.217866 230.952752 
L 721.233427 224.013346 
L 722.248988 234.906766 
L 723.264549 235.339123 
L 724.28011 250.450896 
L 725.295671 253.113576 
L 726.311232 250.595369 
L 727.326793 258.585814 
L 728.342354 263.1372 
L 729.357915 267.140409 
L 730.373476 269.582346 
L 731.389037 276.213144 
L 732.404598 269.678013 
L 733.420159 268.026026 
L 734.43572 262.47372 
L 735.451281 265.332927 
L 736.466842 270.07266 
L 737.482403 261.752346 
L 738.497964 266.409798 
L 739.513525 264.691978 
L 740.529086 273.975443 
L 741.544647 269.502968 
L 742.560208 278.496692 
L 743.575769 277.845885 
L 744.59133 279.736141 
L 745.606891 268.155528 
L 746.622452 260.504376 
L 747.638013 262.481262 
L 748.653574 259.411595 
L 749.669135 258.828617 
L 751.700257 262.555881 
L 752.715818 265.322292 
L 753.731379 280.13485 
L 754.74694 282.53054 
L 755.762501 291.083438 
L 756.778062 287.404961 
L 757.793623 291.070787 
L 758.809184 280.299125 
L 759.824745 286.552879 
L 760.840306 282.397209 
L 761.855867 272.586767 
L 762.871428 278.91552 
L 763.886989 283.249282 
L 764.90255 286.414322 
L 765.918111 284.84115 
L 766.933672 296.195219 
L 767.949233 288.463988 
L 768.964794 282.814015 
L 769.980355 282.113707 
L 770.995917 282.845899 
L 772.011478 281.285981 
L 773.027039 274.919495 
L 774.0426 263.8667 
L 776.073722 259.690341 
L 777.089283 262.941096 
L 778.104844 261.444396 
L 779.120405 255.251084 
L 780.135966 255.132322 
L 781.151527 252.745183 
L 782.167088 252.901254 
L 783.182649 246.084242 
L 784.19821 250.053197 
L 785.213771 260.125363 
L 786.229332 248.96217 
L 787.244893 246.388477 
L 788.260454 244.316152 
L 789.276015 244.356613 
L 790.291576 245.130704 
L 791.307137 250.423446 
L 792.322698 262.684397 
L 793.338259 255.56821 
L 794.35382 262.327287 
L 795.369381 260.776784 
L 796.384942 261.79242 
L 797.400503 262.338129 
L 798.416064 258.870337 
L 799.431625 254.803321 
L 800.447186 260.084636 
L 801.462747 257.194009 
L 802.478308 253.855297 
L 803.493869 259.063595 
L 804.50943 255.396882 
L 805.524991 267.727641 
L 806.540552 265.857618 
L 807.556113 272.480468 
L 808.571674 276.234134 
L 809.587235 274.785875 
L 811.618357 267.465175 
L 812.633918 267.218574 
L 813.649479 261.855826 
L 814.66504 260.807716 
L 815.680601 256.374909 
L 816.696162 263.202286 
L 817.711723 271.723836 
L 818.727284 269.296467 
L 819.742845 257.308285 
L 820.758406 253.483267 
L 821.773967 251.495035 
L 822.789528 254.053164 
L 823.805089 259.910589 
L 824.82065 267.04327 
L 825.836211 270.103967 
L 826.851772 277.964877 
L 827.867333 284.575053 
L 828.882894 286.190791 
L 829.898455 285.240388 
L 830.914016 287.404523 
L 831.929577 286.870473 
L 832.945138 290.924181 
L 833.960699 297.571211 
L 834.97626 301.917977 
L 835.991822 299.928086 
L 837.007383 294.599659 
L 838.022944 291.532762 
L 839.038505 301.370714 
L 840.054066 307.0206 
L 841.069627 304.536833 
L 842.085188 300.662709 
L 843.100749 306.057987 
L 844.11631 303.142499 
L 845.131871 312.19426 
L 846.147432 313.059316 
L 847.162993 314.901214 
L 848.178554 316.478475 
L 849.194115 314.651638 
L 850.209676 318.24184 
L 851.225237 316.578729 
L 852.240798 314.636902 
L 853.256359 323.730011 
L 854.27192 325.628854 
L 855.287481 330.634054 
L 857.318603 331.849132 
L 858.334164 336.275081 
L 859.349725 334.522848 
L 860.365286 328.088971 
L 861.380847 320.625088 
L 862.396408 328.900814 
L 863.411969 327.151498 
L 864.42753 329.468748 
L 865.443091 327.952585 
L 866.458652 326.835872 
L 867.474213 318.116429 
L 868.489774 313.068834 
L 869.505335 322.336089 
L 870.520896 323.960453 
L 871.536457 319.381615 
L 872.552018 323.52789 
L 873.567579 324.836474 
L 874.58314 326.79678 
L 875.598701 336.432464 
L 876.614262 337.913431 
L 877.629823 343.369087 
L 878.645384 341.612793 
L 879.660945 346.933526 
L 880.676506 353.434473 
L 881.692067 352.089536 
L 882.707628 351.462119 
L 883.723189 353.220397 
L 884.73875 350.729089 
L 885.754311 345.197745 
L 886.769872 347.848568 
L 887.785433 354.539108 
L 889.816555 344.773754 
L 890.832116 350.647017 
L 891.847677 348.308824 
L 892.863238 349.697619 
L 893.878799 349.109448 
L 894.89436 356.061567 
L 895.909921 359.905561 
L 896.925482 354.958261 
L 897.941043 348.792655 
L 898.956604 339.408523 
L 899.972165 343.590127 
L 900.987727 341.077998 
L 902.003288 347.357093 
L 903.018849 356.446304 
L 904.03441 361.841619 
L 905.049971 363.887956 
L 906.065532 371.418573 
L 907.081093 370.142562 
L 908.096654 365.320322 
L 909.112215 367.480143 
L 910.127776 378.199609 
L 911.143337 384.046614 
L 913.174459 375.117579 
L 914.19002 376.628301 
L 915.205581 372.740331 
L 916.221142 382.42758 
L 917.236703 378.327645 
L 918.252264 380.553254 
L 919.267825 380.166381 
L 920.283386 383.506689 
L 921.298947 377.257918 
L 922.314508 374.632762 
L 923.330069 390.753859 
L 924.34563 383.218361 
L 925.361191 372.044559 
L 926.376752 369.210843 
L 927.392313 370.469768 
L 928.407874 368.147577 
L 929.423435 362.096436 
L 930.438996 368.148576 
L 931.454557 362.087172 
L 932.470118 369.092875 
L 933.485679 371.983813 
L 934.50124 376.094024 
L 935.516801 373.265286 
L 936.532362 374.683375 
L 937.547923 379.760283 
L 938.563484 371.011533 
L 939.579045 366.643073 
L 940.594606 373.133464 
L 941.610167 372.634042 
L 942.625728 363.650771 
L 943.641289 369.687657 
L 944.65685 371.668565 
L 945.672411 362.365664 
L 946.687972 366.00513 
L 947.703533 362.534138 
L 948.719094 360.637923 
L 949.734655 364.997908 
L 950.750216 367.920474 
L 951.765777 376.062698 
L 952.781338 371.170796 
L 953.796899 374.179854 
L 954.81246 371.741004 
L 955.828021 371.130278 
L 956.843582 367.110541 
L 957.859143 364.516454 
L 958.874704 363.020503 
L 959.890265 358.089486 
L 961.921387 350.577204 
L 962.936948 354.0609 
L 963.952509 358.73592 
L 964.96807 365.855826 
L 965.983632 364.362671 
L 966.999193 361.233887 
L 968.014754 357.6235 
L 969.030315 358.67492 
L 970.045876 361.236041 
L 971.061437 359.618912 
L 972.076998 359.350841 
L 973.092559 357.776909 
L 974.10812 361.598121 
L 975.123681 361.067636 
L 976.139242 363.081995 
L 977.154803 365.609944 
L 978.170364 370.724218 
L 979.185925 371.395058 
L 980.201486 368.418806 
L 981.217047 369.791861 
L 982.232608 368.697371 
L 983.248169 369.377913 
L 985.279291 380.785649 
L 986.294852 377.299758 
L 987.310413 378.227217 
L 988.325974 384.89207 
L 989.341535 388.976079 
L 990.357096 383.323436 
L 991.372657 381.41176 
L 992.388218 382.522709 
L 993.403779 387.447442 
L 994.41934 388.462253 
L 995.434901 387.169459 
L 996.450462 389.388573 
L 997.466023 390.455083 
L 998.481584 397.742424 
L 999.497145 396.786693 
L 1000.512706 387.289923 
L 1001.528267 393.263945 
L 1002.543828 392.716149 
L 1003.559389 393.270378 
L 1004.57495 393.560773 
L 1005.590511 395.575459 
L 1006.606072 401.154943 
L 1007.621633 405.736192 
L 1008.637194 401.857303 
L 1009.652755 402.215017 
L 1010.668316 402.001475 
L 1011.683877 397.878311 
L 1012.699438 396.558246 
L 1013.714999 393.043159 
L 1014.73056 399.219232 
L 1015.746121 393.63533 
L 1016.761682 383.883426 
L 1017.777243 384.296837 
L 1018.792804 376.965253 
L 1019.808365 363.993035 
L 1020.823926 358.820204 
L 1021.839487 354.793129 
L 1022.855048 355.039088 
L 1023.870609 360.628838 
L 1024.88617 360.459074 
L 1025.901731 359.482197 
L 1026.917292 360.777124 
L 1027.932853 358.417644 
L 1028.948414 363.64147 
L 1029.963975 360.504638 
L 1030.979536 371.436738 
L 1031.995098 378.155837 
L 1033.010659 370.30213 
L 1034.02622 368.699715 
L 1035.041781 361.369676 
L 1036.057342 368.74308 
L 1037.072903 366.454185 
L 1038.088464 357.202331 
L 1039.104025 366.06786 
L 1040.119586 366.067485 
L 1041.135147 364.365722 
L 1043.166269 372.990395 
L 1044.18183 368.336773 
L 1045.197391 367.440884 
L 1046.212952 369.046892 
L 1047.228513 362.784479 
L 1048.244074 371.795736 
L 1049.259635 366.853639 
L 1050.275196 369.562287 
L 1051.290757 374.525984 
L 1052.306318 361.924696 
L 1053.321879 358.840451 
L 1054.33744 366.104051 
L 1055.353001 361.414591 
L 1056.368562 366.143267 
L 1057.384123 372.149282 
L 1058.399684 364.045868 
L 1059.415245 371.059899 
L 1060.430806 367.938912 
L 1061.446367 369.968231 
L 1062.461928 371.718701 
L 1063.477489 361.140903 
L 1064.49305 363.966685 
L 1065.508611 354.221276 
L 1066.524172 357.525661 
L 1068.555294 342.537368 
L 1069.570855 342.61091 
L 1070.586416 351.20694 
L 1071.601977 357.752981 
L 1072.617538 349.301548 
L 1073.633099 348.857475 
L 1074.64866 351.988488 
L 1075.664221 343.096341 
L 1076.679782 338.634388 
L 1077.695343 341.543943 
L 1078.710904 343.462343 
L 1079.726465 350.305876 
L 1080.742026 341.092279 
L 1081.757587 341.779549 
L 1082.773148 349.611493 
L 1083.788709 356.062885 
L 1084.80427 358.481944 
L 1085.819831 351.297669 
L 1086.835392 357.463055 
L 1087.850953 355.156042 
L 1088.866514 351.724008 
L 1089.882075 348.973217 
L 1090.897636 339.475339 
L 1091.913197 347.785584 
L 1092.928758 343.704205 
L 1093.944319 342.302061 
L 1094.95988 347.823923 
L 1095.975441 346.613364 
L 1096.991003 341.916962 
L 1098.006564 344.322295 
L 1099.022125 360.018904 
L 1100.037686 358.058986 
L 1101.053247 360.25378 
L 1102.068808 362.994178 
L 1103.084369 357.395021 
L 1104.09993 353.768672 
L 1105.115491 350.72489 
L 1106.131052 364.653976 
L 1107.146613 357.917066 
L 1108.162174 362.060816 
L 1109.177735 367.794093 
L 1110.193296 366.99772 
L 1111.208857 375.616778 
L 1112.224418 374.311069 
L 1113.239979 377.245688 
L 1114.25554 371.950713 
L 1114.25554 371.950713 
" style="fill:none;stroke:#1f77b4;stroke-linecap:square;stroke-width:1.5;"/>
   </g>
   <g id="patch_3">
    <path d="M 48.982813 565.918125 
L 48.982813 22.318125 
" style="fill:none;stroke:#000000;stroke-linecap:square;stroke-linejoin:miter;stroke-width:0.8;"/>
   </g>
   <g id="patch_4">
    <path d="M 1164.982812 565.918125 
L 1164.982812 22.318125 
" style="fill:none;stroke:#000000;stroke-linecap:square;stroke-linejoin:miter;stroke-width:0.8;"/>
   </g>
   <g id="patch_5">
    <path d="M 48.982813 565.918125 
L 1164.982812 565.918125 
" style="fill:none;stroke:#000000;stroke-linecap:square;stroke-linejoin:miter;stroke-width:0.8;"/>
   </g>
   <g id="patch_6">
    <path d="M 48.982813 22.318125 
L 1164.982812 22.318125 
" style="fill:none;stroke:#000000;stroke-linecap:square;stroke-linejoin:miter;stroke-width:0.8;"/>
   </g>
   <g id="text_13">
    <!-- Tytuł -->
    <g transform="translate(592.844375 16.318125)scale(0.12 -0.12)">
     <defs>
      <path d="M -0.296875 72.90625 
L 61.375 72.90625 
L 61.375 64.59375 
L 35.5 64.59375 
L 35.5 0 
L 25.59375 0 
L 25.59375 64.59375 
L -0.296875 64.59375 
z
" id="DejaVuSans-84"/>
      <path d="M 32.171875 -5.078125 
Q 28.375 -14.84375 24.75 -17.8125 
Q 21.140625 -20.796875 15.09375 -20.796875 
L 7.90625 -20.796875 
L 7.90625 -13.28125 
L 13.1875 -13.28125 
Q 16.890625 -13.28125 18.9375 -11.515625 
Q 21 -9.765625 23.484375 -3.21875 
L 25.09375 0.875 
L 2.984375 54.6875 
L 12.5 54.6875 
L 29.59375 11.921875 
L 46.6875 54.6875 
L 56.203125 54.6875 
z
" id="DejaVuSans-121"/>
      <path d="M 9.71875 75.984375 
L 18.703125 75.984375 
L 18.703125 46.578125 
L 24.8125 50.984375 
L 28.515625 45.796875 
L 18.703125 38.921875 
L 18.703125 0 
L 9.71875 0 
L 9.71875 32.515625 
L 3.71875 28.21875 
L 0.09375 33.40625 
L 9.71875 40.28125 
z
" id="DejaVuSans-322"/>
     </defs>
     <use xlink:href="#DejaVuSans-84"/>
     <use x="45.458984" xlink:href="#DejaVuSans-121"/>
     <use x="104.638672" xlink:href="#DejaVuSans-116"/>
     <use x="143.847656" xlink:href="#DejaVuSans-117"/>
     <use x="207.226562" xlink:href="#DejaVuSans-322"/>
    </g>
   </g>
  </g>
 </g>
 <defs>
  <clipPath id="p370e329488">
   <rect height="543.6" width="1116" x="48.982813" y="22.318125"/>
  </clipPath>
 </defs>
</svg>
