<?xml version="1.0" encoding="utf-8" standalone="no"?>
<!DOCTYPE svg PUBLIC "-//W3C//DTD SVG 1.1//EN"
  "http://www.w3.org/Graphics/SVG/1.1/DTD/svg11.dtd">
<!-- Created with matplotlib (https://matplotlib.org/) -->
<svg height="615.8291pt" version="1.1" viewBox="0 0 1172.182813 615.8291" width="1172.182813pt" xmlns="http://www.w3.org/2000/svg" xmlns:xlink="http://www.w3.org/1999/xlink">
 <metadata>
  <rdf:RDF xmlns:cc="http://creativecommons.org/ns#" xmlns:dc="http://purl.org/dc/elements/1.1/" xmlns:rdf="http://www.w3.org/1999/02/22-rdf-syntax-ns#">
   <cc:Work>
    <dc:type rdf:resource="http://purl.org/dc/dcmitype/StillImage"/>
    <dc:date>2021-10-23T11:35:49.495583</dc:date>
    <dc:format>image/svg+xml</dc:format>
    <dc:creator>
     <cc:Agent>
      <dc:title>Matplotlib v3.3.4, https://matplotlib.org/</dc:title>
     </cc:Agent>
    </dc:creator>
   </cc:Work>
  </rdf:RDF>
 </metadata>
 <defs>
  <style type="text/css">*{stroke-linecap:butt;stroke-linejoin:round;}</style>
 </defs>
 <g id="figure_1">
  <g id="patch_1">
   <path d="M 0 615.8291 
L 1172.182813 615.8291 
L 1172.182813 0 
L 0 0 
z
" style="fill:none;"/>
  </g>
  <g id="axes_1">
   <g id="patch_2">
    <path d="M 48.982813 565.918125 
L 1164.982812 565.918125 
L 1164.982812 22.318125 
L 48.982813 22.318125 
z
" style="fill:#ffffff;"/>
   </g>
   <g id="matplotlib.axis_1">
    <g id="xtick_1">
     <g id="line2d_1">
      <defs>
       <path d="M 0 0 
L 0 3.5 
" id="m853e1b13cf" style="stroke:#000000;stroke-width:0.8;"/>
      </defs>
      <g>
       <use style="stroke:#000000;stroke-width:0.8;" x="99.710085" xlink:href="#m853e1b13cf" y="565.918125"/>
      </g>
     </g>
     <g id="text_1">
      <!-- one -->
      <g transform="translate(102.008645 588.419734)rotate(-90)scale(0.0833 -0.0833)">
       <defs>
        <path d="M 30.609375 48.390625 
Q 23.390625 48.390625 19.1875 42.75 
Q 14.984375 37.109375 14.984375 27.296875 
Q 14.984375 17.484375 19.15625 11.84375 
Q 23.34375 6.203125 30.609375 6.203125 
Q 37.796875 6.203125 41.984375 11.859375 
Q 46.1875 17.53125 46.1875 27.296875 
Q 46.1875 37.015625 41.984375 42.703125 
Q 37.796875 48.390625 30.609375 48.390625 
z
M 30.609375 56 
Q 42.328125 56 49.015625 48.375 
Q 55.71875 40.765625 55.71875 27.296875 
Q 55.71875 13.875 49.015625 6.21875 
Q 42.328125 -1.421875 30.609375 -1.421875 
Q 18.84375 -1.421875 12.171875 6.21875 
Q 5.515625 13.875 5.515625 27.296875 
Q 5.515625 40.765625 12.171875 48.375 
Q 18.84375 56 30.609375 56 
z
" id="DejaVuSans-111"/>
        <path d="M 54.890625 33.015625 
L 54.890625 0 
L 45.90625 0 
L 45.90625 32.71875 
Q 45.90625 40.484375 42.875 44.328125 
Q 39.84375 48.1875 33.796875 48.1875 
Q 26.515625 48.1875 22.3125 43.546875 
Q 18.109375 38.921875 18.109375 30.90625 
L 18.109375 0 
L 9.078125 0 
L 9.078125 54.6875 
L 18.109375 54.6875 
L 18.109375 46.1875 
Q 21.34375 51.125 25.703125 53.5625 
Q 30.078125 56 35.796875 56 
Q 45.21875 56 50.046875 50.171875 
Q 54.890625 44.34375 54.890625 33.015625 
z
" id="DejaVuSans-110"/>
        <path d="M 56.203125 29.59375 
L 56.203125 25.203125 
L 14.890625 25.203125 
Q 15.484375 15.921875 20.484375 11.0625 
Q 25.484375 6.203125 34.421875 6.203125 
Q 39.59375 6.203125 44.453125 7.46875 
Q 49.3125 8.734375 54.109375 11.28125 
L 54.109375 2.78125 
Q 49.265625 0.734375 44.1875 -0.34375 
Q 39.109375 -1.421875 33.890625 -1.421875 
Q 20.796875 -1.421875 13.15625 6.1875 
Q 5.515625 13.8125 5.515625 26.8125 
Q 5.515625 40.234375 12.765625 48.109375 
Q 20.015625 56 32.328125 56 
Q 43.359375 56 49.78125 48.890625 
Q 56.203125 41.796875 56.203125 29.59375 
z
M 47.21875 32.234375 
Q 47.125 39.59375 43.09375 43.984375 
Q 39.0625 48.390625 32.421875 48.390625 
Q 24.90625 48.390625 20.390625 44.140625 
Q 15.875 39.890625 15.1875 32.171875 
z
" id="DejaVuSans-101"/>
       </defs>
       <use xlink:href="#DejaVuSans-111"/>
       <use x="61.181641" xlink:href="#DejaVuSans-110"/>
       <use x="124.560547" xlink:href="#DejaVuSans-101"/>
      </g>
     </g>
    </g>
    <g id="xtick_2">
     <g id="line2d_2">
      <g>
       <use style="stroke:#000000;stroke-width:0.8;" x="353.600339" xlink:href="#m853e1b13cf" y="565.918125"/>
      </g>
     </g>
     <g id="text_2">
      <!-- two -->
      <g transform="translate(355.898898 588.093042)rotate(-90)scale(0.0833 -0.0833)">
       <defs>
        <path d="M 18.3125 70.21875 
L 18.3125 54.6875 
L 36.8125 54.6875 
L 36.8125 47.703125 
L 18.3125 47.703125 
L 18.3125 18.015625 
Q 18.3125 11.328125 20.140625 9.421875 
Q 21.96875 7.515625 27.59375 7.515625 
L 36.8125 7.515625 
L 36.8125 0 
L 27.59375 0 
Q 17.1875 0 13.234375 3.875 
Q 9.28125 7.765625 9.28125 18.015625 
L 9.28125 47.703125 
L 2.6875 47.703125 
L 2.6875 54.6875 
L 9.28125 54.6875 
L 9.28125 70.21875 
z
" id="DejaVuSans-116"/>
        <path d="M 4.203125 54.6875 
L 13.1875 54.6875 
L 24.421875 12.015625 
L 35.59375 54.6875 
L 46.1875 54.6875 
L 57.421875 12.015625 
L 68.609375 54.6875 
L 77.59375 54.6875 
L 63.28125 0 
L 52.6875 0 
L 40.921875 44.828125 
L 29.109375 0 
L 18.5 0 
z
" id="DejaVuSans-119"/>
       </defs>
       <use xlink:href="#DejaVuSans-116"/>
       <use x="39.208984" xlink:href="#DejaVuSans-119"/>
       <use x="120.996094" xlink:href="#DejaVuSans-111"/>
      </g>
     </g>
    </g>
    <g id="xtick_3">
     <g id="line2d_3">
      <g>
       <use style="stroke:#000000;stroke-width:0.8;" x="607.490593" xlink:href="#m853e1b13cf" y="565.918125"/>
      </g>
     </g>
     <g id="text_3">
      <!-- three -->
      <g transform="translate(609.789152 594.950975)rotate(-90)scale(0.0833 -0.0833)">
       <defs>
        <path d="M 54.890625 33.015625 
L 54.890625 0 
L 45.90625 0 
L 45.90625 32.71875 
Q 45.90625 40.484375 42.875 44.328125 
Q 39.84375 48.1875 33.796875 48.1875 
Q 26.515625 48.1875 22.3125 43.546875 
Q 18.109375 38.921875 18.109375 30.90625 
L 18.109375 0 
L 9.078125 0 
L 9.078125 75.984375 
L 18.109375 75.984375 
L 18.109375 46.1875 
Q 21.34375 51.125 25.703125 53.5625 
Q 30.078125 56 35.796875 56 
Q 45.21875 56 50.046875 50.171875 
Q 54.890625 44.34375 54.890625 33.015625 
z
" id="DejaVuSans-104"/>
        <path d="M 41.109375 46.296875 
Q 39.59375 47.171875 37.8125 47.578125 
Q 36.03125 48 33.890625 48 
Q 26.265625 48 22.1875 43.046875 
Q 18.109375 38.09375 18.109375 28.8125 
L 18.109375 0 
L 9.078125 0 
L 9.078125 54.6875 
L 18.109375 54.6875 
L 18.109375 46.1875 
Q 20.953125 51.171875 25.484375 53.578125 
Q 30.03125 56 36.53125 56 
Q 37.453125 56 38.578125 55.875 
Q 39.703125 55.765625 41.0625 55.515625 
z
" id="DejaVuSans-114"/>
       </defs>
       <use xlink:href="#DejaVuSans-116"/>
       <use x="39.208984" xlink:href="#DejaVuSans-104"/>
       <use x="102.587891" xlink:href="#DejaVuSans-114"/>
       <use x="141.451172" xlink:href="#DejaVuSans-101"/>
       <use x="202.974609" xlink:href="#DejaVuSans-101"/>
      </g>
     </g>
    </g>
    <g id="xtick_4">
     <g id="line2d_4">
      <g>
       <use style="stroke:#000000;stroke-width:0.8;" x="861.380847" xlink:href="#m853e1b13cf" y="565.918125"/>
      </g>
     </g>
     <g id="text_4">
      <!-- four -->
      <g transform="translate(863.679406 589.651012)rotate(-90)scale(0.0833 -0.0833)">
       <defs>
        <path d="M 37.109375 75.984375 
L 37.109375 68.5 
L 28.515625 68.5 
Q 23.6875 68.5 21.796875 66.546875 
Q 19.921875 64.59375 19.921875 59.515625 
L 19.921875 54.6875 
L 34.71875 54.6875 
L 34.71875 47.703125 
L 19.921875 47.703125 
L 19.921875 0 
L 10.890625 0 
L 10.890625 47.703125 
L 2.296875 47.703125 
L 2.296875 54.6875 
L 10.890625 54.6875 
L 10.890625 58.5 
Q 10.890625 67.625 15.140625 71.796875 
Q 19.390625 75.984375 28.609375 75.984375 
z
" id="DejaVuSans-102"/>
        <path d="M 8.5 21.578125 
L 8.5 54.6875 
L 17.484375 54.6875 
L 17.484375 21.921875 
Q 17.484375 14.15625 20.5 10.265625 
Q 23.53125 6.390625 29.59375 6.390625 
Q 36.859375 6.390625 41.078125 11.03125 
Q 45.3125 15.671875 45.3125 23.6875 
L 45.3125 54.6875 
L 54.296875 54.6875 
L 54.296875 0 
L 45.3125 0 
L 45.3125 8.40625 
Q 42.046875 3.421875 37.71875 1 
Q 33.40625 -1.421875 27.6875 -1.421875 
Q 18.265625 -1.421875 13.375 4.4375 
Q 8.5 10.296875 8.5 21.578125 
z
M 31.109375 56 
z
" id="DejaVuSans-117"/>
       </defs>
       <use xlink:href="#DejaVuSans-102"/>
       <use x="35.205078" xlink:href="#DejaVuSans-111"/>
       <use x="96.386719" xlink:href="#DejaVuSans-117"/>
       <use x="159.765625" xlink:href="#DejaVuSans-114"/>
      </g>
     </g>
    </g>
    <g id="xtick_5">
     <g id="line2d_5">
      <g>
       <use style="stroke:#000000;stroke-width:0.8;" x="1115.271101" xlink:href="#m853e1b13cf" y="565.918125"/>
      </g>
     </g>
     <g id="text_5">
      <!-- five -->
      <g transform="translate(1117.56966 588.220595)rotate(-90)scale(0.0833 -0.0833)">
       <defs>
        <path d="M 9.421875 54.6875 
L 18.40625 54.6875 
L 18.40625 0 
L 9.421875 0 
z
M 9.421875 75.984375 
L 18.40625 75.984375 
L 18.40625 64.59375 
L 9.421875 64.59375 
z
" id="DejaVuSans-105"/>
        <path d="M 2.984375 54.6875 
L 12.5 54.6875 
L 29.59375 8.796875 
L 46.6875 54.6875 
L 56.203125 54.6875 
L 35.6875 0 
L 23.484375 0 
z
" id="DejaVuSans-118"/>
       </defs>
       <use xlink:href="#DejaVuSans-102"/>
       <use x="35.205078" xlink:href="#DejaVuSans-105"/>
       <use x="62.988281" xlink:href="#DejaVuSans-118"/>
       <use x="122.167969" xlink:href="#DejaVuSans-101"/>
      </g>
     </g>
    </g>
    <g id="text_6">
     <!-- Kroki -->
     <g transform="translate(594.417188 606.549412)scale(0.1 -0.1)">
      <defs>
       <path d="M 9.8125 72.90625 
L 19.671875 72.90625 
L 19.671875 42.09375 
L 52.390625 72.90625 
L 65.09375 72.90625 
L 28.90625 38.921875 
L 67.671875 0 
L 54.6875 0 
L 19.671875 35.109375 
L 19.671875 0 
L 9.8125 0 
z
" id="DejaVuSans-75"/>
       <path d="M 9.078125 75.984375 
L 18.109375 75.984375 
L 18.109375 31.109375 
L 44.921875 54.6875 
L 56.390625 54.6875 
L 27.390625 29.109375 
L 57.625 0 
L 45.90625 0 
L 18.109375 26.703125 
L 18.109375 0 
L 9.078125 0 
z
" id="DejaVuSans-107"/>
      </defs>
      <use xlink:href="#DejaVuSans-75"/>
      <use x="65.576172" xlink:href="#DejaVuSans-114"/>
      <use x="104.439453" xlink:href="#DejaVuSans-111"/>
      <use x="165.621094" xlink:href="#DejaVuSans-107"/>
      <use x="223.53125" xlink:href="#DejaVuSans-105"/>
     </g>
    </g>
   </g>
   <g id="matplotlib.axis_2">
    <g id="ytick_1">
     <g id="line2d_6">
      <defs>
       <path d="M 0 0 
L -3.5 0 
" id="m914f33714a" style="stroke:#000000;stroke-width:0.8;"/>
      </defs>
      <g>
       <use style="stroke:#000000;stroke-width:0.8;" x="48.982813" xlink:href="#m914f33714a" y="565.918125"/>
      </g>
     </g>
     <g id="text_7">
      <!-- −50 -->
      <g transform="translate(20.878125 569.717344)scale(0.1 -0.1)">
       <defs>
        <path d="M 10.59375 35.5 
L 73.1875 35.5 
L 73.1875 27.203125 
L 10.59375 27.203125 
z
" id="DejaVuSans-8722"/>
        <path d="M 10.796875 72.90625 
L 49.515625 72.90625 
L 49.515625 64.59375 
L 19.828125 64.59375 
L 19.828125 46.734375 
Q 21.96875 47.46875 24.109375 47.828125 
Q 26.265625 48.1875 28.421875 48.1875 
Q 40.625 48.1875 47.75 41.5 
Q 54.890625 34.8125 54.890625 23.390625 
Q 54.890625 11.625 47.5625 5.09375 
Q 40.234375 -1.421875 26.90625 -1.421875 
Q 22.3125 -1.421875 17.546875 -0.640625 
Q 12.796875 0.140625 7.71875 1.703125 
L 7.71875 11.625 
Q 12.109375 9.234375 16.796875 8.0625 
Q 21.484375 6.890625 26.703125 6.890625 
Q 35.15625 6.890625 40.078125 11.328125 
Q 45.015625 15.765625 45.015625 23.390625 
Q 45.015625 31 40.078125 35.4375 
Q 35.15625 39.890625 26.703125 39.890625 
Q 22.75 39.890625 18.8125 39.015625 
Q 14.890625 38.140625 10.796875 36.28125 
z
" id="DejaVuSans-53"/>
        <path d="M 31.78125 66.40625 
Q 24.171875 66.40625 20.328125 58.90625 
Q 16.5 51.421875 16.5 36.375 
Q 16.5 21.390625 20.328125 13.890625 
Q 24.171875 6.390625 31.78125 6.390625 
Q 39.453125 6.390625 43.28125 13.890625 
Q 47.125 21.390625 47.125 36.375 
Q 47.125 51.421875 43.28125 58.90625 
Q 39.453125 66.40625 31.78125 66.40625 
z
M 31.78125 74.21875 
Q 44.046875 74.21875 50.515625 64.515625 
Q 56.984375 54.828125 56.984375 36.375 
Q 56.984375 17.96875 50.515625 8.265625 
Q 44.046875 -1.421875 31.78125 -1.421875 
Q 19.53125 -1.421875 13.0625 8.265625 
Q 6.59375 17.96875 6.59375 36.375 
Q 6.59375 54.828125 13.0625 64.515625 
Q 19.53125 74.21875 31.78125 74.21875 
z
" id="DejaVuSans-48"/>
       </defs>
       <use xlink:href="#DejaVuSans-8722"/>
       <use x="83.789062" xlink:href="#DejaVuSans-53"/>
       <use x="147.412109" xlink:href="#DejaVuSans-48"/>
      </g>
     </g>
    </g>
    <g id="ytick_2">
     <g id="line2d_7">
      <g>
       <use style="stroke:#000000;stroke-width:0.8;" x="48.982813" xlink:href="#m914f33714a" y="430.018125"/>
      </g>
     </g>
     <g id="text_8">
      <!-- −25 -->
      <g transform="translate(20.878125 433.817344)scale(0.1 -0.1)">
       <defs>
        <path d="M 19.1875 8.296875 
L 53.609375 8.296875 
L 53.609375 0 
L 7.328125 0 
L 7.328125 8.296875 
Q 12.9375 14.109375 22.625 23.890625 
Q 32.328125 33.6875 34.8125 36.53125 
Q 39.546875 41.84375 41.421875 45.53125 
Q 43.3125 49.21875 43.3125 52.78125 
Q 43.3125 58.59375 39.234375 62.25 
Q 35.15625 65.921875 28.609375 65.921875 
Q 23.96875 65.921875 18.8125 64.3125 
Q 13.671875 62.703125 7.8125 59.421875 
L 7.8125 69.390625 
Q 13.765625 71.78125 18.9375 73 
Q 24.125 74.21875 28.421875 74.21875 
Q 39.75 74.21875 46.484375 68.546875 
Q 53.21875 62.890625 53.21875 53.421875 
Q 53.21875 48.921875 51.53125 44.890625 
Q 49.859375 40.875 45.40625 35.40625 
Q 44.1875 33.984375 37.640625 27.21875 
Q 31.109375 20.453125 19.1875 8.296875 
z
" id="DejaVuSans-50"/>
       </defs>
       <use xlink:href="#DejaVuSans-8722"/>
       <use x="83.789062" xlink:href="#DejaVuSans-50"/>
       <use x="147.412109" xlink:href="#DejaVuSans-53"/>
      </g>
     </g>
    </g>
    <g id="ytick_3">
     <g id="line2d_8">
      <g>
       <use style="stroke:#000000;stroke-width:0.8;" x="48.982813" xlink:href="#m914f33714a" y="294.118125"/>
      </g>
     </g>
     <g id="text_9">
      <!-- 0 -->
      <g transform="translate(35.620313 297.917344)scale(0.1 -0.1)">
       <use xlink:href="#DejaVuSans-48"/>
      </g>
     </g>
    </g>
    <g id="ytick_4">
     <g id="line2d_9">
      <g>
       <use style="stroke:#000000;stroke-width:0.8;" x="48.982813" xlink:href="#m914f33714a" y="158.218125"/>
      </g>
     </g>
     <g id="text_10">
      <!-- 25 -->
      <g transform="translate(29.257813 162.017344)scale(0.1 -0.1)">
       <use xlink:href="#DejaVuSans-50"/>
       <use x="63.623047" xlink:href="#DejaVuSans-53"/>
      </g>
     </g>
    </g>
    <g id="ytick_5">
     <g id="line2d_10">
      <g>
       <use style="stroke:#000000;stroke-width:0.8;" x="48.982813" xlink:href="#m914f33714a" y="22.318125"/>
      </g>
     </g>
     <g id="text_11">
      <!-- 50 -->
      <g transform="translate(29.257813 26.117344)scale(0.1 -0.1)">
       <use xlink:href="#DejaVuSans-53"/>
       <use x="63.623047" xlink:href="#DejaVuSans-48"/>
      </g>
     </g>
    </g>
    <g id="text_12">
     <!-- Wartości -->
     <g transform="translate(14.798438 315.625156)rotate(-90)scale(0.1 -0.1)">
      <defs>
       <path d="M 3.328125 72.90625 
L 13.28125 72.90625 
L 28.609375 11.28125 
L 43.890625 72.90625 
L 54.984375 72.90625 
L 70.3125 11.28125 
L 85.59375 72.90625 
L 95.609375 72.90625 
L 77.296875 0 
L 64.890625 0 
L 49.515625 63.28125 
L 33.984375 0 
L 21.578125 0 
z
" id="DejaVuSans-87"/>
       <path d="M 34.28125 27.484375 
Q 23.390625 27.484375 19.1875 25 
Q 14.984375 22.515625 14.984375 16.5 
Q 14.984375 11.71875 18.140625 8.90625 
Q 21.296875 6.109375 26.703125 6.109375 
Q 34.1875 6.109375 38.703125 11.40625 
Q 43.21875 16.703125 43.21875 25.484375 
L 43.21875 27.484375 
z
M 52.203125 31.203125 
L 52.203125 0 
L 43.21875 0 
L 43.21875 8.296875 
Q 40.140625 3.328125 35.546875 0.953125 
Q 30.953125 -1.421875 24.3125 -1.421875 
Q 15.921875 -1.421875 10.953125 3.296875 
Q 6 8.015625 6 15.921875 
Q 6 25.140625 12.171875 29.828125 
Q 18.359375 34.515625 30.609375 34.515625 
L 43.21875 34.515625 
L 43.21875 35.40625 
Q 43.21875 41.609375 39.140625 45 
Q 35.0625 48.390625 27.6875 48.390625 
Q 23 48.390625 18.546875 47.265625 
Q 14.109375 46.140625 10.015625 43.890625 
L 10.015625 52.203125 
Q 14.9375 54.109375 19.578125 55.046875 
Q 24.21875 56 28.609375 56 
Q 40.484375 56 46.34375 49.84375 
Q 52.203125 43.703125 52.203125 31.203125 
z
" id="DejaVuSans-97"/>
       <path d="M 35.015625 80.328125 
L 44.734375 80.328125 
L 28.8125 61.96875 
L 21.34375 61.96875 
z
M 44.28125 53.078125 
L 44.28125 44.578125 
Q 40.484375 46.53125 36.375 47.5 
Q 32.28125 48.484375 27.875 48.484375 
Q 21.1875 48.484375 17.84375 46.4375 
Q 14.5 44.390625 14.5 40.28125 
Q 14.5 37.15625 16.890625 35.375 
Q 19.28125 33.59375 26.515625 31.984375 
L 29.59375 31.296875 
Q 39.15625 29.25 43.1875 25.515625 
Q 47.21875 21.78125 47.21875 15.09375 
Q 47.21875 7.46875 41.1875 3.015625 
Q 35.15625 -1.421875 24.609375 -1.421875 
Q 20.21875 -1.421875 15.453125 -0.5625 
Q 10.6875 0.296875 5.421875 2 
L 5.421875 11.28125 
Q 10.40625 8.6875 15.234375 7.390625 
Q 20.0625 6.109375 24.8125 6.109375 
Q 31.15625 6.109375 34.5625 8.28125 
Q 37.984375 10.453125 37.984375 14.40625 
Q 37.984375 18.0625 35.515625 20.015625 
Q 33.0625 21.96875 24.703125 23.78125 
L 21.578125 24.515625 
Q 13.234375 26.265625 9.515625 29.90625 
Q 5.8125 33.546875 5.8125 39.890625 
Q 5.8125 47.609375 11.28125 51.796875 
Q 16.75 56 26.8125 56 
Q 31.78125 56 36.171875 55.265625 
Q 40.578125 54.546875 44.28125 53.078125 
z
" id="DejaVuSans-347"/>
       <path d="M 48.78125 52.59375 
L 48.78125 44.1875 
Q 44.96875 46.296875 41.140625 47.34375 
Q 37.3125 48.390625 33.40625 48.390625 
Q 24.65625 48.390625 19.8125 42.84375 
Q 14.984375 37.3125 14.984375 27.296875 
Q 14.984375 17.28125 19.8125 11.734375 
Q 24.65625 6.203125 33.40625 6.203125 
Q 37.3125 6.203125 41.140625 7.25 
Q 44.96875 8.296875 48.78125 10.40625 
L 48.78125 2.09375 
Q 45.015625 0.34375 40.984375 -0.53125 
Q 36.96875 -1.421875 32.421875 -1.421875 
Q 20.0625 -1.421875 12.78125 6.34375 
Q 5.515625 14.109375 5.515625 27.296875 
Q 5.515625 40.671875 12.859375 48.328125 
Q 20.21875 56 33.015625 56 
Q 37.15625 56 41.109375 55.140625 
Q 45.0625 54.296875 48.78125 52.59375 
z
" id="DejaVuSans-99"/>
      </defs>
      <use xlink:href="#DejaVuSans-87"/>
      <use x="92.501953" xlink:href="#DejaVuSans-97"/>
      <use x="153.78125" xlink:href="#DejaVuSans-114"/>
      <use x="194.894531" xlink:href="#DejaVuSans-116"/>
      <use x="234.103516" xlink:href="#DejaVuSans-111"/>
      <use x="295.285156" xlink:href="#DejaVuSans-347"/>
      <use x="347.384766" xlink:href="#DejaVuSans-99"/>
      <use x="402.365234" xlink:href="#DejaVuSans-105"/>
     </g>
    </g>
   </g>
   <g id="line2d_11">
    <path clip-path="url(#p5117ee90fb)" d="M 99.710085 287.689013 
L 100.725646 285.104573 
L 101.741207 285.323182 
L 102.756768 284.106048 
L 103.772329 278.507388 
L 104.78789 285.026833 
L 105.803451 276.317214 
L 106.819012 274.422997 
L 107.834573 275.459129 
L 108.850134 275.878611 
L 109.865695 270.659694 
L 110.881256 273.09779 
L 111.896817 268.883201 
L 112.912378 272.438531 
L 113.927939 266.371085 
L 114.9435 265.733815 
L 115.959061 273.106145 
L 116.974622 267.555527 
L 117.990184 268.400199 
L 119.005745 262.973672 
L 120.021306 268.482353 
L 121.036867 265.99499 
L 122.052428 265.4448 
L 123.067989 257.570599 
L 124.08355 253.414851 
L 125.099111 254.66517 
L 126.114672 261.199923 
L 127.130233 268.955984 
L 128.145794 269.593912 
L 129.161355 269.285736 
L 130.176916 271.488176 
L 131.192477 262.848321 
L 132.208038 260.152554 
L 133.223599 253.907632 
L 134.23916 252.311938 
L 135.254721 249.381204 
L 136.270282 250.719646 
L 137.285843 247.06916 
L 138.301404 240.978088 
L 139.316965 247.597527 
L 140.332526 245.493265 
L 141.348087 246.114433 
L 142.363648 241.961476 
L 143.379209 239.898838 
L 144.39477 233.872309 
L 145.410331 236.215159 
L 146.425892 243.791792 
L 147.441453 234.427065 
L 148.457014 236.948041 
L 149.472575 240.124727 
L 150.488136 242.64641 
L 151.503697 248.268436 
L 152.519258 259.629016 
L 153.534819 266.939545 
L 154.55038 267.143944 
L 155.565941 278.77875 
L 156.581502 287.928903 
L 157.597063 278.843812 
L 158.612624 280.040883 
L 159.628185 279.266463 
L 160.643746 282.623831 
L 161.659307 283.441061 
L 162.674868 281.289403 
L 163.690429 278.513307 
L 164.70599 273.529057 
L 165.721551 283.33375 
L 166.737112 282.343928 
L 167.752673 288.223621 
L 168.768234 289.046141 
L 169.783795 288.402257 
L 171.814917 295.722641 
L 172.830478 299.941024 
L 173.846039 301.349084 
L 174.8616 309.852069 
L 175.877161 312.404806 
L 176.892722 306.37512 
L 177.908283 305.613163 
L 178.923844 294.827555 
L 179.939405 289.597007 
L 180.954966 281.358929 
L 181.970527 282.821098 
L 182.986089 292.385771 
L 184.00165 290.651531 
L 185.017211 289.780731 
L 186.032772 301.922915 
L 187.048333 295.394196 
L 188.063894 298.511384 
L 189.079455 297.34896 
L 190.095016 301.852805 
L 191.110577 307.912413 
L 192.126138 313.019168 
L 193.141699 316.429642 
L 194.15726 317.08402 
L 195.172821 320.210583 
L 196.188382 307.675805 
L 197.203943 308.07434 
L 198.219504 300.018483 
L 199.235065 303.371234 
L 200.250626 298.241419 
L 201.266187 299.130352 
L 202.281748 305.27235 
L 203.297309 295.316481 
L 204.31287 302.655615 
L 205.328431 300.546529 
L 206.343992 308.783863 
L 207.359553 305.879341 
L 208.375114 307.146396 
L 209.390675 305.004028 
L 210.406236 313.331602 
L 211.421797 315.420145 
L 212.437358 316.423461 
L 213.452919 312.648096 
L 214.46848 309.758563 
L 215.484041 306.506576 
L 216.499602 299.819113 
L 217.515163 316.532052 
L 218.530724 314.293673 
L 219.546285 320.151865 
L 220.561846 319.992467 
L 221.577407 325.116066 
L 222.592968 334.429701 
L 223.608529 337.314907 
L 224.62409 339.710517 
L 225.639651 339.824976 
L 226.655212 342.663494 
L 227.670773 346.729558 
L 228.686334 354.389503 
L 229.701895 348.618232 
L 230.717456 352.309275 
L 231.733017 356.589879 
L 232.748578 353.660962 
L 233.764139 350.016794 
L 234.7797 350.40879 
L 235.795261 345.802012 
L 236.810822 343.93775 
L 237.826383 346.923051 
L 238.841944 347.514724 
L 239.857505 349.68585 
L 240.873066 350.486973 
L 241.888627 343.44967 
L 242.904188 341.066331 
L 243.919749 345.327623 
L 244.93531 345.389666 
L 245.950871 352.953885 
L 246.966432 356.609009 
L 247.981993 351.121089 
L 248.997555 355.89003 
L 250.013116 367.161954 
L 251.028677 368.940416 
L 252.044238 367.082172 
L 253.059799 360.155482 
L 254.07536 362.607611 
L 255.090921 362.29279 
L 256.106482 366.719855 
L 258.137604 346.511411 
L 259.153165 349.376204 
L 260.168726 347.551572 
L 261.184287 355.479086 
L 262.199848 348.294468 
L 263.215409 350.090165 
L 264.23097 339.50955 
L 265.246531 340.449578 
L 266.262092 347.137421 
L 267.277653 330.076417 
L 269.308775 325.353901 
L 270.324336 324.222906 
L 271.339897 328.114953 
L 272.355458 328.19345 
L 273.371019 328.994266 
L 274.38658 327.957797 
L 275.402141 323.264538 
L 276.417702 323.374668 
L 277.433263 330.291882 
L 278.448824 333.432395 
L 279.464385 331.744412 
L 280.479946 328.066197 
L 281.495507 323.432427 
L 282.511068 330.35409 
L 283.526629 332.074377 
L 284.54219 327.62823 
L 285.557751 331.543139 
L 286.573312 324.506704 
L 287.588873 334.61834 
L 288.604434 335.602361 
L 289.619995 345.672775 
L 290.635556 352.392895 
L 291.651117 354.13673 
L 292.666678 354.798968 
L 293.682239 344.596373 
L 294.6978 339.002513 
L 295.713361 334.636135 
L 296.728922 334.548435 
L 297.744483 332.530063 
L 298.760044 323.633865 
L 299.775605 322.145754 
L 300.791166 314.491698 
L 301.806727 315.196425 
L 302.822288 313.414758 
L 303.837849 315.783878 
L 304.85341 305.998641 
L 305.868971 306.489133 
L 306.884532 294.982622 
L 307.900093 294.059602 
L 308.915654 295.050529 
L 309.931215 298.773434 
L 310.946776 301.084847 
L 311.962337 293.080155 
L 312.977898 294.945064 
L 313.99346 284.701762 
L 315.009021 291.120524 
L 316.024582 291.994196 
L 317.040143 289.721765 
L 318.055704 290.793566 
L 319.071265 280.032968 
L 320.086826 280.321666 
L 321.102387 283.777427 
L 322.117948 282.229776 
L 324.14907 282.648832 
L 325.164631 280.501157 
L 326.180192 288.592589 
L 327.195753 282.725455 
L 328.211314 280.844322 
L 329.226875 280.800266 
L 330.242436 288.503619 
L 331.257997 292.886748 
L 333.289119 290.552969 
L 334.30468 297.830491 
L 335.320241 300.092719 
L 336.335802 299.613953 
L 337.351363 294.582631 
L 338.366924 304.856421 
L 339.382485 301.191313 
L 340.398046 300.162679 
L 341.413607 295.455625 
L 342.429168 297.840372 
L 343.444729 299.499283 
L 344.46029 302.570333 
L 345.475851 299.80531 
L 346.491412 301.570699 
L 347.506973 297.787351 
L 348.522534 297.228535 
L 349.538095 296.180061 
L 350.553656 289.758119 
L 351.569217 301.148326 
L 352.584778 299.481158 
L 353.600339 294.236898 
L 354.6159 296.473269 
L 356.647022 291.933125 
L 357.662583 301.249759 
L 358.678144 296.87045 
L 359.693705 297.992673 
L 360.709266 288.455086 
L 361.724827 282.430177 
L 362.740388 281.480113 
L 363.755949 275.570513 
L 364.77151 275.2672 
L 365.787071 264.154597 
L 366.802632 269.789513 
L 367.818193 265.44114 
L 368.833754 269.327497 
L 369.849315 263.257305 
L 370.864876 270.668462 
L 371.880437 264.565772 
L 372.895998 267.109603 
L 373.911559 267.621378 
L 374.92712 261.726163 
L 375.942681 268.243843 
L 376.958242 270.088435 
L 377.973803 280.692089 
L 378.989365 275.532137 
L 380.004926 277.223144 
L 381.020487 279.505047 
L 382.036048 288.367082 
L 383.051609 292.052764 
L 384.06717 291.841315 
L 385.082731 290.497907 
L 386.098292 293.16511 
L 387.113853 300.142519 
L 388.129414 300.664423 
L 389.144975 298.975582 
L 390.160536 300.141338 
L 391.176097 297.837795 
L 392.191658 294.149694 
L 393.207219 292.571387 
L 394.22278 299.083088 
L 396.253902 303.163792 
L 397.269463 295.226278 
L 398.285024 289.307449 
L 399.300585 282.641947 
L 400.316146 276.771987 
L 401.331707 284.385306 
L 402.347268 283.187489 
L 403.362829 289.893142 
L 404.37839 283.63409 
L 405.393951 293.500497 
L 406.409512 306.757619 
L 407.425073 311.099263 
L 408.440634 307.464293 
L 409.456195 316.786771 
L 410.471756 314.444097 
L 411.487317 318.55665 
L 412.502878 328.108187 
L 413.518439 318.369638 
L 414.534 313.338334 
L 415.549561 305.049588 
L 416.565122 302.311447 
L 417.580683 288.941572 
L 418.596244 295.832896 
L 419.611805 293.86945 
L 420.627366 280.536557 
L 421.642927 281.195218 
L 422.658488 284.646311 
L 423.674049 293.277285 
L 425.705171 297.104935 
L 426.720732 303.057297 
L 427.736293 299.590292 
L 428.751854 307.821422 
L 429.767415 310.869477 
L 430.782976 306.744289 
L 431.798537 306.751302 
L 432.814098 314.82001 
L 433.829659 323.884168 
L 434.84522 318.833143 
L 435.860781 317.11621 
L 436.876342 311.774132 
L 437.891903 316.660207 
L 438.907464 315.180645 
L 439.923025 318.160448 
L 440.938586 312.71563 
L 441.954147 309.881341 
L 442.969708 304.285672 
L 443.98527 299.378399 
L 445.000831 290.943771 
L 446.016392 295.706378 
L 447.031953 288.472926 
L 448.047514 287.531476 
L 450.078636 287.952503 
L 451.094197 288.271404 
L 452.109758 285.930657 
L 453.125319 291.162416 
L 454.14088 281.456491 
L 455.156441 279.82062 
L 456.172002 282.884045 
L 457.187563 290.813375 
L 458.203124 286.088347 
L 459.218685 293.10499 
L 460.234246 296.694815 
L 461.249807 294.174527 
L 462.265368 296.029682 
L 463.280929 302.054539 
L 464.29649 289.176297 
L 465.312051 294.139273 
L 466.327612 299.876954 
L 467.343173 299.876306 
L 468.358734 296.576525 
L 469.374295 298.518285 
L 470.389856 305.414349 
L 471.405417 303.936294 
L 472.420978 309.035259 
L 473.436539 302.859625 
L 474.4521 293.937628 
L 475.467661 287.07997 
L 476.483222 282.114442 
L 478.514344 288.700522 
L 479.529905 284.8931 
L 480.545466 275.007975 
L 481.561027 280.003857 
L 482.576588 284.213153 
L 483.592149 278.297986 
L 484.60771 281.232521 
L 485.623271 281.758462 
L 486.638832 283.214858 
L 487.654393 279.393482 
L 488.669954 284.401063 
L 489.685515 281.653139 
L 490.701076 280.982285 
L 492.732198 284.972612 
L 493.747759 286.8889 
L 494.76332 284.293725 
L 495.778881 283.733275 
L 496.794442 277.358627 
L 497.810003 287.214278 
L 498.825564 286.341799 
L 499.841125 288.468457 
L 500.856686 285.601973 
L 501.872247 287.576243 
L 502.887808 293.698585 
L 503.903369 290.213249 
L 504.91893 293.369789 
L 505.934491 279.285642 
L 506.950052 273.272984 
L 507.965613 278.350321 
L 508.981174 270.298623 
L 509.996736 271.666531 
L 511.012297 267.478895 
L 512.027858 267.702248 
L 513.043419 278.0041 
L 514.05898 276.570615 
L 515.074541 286.436638 
L 516.090102 286.318066 
L 517.105663 289.25029 
L 518.121224 288.248283 
L 519.136785 290.348123 
L 520.152346 288.38353 
L 521.167907 287.630071 
L 522.183468 287.48985 
L 523.199029 280.982141 
L 524.21459 268.681109 
L 525.230151 258.714327 
L 526.245712 251.543363 
L 527.261273 248.937687 
L 528.276834 251.759728 
L 529.292395 252.937137 
L 530.307956 242.810767 
L 531.323517 250.564086 
L 532.339078 252.790824 
L 533.354639 253.638803 
L 534.3702 252.334785 
L 535.385761 247.63967 
L 536.401322 245.857365 
L 537.416883 250.669097 
L 538.432444 243.725742 
L 539.448005 243.566227 
L 540.463566 237.207212 
L 541.479127 238.458041 
L 542.494688 240.175659 
L 543.510249 239.847133 
L 544.52581 249.655477 
L 545.541371 252.159686 
L 546.556932 252.583032 
L 547.572493 257.313745 
L 548.588054 259.263808 
L 549.603615 256.359278 
L 550.619176 265.691711 
L 551.634737 261.034627 
L 553.665859 257.06436 
L 554.68142 257.803819 
L 555.696981 257.385041 
L 556.712542 258.481739 
L 557.728103 254.420055 
L 558.743664 255.687753 
L 559.759225 249.075591 
L 560.774786 254.306631 
L 561.790347 258.394932 
L 562.805908 260.315875 
L 563.821469 266.380937 
L 564.83703 268.902367 
L 565.852591 275.820951 
L 566.868152 271.151065 
L 567.883713 271.005014 
L 568.899274 272.90782 
L 569.914835 277.554039 
L 570.930396 279.484303 
L 571.945957 280.854201 
L 572.961518 279.94448 
L 573.977079 291.739936 
L 574.992641 292.355614 
L 576.008202 292.677758 
L 577.023763 293.577592 
L 578.039324 286.274551 
L 579.054885 284.835291 
L 580.070446 279.742167 
L 581.086007 286.386378 
L 582.101568 278.17075 
L 583.117129 276.96083 
L 584.13269 281.079792 
L 585.148251 281.062643 
L 586.163812 288.340417 
L 587.179373 290.760139 
L 588.194934 302.13652 
L 589.210495 308.724126 
L 590.226056 316.061537 
L 591.241617 315.37183 
L 592.257178 315.955137 
L 593.272739 313.497352 
L 594.2883 310.375537 
L 595.303861 307.863828 
L 596.319422 309.591293 
L 597.334983 316.843379 
L 598.350544 318.596855 
L 599.366105 305.05071 
L 600.381666 303.184317 
L 601.397227 298.929471 
L 602.412788 314.172779 
L 603.428349 317.088409 
L 604.44391 320.78645 
L 605.459471 320.743341 
L 606.475032 319.839803 
L 607.490593 315.486778 
L 608.506154 309.462034 
L 609.521715 318.98718 
L 610.537276 323.898484 
L 611.552837 322.649371 
L 612.568398 321.169233 
L 613.583959 322.371804 
L 614.59952 319.173981 
L 615.615081 320.759006 
L 616.630642 322.583805 
L 617.646203 316.436293 
L 619.677325 307.565412 
L 620.692886 305.181809 
L 621.708447 305.469965 
L 622.724008 319.588994 
L 623.739569 310.227559 
L 624.75513 310.9855 
L 625.770691 309.382276 
L 626.786252 301.807827 
L 627.801813 302.665772 
L 628.817374 301.793771 
L 629.832935 298.454287 
L 630.848496 300.384022 
L 631.864057 296.347774 
L 632.879618 297.28741 
L 633.895179 292.954055 
L 634.91074 302.400203 
L 635.926301 300.240678 
L 636.941862 300.92748 
L 637.957423 307.693673 
L 638.972984 301.425896 
L 639.988546 313.883806 
L 641.004107 316.910398 
L 642.019668 319.132193 
L 643.035229 316.270499 
L 644.05079 318.635255 
L 645.066351 309.297635 
L 646.081912 310.200905 
L 647.097473 306.307167 
L 648.113034 306.469026 
L 649.128595 318.092705 
L 650.144156 323.01986 
L 651.159717 310.666169 
L 652.175278 314.065883 
L 653.190839 313.202839 
L 654.2064 298.401272 
L 655.221961 300.157369 
L 656.237522 309.936868 
L 657.253083 318.274438 
L 658.268644 318.173756 
L 659.284205 318.222782 
L 660.299766 319.789347 
L 661.315327 311.907005 
L 662.330888 309.456015 
L 663.346449 310.70176 
L 664.36201 307.471223 
L 665.377571 308.29372 
L 666.393132 308.375606 
L 667.408693 305.519056 
L 668.424254 306.98039 
L 669.439815 308.645272 
L 670.455376 305.098308 
L 671.470937 307.906449 
L 672.486498 301.938388 
L 673.502059 302.040695 
L 674.51762 300.717981 
L 676.548742 297.103216 
L 677.564303 301.159944 
L 678.579864 309.970588 
L 679.595425 304.383535 
L 680.610986 314.659443 
L 681.626547 312.823842 
L 682.642108 313.136667 
L 683.657669 303.324414 
L 684.67323 297.405998 
L 685.688791 300.499933 
L 686.704352 301.082311 
L 687.719913 300.32553 
L 688.735474 305.568229 
L 689.751035 303.162817 
L 691.782157 297.540759 
L 692.797718 298.53377 
L 693.813279 305.036766 
L 694.82884 303.490711 
L 695.844401 304.237082 
L 696.859962 312.201499 
L 697.875523 314.26458 
L 698.891084 321.670885 
L 699.906645 316.974085 
L 700.922206 322.677671 
L 701.937767 322.195743 
L 702.953328 323.672976 
L 703.968889 326.546761 
L 704.984451 337.813468 
L 706.000012 335.204139 
L 707.015573 333.271967 
L 708.031134 330.682533 
L 709.046695 331.263857 
L 711.077817 314.495091 
L 712.093378 313.472616 
L 713.108939 305.629824 
L 714.1245 311.933614 
L 715.140061 324.239811 
L 716.155622 321.821814 
L 717.171183 315.834034 
L 718.186744 313.300005 
L 719.202305 320.450708 
L 720.217866 326.382459 
L 721.233427 333.954053 
L 722.248988 336.029732 
L 723.264549 340.903388 
L 724.28011 336.537222 
L 725.295671 330.032758 
L 726.311232 330.242105 
L 727.326793 334.295731 
L 728.342354 328.163373 
L 729.357915 313.769767 
L 730.373476 319.000068 
L 731.389037 314.928056 
L 732.404598 319.365145 
L 733.420159 321.599703 
L 734.43572 329.666853 
L 735.451281 334.510364 
L 736.466842 330.890104 
L 737.482403 331.836784 
L 738.497964 337.242367 
L 739.513525 341.491866 
L 740.529086 341.284605 
L 741.544647 335.169049 
L 742.560208 336.62616 
L 743.575769 336.50524 
L 744.59133 333.049529 
L 745.606891 331.584996 
L 746.622452 332.681009 
L 747.638013 333.453108 
L 748.653574 333.207045 
L 749.669135 334.653847 
L 750.684696 334.637066 
L 751.700257 326.808326 
L 752.715818 330.126174 
L 753.731379 335.499179 
L 754.74694 333.89526 
L 755.762501 327.567141 
L 756.778062 331.837399 
L 757.793623 339.521192 
L 758.809184 341.472379 
L 759.824745 349.471697 
L 760.840306 345.470794 
L 762.871428 326.174147 
L 763.886989 325.612498 
L 764.90255 337.552291 
L 765.918111 325.863674 
L 766.933672 328.785639 
L 767.949233 329.386185 
L 768.964794 335.635868 
L 769.980355 336.690581 
L 770.995917 340.140764 
L 772.011478 334.921092 
L 773.027039 341.711921 
L 774.0426 334.601944 
L 775.058161 333.349318 
L 776.073722 339.195526 
L 777.089283 341.866871 
L 778.104844 337.467817 
L 779.120405 336.487767 
L 780.135966 336.86383 
L 781.151527 332.071964 
L 782.167088 339.127477 
L 783.182649 333.15379 
L 784.19821 330.787862 
L 785.213771 331.04914 
L 786.229332 324.651218 
L 787.244893 324.840366 
L 788.260454 331.351137 
L 789.276015 324.502748 
L 790.291576 327.211692 
L 791.307137 331.217487 
L 792.322698 328.680021 
L 793.338259 332.991302 
L 794.35382 326.254523 
L 796.384942 340.320755 
L 797.400503 346.832304 
L 798.416064 347.681193 
L 799.431625 343.425279 
L 801.462747 354.647412 
L 802.478308 367.864842 
L 803.493869 365.218156 
L 804.50943 353.898842 
L 805.524991 350.403383 
L 806.540552 348.430171 
L 807.556113 351.474074 
L 808.571674 350.020514 
L 809.587235 349.972892 
L 810.602796 340.374905 
L 811.618357 339.179405 
L 812.633918 345.118418 
L 813.649479 352.324377 
L 814.66504 360.583604 
L 815.680601 363.83859 
L 816.696162 359.687461 
L 817.711723 365.638977 
L 818.727284 366.381759 
L 819.742845 365.414248 
L 820.758406 357.745755 
L 821.773967 366.346943 
L 822.789528 372.893529 
L 823.805089 373.705468 
L 825.836211 377.800443 
L 826.851772 373.653009 
L 827.867333 371.068972 
L 828.882894 372.122452 
L 829.898455 376.725129 
L 830.914016 382.080124 
L 831.929577 374.304627 
L 832.945138 374.797534 
L 833.960699 377.186232 
L 834.97626 370.878169 
L 835.991822 366.059983 
L 837.007383 365.727467 
L 839.038505 345.525486 
L 840.054066 347.904672 
L 841.069627 346.095556 
L 843.100749 335.921618 
L 844.11631 324.102789 
L 845.131871 330.46456 
L 846.147432 331.286563 
L 847.162993 329.297586 
L 848.178554 339.87958 
L 849.194115 327.88246 
L 850.209676 319.001667 
L 851.225237 328.46057 
L 852.240798 329.504087 
L 853.256359 337.021788 
L 854.27192 324.084326 
L 855.287481 326.245017 
L 856.303042 318.7296 
L 857.318603 312.544669 
L 858.334164 318.664556 
L 860.365286 315.822754 
L 861.380847 309.813929 
L 862.396408 303.037817 
L 863.411969 308.927299 
L 864.42753 298.698321 
L 865.443091 295.936805 
L 866.458652 296.639516 
L 867.474213 303.366587 
L 868.489774 303.05759 
L 869.505335 301.954812 
L 870.520896 299.147211 
L 871.536457 305.049016 
L 872.552018 302.93699 
L 873.567579 299.715802 
L 874.58314 299.130862 
L 875.598701 313.821533 
L 876.614262 309.458414 
L 877.629823 319.716638 
L 878.645384 310.043194 
L 879.660945 307.988143 
L 880.676506 296.727181 
L 881.692067 292.273801 
L 882.707628 293.56517 
L 883.723189 294.229948 
L 884.73875 301.515547 
L 885.754311 295.57951 
L 886.769872 301.069287 
L 887.785433 302.388821 
L 888.800994 303.948274 
L 889.816555 302.427651 
L 890.832116 297.150259 
L 891.847677 302.114266 
L 892.863238 302.817634 
L 893.878799 300.691086 
L 895.909921 305.157366 
L 896.925482 301.598368 
L 897.941043 302.508803 
L 898.956604 304.723096 
L 899.972165 295.140389 
L 900.987727 300.81003 
L 902.003288 290.137499 
L 903.018849 296.158733 
L 904.03441 298.221635 
L 905.049971 294.242032 
L 906.065532 295.471493 
L 907.081093 292.692289 
L 908.096654 291.972049 
L 909.112215 294.687664 
L 910.127776 302.744711 
L 911.143337 302.484831 
L 912.158898 297.870059 
L 913.174459 300.859103 
L 914.19002 301.234026 
L 915.205581 312.794491 
L 916.221142 313.60123 
L 917.236703 307.046701 
L 918.252264 305.561379 
L 919.267825 300.3544 
L 920.283386 302.211941 
L 921.298947 310.75215 
L 922.314508 320.825559 
L 923.330069 323.631957 
L 924.34563 325.331252 
L 925.361191 322.100254 
L 926.376752 328.166811 
L 927.392313 327.207622 
L 928.407874 322.935045 
L 929.423435 322.042483 
L 930.438996 326.246397 
L 931.454557 332.073545 
L 932.470118 335.140299 
L 933.485679 343.206425 
L 934.50124 347.760962 
L 935.516801 346.19023 
L 936.532362 337.475855 
L 937.547923 338.67834 
L 938.563484 339.580654 
L 939.579045 346.69623 
L 940.594606 347.321639 
L 941.610167 349.002809 
L 942.625728 344.17232 
L 943.641289 336.310192 
L 944.65685 331.909465 
L 945.672411 326.412485 
L 946.687972 329.126716 
L 947.703533 336.124548 
L 948.719094 324.15604 
L 949.734655 327.404084 
L 950.750216 337.275947 
L 951.765777 335.378392 
L 952.781338 333.197102 
L 953.796899 335.57257 
L 954.81246 337.368522 
L 955.828021 339.561184 
L 956.843582 340.128429 
L 958.874704 352.988772 
L 959.890265 353.922565 
L 960.905826 358.195202 
L 961.921387 363.677197 
L 962.936948 366.761198 
L 963.952509 367.941899 
L 964.96807 371.298234 
L 965.983632 371.622976 
L 966.999193 372.362639 
L 968.014754 371.924023 
L 969.030315 371.817653 
L 970.045876 367.347214 
L 971.061437 373.147297 
L 972.076998 375.051629 
L 973.092559 383.377605 
L 974.10812 376.810555 
L 975.123681 380.314433 
L 976.139242 381.492139 
L 977.154803 372.912404 
L 978.170364 379.115707 
L 979.185925 381.809175 
L 980.201486 383.931748 
L 981.217047 380.772547 
L 982.232608 375.825688 
L 983.248169 372.542791 
L 984.26373 383.183165 
L 985.279291 380.252813 
L 986.294852 387.186732 
L 987.310413 393.003963 
L 988.325974 385.824549 
L 989.341535 384.927715 
L 990.357096 381.123464 
L 991.372657 372.656657 
L 992.388218 373.822812 
L 993.403779 368.556724 
L 994.41934 369.098684 
L 995.434901 373.880133 
L 996.450462 379.645883 
L 997.466023 377.683111 
L 998.481584 381.141049 
L 999.497145 374.074465 
L 1000.512706 370.29081 
L 1001.528267 379.625159 
L 1002.543828 382.191964 
L 1003.559389 377.307809 
L 1004.57495 379.910761 
L 1005.590511 373.365648 
L 1006.606072 376.48666 
L 1007.621633 383.55126 
L 1008.637194 381.19382 
L 1009.652755 382.152288 
L 1010.668316 387.568849 
L 1011.683877 396.132489 
L 1012.699438 400.451402 
L 1013.714999 392.881968 
L 1014.73056 400.504426 
L 1015.746121 392.995525 
L 1016.761682 395.305116 
L 1017.777243 398.170796 
L 1018.792804 399.564741 
L 1019.808365 393.807981 
L 1020.823926 398.143865 
L 1021.839487 405.481854 
L 1022.855048 403.92749 
L 1023.870609 394.538156 
L 1024.88617 395.167281 
L 1025.901731 393.22235 
L 1026.917292 406.91942 
L 1027.932853 408.59909 
L 1028.948414 404.373385 
L 1029.963975 396.857365 
L 1030.979536 404.15481 
L 1031.995098 412.346832 
L 1033.010659 405.882855 
L 1034.02622 407.455316 
L 1035.041781 404.815378 
L 1036.057342 403.663429 
L 1037.072903 400.858684 
L 1038.088464 391.126895 
L 1039.104025 389.543256 
L 1040.119586 395.341749 
L 1042.150708 388.089342 
L 1043.166269 397.944265 
L 1044.18183 390.033259 
L 1045.197391 398.936295 
L 1046.212952 401.009707 
L 1047.228513 397.645779 
L 1048.244074 404.26337 
L 1050.275196 389.353918 
L 1051.290757 386.033109 
L 1052.306318 387.516246 
L 1053.321879 378.041648 
L 1054.33744 379.64005 
L 1055.353001 371.934496 
L 1056.368562 372.843996 
L 1057.384123 377.159579 
L 1058.399684 382.892308 
L 1059.415245 390.742591 
L 1060.430806 390.181182 
L 1061.446367 396.071265 
L 1062.461928 390.76402 
L 1063.477489 396.249577 
L 1064.49305 391.098222 
L 1065.508611 379.831933 
L 1066.524172 377.772267 
L 1067.539733 383.521715 
L 1068.555294 381.372747 
L 1069.570855 380.474847 
L 1072.617538 362.320958 
L 1073.633099 361.175842 
L 1074.64866 367.317382 
L 1075.664221 362.103292 
L 1077.695343 370.370511 
L 1078.710904 371.039453 
L 1079.726465 362.691529 
L 1080.742026 350.59767 
L 1081.757587 350.250686 
L 1082.773148 350.78371 
L 1083.788709 349.988693 
L 1084.80427 357.190545 
L 1085.819831 357.646862 
L 1086.835392 359.410766 
L 1087.850953 359.519345 
L 1088.866514 370.200478 
L 1089.882075 362.39506 
L 1090.897636 360.600238 
L 1091.913197 359.739993 
L 1092.928758 360.160108 
L 1093.944319 364.122421 
L 1094.95988 370.405822 
L 1095.975441 373.10176 
L 1096.991003 374.437614 
L 1098.006564 372.645445 
L 1099.022125 376.185562 
L 1100.037686 381.073299 
L 1101.053247 391.791216 
L 1102.068808 395.868504 
L 1103.084369 388.584109 
L 1104.09993 383.897679 
L 1105.115491 388.357151 
L 1106.131052 386.284399 
L 1107.146613 391.178281 
L 1108.162174 391.436198 
L 1110.193296 395.264685 
L 1111.208857 387.9849 
L 1112.224418 389.054304 
L 1113.239979 385.604212 
L 1114.25554 380.482672 
L 1114.25554 380.482672 
" style="fill:none;stroke:#1f77b4;stroke-linecap:square;stroke-width:1.5;"/>
   </g>
   <g id="patch_3">
    <path d="M 48.982813 565.918125 
L 48.982813 22.318125 
" style="fill:none;stroke:#000000;stroke-linecap:square;stroke-linejoin:miter;stroke-width:0.8;"/>
   </g>
   <g id="patch_4">
    <path d="M 1164.982812 565.918125 
L 1164.982812 22.318125 
" style="fill:none;stroke:#000000;stroke-linecap:square;stroke-linejoin:miter;stroke-width:0.8;"/>
   </g>
   <g id="patch_5">
    <path d="M 48.982813 565.918125 
L 1164.982812 565.918125 
" style="fill:none;stroke:#000000;stroke-linecap:square;stroke-linejoin:miter;stroke-width:0.8;"/>
   </g>
   <g id="patch_6">
    <path d="M 48.982813 22.318125 
L 1164.982812 22.318125 
" style="fill:none;stroke:#000000;stroke-linecap:square;stroke-linejoin:miter;stroke-width:0.8;"/>
   </g>
   <g id="text_13">
    <!-- Tytuł -->
    <g transform="translate(592.844375 16.318125)scale(0.12 -0.12)">
     <defs>
      <path d="M -0.296875 72.90625 
L 61.375 72.90625 
L 61.375 64.59375 
L 35.5 64.59375 
L 35.5 0 
L 25.59375 0 
L 25.59375 64.59375 
L -0.296875 64.59375 
z
" id="DejaVuSans-84"/>
      <path d="M 32.171875 -5.078125 
Q 28.375 -14.84375 24.75 -17.8125 
Q 21.140625 -20.796875 15.09375 -20.796875 
L 7.90625 -20.796875 
L 7.90625 -13.28125 
L 13.1875 -13.28125 
Q 16.890625 -13.28125 18.9375 -11.515625 
Q 21 -9.765625 23.484375 -3.21875 
L 25.09375 0.875 
L 2.984375 54.6875 
L 12.5 54.6875 
L 29.59375 11.921875 
L 46.6875 54.6875 
L 56.203125 54.6875 
z
" id="DejaVuSans-121"/>
      <path d="M 9.71875 75.984375 
L 18.703125 75.984375 
L 18.703125 46.578125 
L 24.8125 50.984375 
L 28.515625 45.796875 
L 18.703125 38.921875 
L 18.703125 0 
L 9.71875 0 
L 9.71875 32.515625 
L 3.71875 28.21875 
L 0.09375 33.40625 
L 9.71875 40.28125 
z
" id="DejaVuSans-322"/>
     </defs>
     <use xlink:href="#DejaVuSans-84"/>
     <use x="45.458984" xlink:href="#DejaVuSans-121"/>
     <use x="104.638672" xlink:href="#DejaVuSans-116"/>
     <use x="143.847656" xlink:href="#DejaVuSans-117"/>
     <use x="207.226562" xlink:href="#DejaVuSans-322"/>
    </g>
   </g>
  </g>
 </g>
 <defs>
  <clipPath id="p5117ee90fb">
   <rect height="543.6" width="1116" x="48.982813" y="22.318125"/>
  </clipPath>
 </defs>
</svg>
