<?xml version="1.0" encoding="utf-8" standalone="no"?>
<!DOCTYPE svg PUBLIC "-//W3C//DTD SVG 1.1//EN"
  "http://www.w3.org/Graphics/SVG/1.1/DTD/svg11.dtd">
<!-- Created with matplotlib (https://matplotlib.org/) -->
<svg height="604.07625pt" version="1.1" viewBox="0 0 1165.820313 604.07625" width="1165.820313pt" xmlns="http://www.w3.org/2000/svg" xmlns:xlink="http://www.w3.org/1999/xlink">
 <metadata>
  <rdf:RDF xmlns:cc="http://creativecommons.org/ns#" xmlns:dc="http://purl.org/dc/elements/1.1/" xmlns:rdf="http://www.w3.org/1999/02/22-rdf-syntax-ns#">
   <cc:Work>
    <dc:type rdf:resource="http://purl.org/dc/dcmitype/StillImage"/>
    <dc:date>2021-10-21T20:35:48.454686</dc:date>
    <dc:format>image/svg+xml</dc:format>
    <dc:creator>
     <cc:Agent>
      <dc:title>Matplotlib v3.3.4, https://matplotlib.org/</dc:title>
     </cc:Agent>
    </dc:creator>
   </cc:Work>
  </rdf:RDF>
 </metadata>
 <defs>
  <style type="text/css">*{stroke-linecap:butt;stroke-linejoin:round;}</style>
 </defs>
 <g id="figure_1">
  <g id="patch_1">
   <path d="M 0 604.07625 
L 1165.820313 604.07625 
L 1165.820313 0 
L 0 0 
z
" style="fill:none;"/>
  </g>
  <g id="axes_1">
   <g id="patch_2">
    <path d="M 42.620313 566.52 
L 1158.620312 566.52 
L 1158.620312 22.92 
L 42.620313 22.92 
z
" style="fill:#ffffff;"/>
   </g>
   <g id="PathCollection_1">
    <defs>
     <path d="M 0 3 
C 0.795609 3 1.55874 2.683901 2.12132 2.12132 
C 2.683901 1.55874 3 0.795609 3 0 
C 3 -0.795609 2.683901 -1.55874 2.12132 -2.12132 
C 1.55874 -2.683901 0.795609 -3 0 -3 
C -0.795609 -3 -1.55874 -2.683901 -2.12132 -2.12132 
C -2.683901 -1.55874 -3 -0.795609 -3 0 
C -3 0.795609 -2.683901 1.55874 -2.12132 2.12132 
C -1.55874 2.683901 -0.795609 3 0 3 
z
" id="m3a8ab97e15" style="stroke:#1f77b4;stroke-opacity:0.8;"/>
    </defs>
    <g clip-path="url(#p3680658121)">
     <use style="fill:#1f77b4;fill-opacity:0.8;stroke:#1f77b4;stroke-opacity:0.8;" x="708.793269" xlink:href="#m3a8ab97e15" y="302.492576"/>
     <use style="fill:#1f77b4;fill-opacity:0.8;stroke:#1f77b4;stroke-opacity:0.8;" x="320.074522" xlink:href="#m3a8ab97e15" y="287.480917"/>
     <use style="fill:#1f77b4;fill-opacity:0.8;stroke:#1f77b4;stroke-opacity:0.8;" x="42.620313" xlink:href="#m3a8ab97e15" y="278.873072"/>
     <use style="fill:#1f77b4;fill-opacity:0.8;stroke:#1f77b4;stroke-opacity:0.8;" x="1158.620313" xlink:href="#m3a8ab97e15" y="355.340363"/>
     <use style="fill:#1f77b4;fill-opacity:0.8;stroke:#1f77b4;stroke-opacity:0.8;" x="608.352966" xlink:href="#m3a8ab97e15" y="233.636981"/>
     <use style="fill:#1f77b4;fill-opacity:0.8;stroke:#1f77b4;stroke-opacity:0.8;" x="775.646185" xlink:href="#m3a8ab97e15" y="521.948105"/>
     <use style="fill:#1f77b4;fill-opacity:0.8;stroke:#1f77b4;stroke-opacity:0.8;" x="571.852945" xlink:href="#m3a8ab97e15" y="113.341149"/>
     <use style="fill:#1f77b4;fill-opacity:0.8;stroke:#1f77b4;stroke-opacity:0.8;" x="365.347111" xlink:href="#m3a8ab97e15" y="254.968305"/>
     <use style="fill:#1f77b4;fill-opacity:0.8;stroke:#1f77b4;stroke-opacity:0.8;" x="778.12524" xlink:href="#m3a8ab97e15" y="399.153129"/>
     <use style="fill:#1f77b4;fill-opacity:0.8;stroke:#1f77b4;stroke-opacity:0.8;" x="455.913188" xlink:href="#m3a8ab97e15" y="223.452187"/>
     <use style="fill:#1f77b4;fill-opacity:0.8;stroke:#1f77b4;stroke-opacity:0.8;" x="98.870843" xlink:href="#m3a8ab97e15" y="262.162332"/>
     <use style="fill:#1f77b4;fill-opacity:0.8;stroke:#1f77b4;stroke-opacity:0.8;" x="628.028932" xlink:href="#m3a8ab97e15" y="324.919276"/>
     <use style="fill:#1f77b4;fill-opacity:0.8;stroke:#1f77b4;stroke-opacity:0.8;" x="1074.149184" xlink:href="#m3a8ab97e15" y="281.281661"/>
     <use style="fill:#1f77b4;fill-opacity:0.8;stroke:#1f77b4;stroke-opacity:0.8;" x="532.036756" xlink:href="#m3a8ab97e15" y="305.25811"/>
     <use style="fill:#1f77b4;fill-opacity:0.8;stroke:#1f77b4;stroke-opacity:0.8;" x="625.27409" xlink:href="#m3a8ab97e15" y="325.17887"/>
     <use style="fill:#1f77b4;fill-opacity:0.8;stroke:#1f77b4;stroke-opacity:0.8;" x="421.10671" xlink:href="#m3a8ab97e15" y="233.215499"/>
     <use style="fill:#1f77b4;fill-opacity:0.8;stroke:#1f77b4;stroke-opacity:0.8;" x="646.292095" xlink:href="#m3a8ab97e15" y="320.334463"/>
     <use style="fill:#1f77b4;fill-opacity:0.8;stroke:#1f77b4;stroke-opacity:0.8;" x="551.731475" xlink:href="#m3a8ab97e15" y="303.896773"/>
     <use style="fill:#1f77b4;fill-opacity:0.8;stroke:#1f77b4;stroke-opacity:0.8;" x="248.180204" xlink:href="#m3a8ab97e15" y="262.071648"/>
     <use style="fill:#1f77b4;fill-opacity:0.8;stroke:#1f77b4;stroke-opacity:0.8;" x="865.304052" xlink:href="#m3a8ab97e15" y="309.786894"/>
     <use style="fill:#1f77b4;fill-opacity:0.8;stroke:#1f77b4;stroke-opacity:0.8;" x="386.96402" xlink:href="#m3a8ab97e15" y="287.079067"/>
     <use style="fill:#1f77b4;fill-opacity:0.8;stroke:#1f77b4;stroke-opacity:0.8;" x="601.093931" xlink:href="#m3a8ab97e15" y="291.904617"/>
     <use style="fill:#1f77b4;fill-opacity:0.8;stroke:#1f77b4;stroke-opacity:0.8;" x="598.205157" xlink:href="#m3a8ab97e15" y="296.8132"/>
     <use style="fill:#1f77b4;fill-opacity:0.8;stroke:#1f77b4;stroke-opacity:0.8;" x="730.806634" xlink:href="#m3a8ab97e15" y="541.810909"/>
     <use style="fill:#1f77b4;fill-opacity:0.8;stroke:#1f77b4;stroke-opacity:0.8;" x="392.123149" xlink:href="#m3a8ab97e15" y="47.629091"/>
     <use style="fill:#1f77b4;fill-opacity:0.8;stroke:#1f77b4;stroke-opacity:0.8;" x="813.30935" xlink:href="#m3a8ab97e15" y="325.341619"/>
     <use style="fill:#1f77b4;fill-opacity:0.8;stroke:#1f77b4;stroke-opacity:0.8;" x="406.664002" xlink:href="#m3a8ab97e15" y="278.09761"/>
     <use style="fill:#1f77b4;fill-opacity:0.8;stroke:#1f77b4;stroke-opacity:0.8;" x="506.717495" xlink:href="#m3a8ab97e15" y="354.916207"/>
     <use style="fill:#1f77b4;fill-opacity:0.8;stroke:#1f77b4;stroke-opacity:0.8;" x="578.293885" xlink:href="#m3a8ab97e15" y="254.974942"/>
     <use style="fill:#1f77b4;fill-opacity:0.8;stroke:#1f77b4;stroke-opacity:0.8;" x="712.933441" xlink:href="#m3a8ab97e15" y="280.351116"/>
     <use style="fill:#1f77b4;fill-opacity:0.8;stroke:#1f77b4;stroke-opacity:0.8;" x="477.468135" xlink:href="#m3a8ab97e15" y="306.9365"/>
     <use style="fill:#1f77b4;fill-opacity:0.8;stroke:#1f77b4;stroke-opacity:0.8;" x="550.013268" xlink:href="#m3a8ab97e15" y="313.886442"/>
     <use style="fill:#1f77b4;fill-opacity:0.8;stroke:#1f77b4;stroke-opacity:0.8;" x="713.917851" xlink:href="#m3a8ab97e15" y="278.830073"/>
     <use style="fill:#1f77b4;fill-opacity:0.8;stroke:#1f77b4;stroke-opacity:0.8;" x="559.366784" xlink:href="#m3a8ab97e15" y="303.98433"/>
     <use style="fill:#1f77b4;fill-opacity:0.8;stroke:#1f77b4;stroke-opacity:0.8;" x="394.857588" xlink:href="#m3a8ab97e15" y="323.614677"/>
     <use style="fill:#1f77b4;fill-opacity:0.8;stroke:#1f77b4;stroke-opacity:0.8;" x="516.960211" xlink:href="#m3a8ab97e15" y="246.246881"/>
     <use style="fill:#1f77b4;fill-opacity:0.8;stroke:#1f77b4;stroke-opacity:0.8;" x="794.28457" xlink:href="#m3a8ab97e15" y="289.953107"/>
     <use style="fill:#1f77b4;fill-opacity:0.8;stroke:#1f77b4;stroke-opacity:0.8;" x="557.249548" xlink:href="#m3a8ab97e15" y="287.709648"/>
     <use style="fill:#1f77b4;fill-opacity:0.8;stroke:#1f77b4;stroke-opacity:0.8;" x="584.136601" xlink:href="#m3a8ab97e15" y="377.171828"/>
     <use style="fill:#1f77b4;fill-opacity:0.8;stroke:#1f77b4;stroke-opacity:0.8;" x="415.530911" xlink:href="#m3a8ab97e15" y="229.227769"/>
     <use style="fill:#1f77b4;fill-opacity:0.8;stroke:#1f77b4;stroke-opacity:0.8;" x="706.877197" xlink:href="#m3a8ab97e15" y="279.982591"/>
     <use style="fill:#1f77b4;fill-opacity:0.8;stroke:#1f77b4;stroke-opacity:0.8;" x="548.644593" xlink:href="#m3a8ab97e15" y="305.000565"/>
     <use style="fill:#1f77b4;fill-opacity:0.8;stroke:#1f77b4;stroke-opacity:0.8;" x="575.197917" xlink:href="#m3a8ab97e15" y="290.133616"/>
     <use style="fill:#1f77b4;fill-opacity:0.8;stroke:#1f77b4;stroke-opacity:0.8;" x="514.060506" xlink:href="#m3a8ab97e15" y="311.470908"/>
     <use style="fill:#1f77b4;fill-opacity:0.8;stroke:#1f77b4;stroke-opacity:0.8;" x="633.143371" xlink:href="#m3a8ab97e15" y="385.4934"/>
     <use style="fill:#1f77b4;fill-opacity:0.8;stroke:#1f77b4;stroke-opacity:0.8;" x="553.017058" xlink:href="#m3a8ab97e15" y="212.445217"/>
     <use style="fill:#1f77b4;fill-opacity:0.8;stroke:#1f77b4;stroke-opacity:0.8;" x="578.409932" xlink:href="#m3a8ab97e15" y="303.926362"/>
     <use style="fill:#1f77b4;fill-opacity:0.8;stroke:#1f77b4;stroke-opacity:0.8;" x="381.207159" xlink:href="#m3a8ab97e15" y="281.616544"/>
     <use style="fill:#1f77b4;fill-opacity:0.8;stroke:#1f77b4;stroke-opacity:0.8;" x="106.719179" xlink:href="#m3a8ab97e15" y="371.632177"/>
     <use style="fill:#1f77b4;fill-opacity:0.8;stroke:#1f77b4;stroke-opacity:0.8;" x="1074.146793" xlink:href="#m3a8ab97e15" y="217.193884"/>
     <use style="fill:#1f77b4;fill-opacity:0.8;stroke:#1f77b4;stroke-opacity:0.8;" x="595.449547" xlink:href="#m3a8ab97e15" y="294.853213"/>
     <use style="fill:#1f77b4;fill-opacity:0.8;stroke:#1f77b4;stroke-opacity:0.8;" x="670.314707" xlink:href="#m3a8ab97e15" y="271.896044"/>
     <use style="fill:#1f77b4;fill-opacity:0.8;stroke:#1f77b4;stroke-opacity:0.8;" x="605.660824" xlink:href="#m3a8ab97e15" y="296.773945"/>
     <use style="fill:#1f77b4;fill-opacity:0.8;stroke:#1f77b4;stroke-opacity:0.8;" x="509.94104" xlink:href="#m3a8ab97e15" y="305.164211"/>
     <use style="fill:#1f77b4;fill-opacity:0.8;stroke:#1f77b4;stroke-opacity:0.8;" x="500.286595" xlink:href="#m3a8ab97e15" y="297.022992"/>
     <use style="fill:#1f77b4;fill-opacity:0.8;stroke:#1f77b4;stroke-opacity:0.8;" x="637.950498" xlink:href="#m3a8ab97e15" y="390.095738"/>
     <use style="fill:#1f77b4;fill-opacity:0.8;stroke:#1f77b4;stroke-opacity:0.8;" x="648.698611" xlink:href="#m3a8ab97e15" y="203.962121"/>
     <use style="fill:#1f77b4;fill-opacity:0.8;stroke:#1f77b4;stroke-opacity:0.8;" x="465.258587" xlink:href="#m3a8ab97e15" y="306.435302"/>
     <use style="fill:#1f77b4;fill-opacity:0.8;stroke:#1f77b4;stroke-opacity:0.8;" x="587.874151" xlink:href="#m3a8ab97e15" y="279.464974"/>
     <use style="fill:#1f77b4;fill-opacity:0.8;stroke:#1f77b4;stroke-opacity:0.8;" x="613.880915" xlink:href="#m3a8ab97e15" y="298.599575"/>
     <use style="fill:#1f77b4;fill-opacity:0.8;stroke:#1f77b4;stroke-opacity:0.8;" x="158.487128" xlink:href="#m3a8ab97e15" y="294.491738"/>
     <use style="fill:#1f77b4;fill-opacity:0.8;stroke:#1f77b4;stroke-opacity:0.8;" x="1023.249634" xlink:href="#m3a8ab97e15" y="290.169162"/>
     <use style="fill:#1f77b4;fill-opacity:0.8;stroke:#1f77b4;stroke-opacity:0.8;" x="561.481989" xlink:href="#m3a8ab97e15" y="364.7083"/>
     <use style="fill:#1f77b4;fill-opacity:0.8;stroke:#1f77b4;stroke-opacity:0.8;" x="404.78925" xlink:href="#m3a8ab97e15" y="231.300466"/>
     <use style="fill:#1f77b4;fill-opacity:0.8;stroke:#1f77b4;stroke-opacity:0.8;" x="729.590947" xlink:href="#m3a8ab97e15" y="314.442844"/>
     <use style="fill:#1f77b4;fill-opacity:0.8;stroke:#1f77b4;stroke-opacity:0.8;" x="399.506402" xlink:href="#m3a8ab97e15" y="269.466185"/>
     <use style="fill:#1f77b4;fill-opacity:0.8;stroke:#1f77b4;stroke-opacity:0.8;" x="636.88233" xlink:href="#m3a8ab97e15" y="375.346544"/>
     <use style="fill:#1f77b4;fill-opacity:0.8;stroke:#1f77b4;stroke-opacity:0.8;" x="694.876433" xlink:href="#m3a8ab97e15" y="253.064657"/>
     <use style="fill:#1f77b4;fill-opacity:0.8;stroke:#1f77b4;stroke-opacity:0.8;" x="375.932953" xlink:href="#m3a8ab97e15" y="248.509248"/>
     <use style="fill:#1f77b4;fill-opacity:0.8;stroke:#1f77b4;stroke-opacity:0.8;" x="746.223982" xlink:href="#m3a8ab97e15" y="315.236148"/>
     <use style="fill:#1f77b4;fill-opacity:0.8;stroke:#1f77b4;stroke-opacity:0.8;" x="558.479343" xlink:href="#m3a8ab97e15" y="275.605562"/>
     <use style="fill:#1f77b4;fill-opacity:0.8;stroke:#1f77b4;stroke-opacity:0.8;" x="319.040668" xlink:href="#m3a8ab97e15" y="303.538964"/>
     <use style="fill:#1f77b4;fill-opacity:0.8;stroke:#1f77b4;stroke-opacity:0.8;" x="692.499367" xlink:href="#m3a8ab97e15" y="307.817845"/>
     <use style="fill:#1f77b4;fill-opacity:0.8;stroke:#1f77b4;stroke-opacity:0.8;" x="336.377256" xlink:href="#m3a8ab97e15" y="302.843175"/>
     <use style="fill:#1f77b4;fill-opacity:0.8;stroke:#1f77b4;stroke-opacity:0.8;" x="580.146193" xlink:href="#m3a8ab97e15" y="277.780676"/>
     <use style="fill:#1f77b4;fill-opacity:0.8;stroke:#1f77b4;stroke-opacity:0.8;" x="496.918702" xlink:href="#m3a8ab97e15" y="318.422232"/>
     <use style="fill:#1f77b4;fill-opacity:0.8;stroke:#1f77b4;stroke-opacity:0.8;" x="690.360149" xlink:href="#m3a8ab97e15" y="300.676299"/>
     <use style="fill:#1f77b4;fill-opacity:0.8;stroke:#1f77b4;stroke-opacity:0.8;" x="873.581688" xlink:href="#m3a8ab97e15" y="258.200542"/>
     <use style="fill:#1f77b4;fill-opacity:0.8;stroke:#1f77b4;stroke-opacity:0.8;" x="318.467145" xlink:href="#m3a8ab97e15" y="304.795794"/>
     <use style="fill:#1f77b4;fill-opacity:0.8;stroke:#1f77b4;stroke-opacity:0.8;" x="490.465841" xlink:href="#m3a8ab97e15" y="295.751084"/>
     <use style="fill:#1f77b4;fill-opacity:0.8;stroke:#1f77b4;stroke-opacity:0.8;" x="864.875297" xlink:href="#m3a8ab97e15" y="316.164475"/>
     <use style="fill:#1f77b4;fill-opacity:0.8;stroke:#1f77b4;stroke-opacity:0.8;" x="153.249198" xlink:href="#m3a8ab97e15" y="264.685106"/>
     <use style="fill:#1f77b4;fill-opacity:0.8;stroke:#1f77b4;stroke-opacity:0.8;" x="828.59497" xlink:href="#m3a8ab97e15" y="303.502708"/>
     <use style="fill:#1f77b4;fill-opacity:0.8;stroke:#1f77b4;stroke-opacity:0.8;" x="733.6176" xlink:href="#m3a8ab97e15" y="326.401717"/>
     <use style="fill:#1f77b4;fill-opacity:0.8;stroke:#1f77b4;stroke-opacity:0.8;" x="427.415679" xlink:href="#m3a8ab97e15" y="275.415055"/>
     <use style="fill:#1f77b4;fill-opacity:0.8;stroke:#1f77b4;stroke-opacity:0.8;" x="713.307168" xlink:href="#m3a8ab97e15" y="292.420472"/>
     <use style="fill:#1f77b4;fill-opacity:0.8;stroke:#1f77b4;stroke-opacity:0.8;" x="601.688032" xlink:href="#m3a8ab97e15" y="291.522975"/>
     <use style="fill:#1f77b4;fill-opacity:0.8;stroke:#1f77b4;stroke-opacity:0.8;" x="488.828244" xlink:href="#m3a8ab97e15" y="285.095703"/>
     <use style="fill:#1f77b4;fill-opacity:0.8;stroke:#1f77b4;stroke-opacity:0.8;" x="529.320846" xlink:href="#m3a8ab97e15" y="321.075362"/>
     <use style="fill:#1f77b4;fill-opacity:0.8;stroke:#1f77b4;stroke-opacity:0.8;" x="587.487255" xlink:href="#m3a8ab97e15" y="304.430215"/>
     <use style="fill:#1f77b4;fill-opacity:0.8;stroke:#1f77b4;stroke-opacity:0.8;" x="550.232326" xlink:href="#m3a8ab97e15" y="408.559194"/>
     <use style="fill:#1f77b4;fill-opacity:0.8;stroke:#1f77b4;stroke-opacity:0.8;" x="188.859923" xlink:href="#m3a8ab97e15" y="145.545246"/>
     <use style="fill:#1f77b4;fill-opacity:0.8;stroke:#1f77b4;stroke-opacity:0.8;" x="615.998957" xlink:href="#m3a8ab97e15" y="354.381835"/>
     <use style="fill:#1f77b4;fill-opacity:0.8;stroke:#1f77b4;stroke-opacity:0.8;" x="996.024846" xlink:href="#m3a8ab97e15" y="309.083667"/>
     <use style="fill:#1f77b4;fill-opacity:0.8;stroke:#1f77b4;stroke-opacity:0.8;" x="520.31928" xlink:href="#m3a8ab97e15" y="225.729028"/>
     <use style="fill:#1f77b4;fill-opacity:0.8;stroke:#1f77b4;stroke-opacity:0.8;" x="372.148868" xlink:href="#m3a8ab97e15" y="312.695017"/>
     <use style="fill:#1f77b4;fill-opacity:0.8;stroke:#1f77b4;stroke-opacity:0.8;" x="799.460712" xlink:href="#m3a8ab97e15" y="275.228598"/>
     <use style="fill:#1f77b4;fill-opacity:0.8;stroke:#1f77b4;stroke-opacity:0.8;" x="580.731644" xlink:href="#m3a8ab97e15" y="326.97661"/>
     <use style="fill:#1f77b4;fill-opacity:0.8;stroke:#1f77b4;stroke-opacity:0.8;" x="541.700013" xlink:href="#m3a8ab97e15" y="292.787107"/>
    </g>
   </g>
   <g id="PolyCollection_1">
    <path clip-path="url(#p3680658121)" d="M 42.620313 223.86689 
L 42.620313 288.880145 
L 53.89304 288.925032 
L 65.165767 288.96992 
L 76.438494 289.211388 
L 87.711222 289.505674 
L 98.983949 289.617907 
L 110.256676 289.914642 
L 121.529403 290.09202 
L 132.802131 290.308157 
L 144.074858 290.652016 
L 155.347585 290.919511 
L 166.620313 291.072799 
L 177.89304 291.523268 
L 189.165767 291.973736 
L 200.438494 292.322943 
L 211.711222 292.476122 
L 222.983949 292.695701 
L 234.256676 292.868013 
L 245.529403 293.202805 
L 256.802131 293.411977 
L 268.074858 293.641584 
L 279.347585 293.73939 
L 290.620313 293.990767 
L 301.89304 294.298492 
L 313.165767 294.495308 
L 324.438494 294.920985 
L 335.711222 295.234529 
L 346.983949 295.547271 
L 358.256676 295.638292 
L 369.529403 295.912031 
L 380.802131 296.328169 
L 392.074858 296.669008 
L 403.347585 297.05145 
L 414.620313 297.533899 
L 425.89304 298.206706 
L 437.165767 298.938569 
L 448.438494 299.52686 
L 459.711222 300.223085 
L 470.983949 300.691973 
L 482.256676 301.125917 
L 493.529403 301.812106 
L 504.802131 302.628028 
L 516.074858 303.530805 
L 527.347585 304.29033 
L 538.620313 305.077376 
L 549.89304 305.958573 
L 561.165767 306.925185 
L 572.438494 307.754195 
L 583.711222 308.605871 
L 594.983949 309.647485 
L 606.256676 310.799678 
L 617.529403 312.116958 
L 628.802131 313.152083 
L 640.074858 314.122028 
L 651.347585 315.263134 
L 662.620313 316.435617 
L 673.89304 317.759587 
L 685.165767 319.154479 
L 696.438494 320.469926 
L 707.711222 321.714807 
L 718.983949 322.853375 
L 730.256676 324.14188 
L 741.529403 325.282203 
L 752.802131 326.553846 
L 764.074858 328.019942 
L 775.347585 329.269716 
L 786.620313 330.61468 
L 797.89304 331.90363 
L 809.165767 333.192581 
L 820.438494 334.484331 
L 831.711222 335.778277 
L 842.983949 337.406853 
L 854.256676 338.897473 
L 865.529403 340.240618 
L 876.802131 341.554488 
L 888.074858 343.039725 
L 899.347585 344.520891 
L 910.620313 346.000152 
L 921.89304 347.479413 
L 933.165767 348.960194 
L 944.438494 350.421774 
L 955.711222 351.780913 
L 966.983949 353.141751 
L 978.256676 354.509677 
L 989.529403 355.865185 
L 1000.802131 357.264327 
L 1012.074858 358.886918 
L 1023.347585 360.505771 
L 1034.620313 362.120896 
L 1045.89304 363.736022 
L 1057.165767 365.268612 
L 1068.438494 366.75446 
L 1079.711222 368.238039 
L 1090.983949 369.717062 
L 1102.256676 371.197492 
L 1113.529403 372.683301 
L 1124.802131 374.16911 
L 1136.074858 375.65492 
L 1147.347585 377.140729 
L 1158.620313 378.626538 
L 1158.620313 302.614313 
L 1158.620313 302.614313 
L 1147.347585 302.322754 
L 1136.074858 302.027703 
L 1124.802131 301.75576 
L 1113.529403 301.5747 
L 1102.256676 301.317461 
L 1090.983949 301.154295 
L 1079.711222 301.023286 
L 1068.438494 300.893085 
L 1057.165767 300.596399 
L 1045.89304 300.291135 
L 1034.620313 300.149804 
L 1023.347585 299.90145 
L 1012.074858 299.709333 
L 1000.802131 299.517216 
L 989.529403 299.17391 
L 978.256676 298.787583 
L 966.983949 298.735826 
L 955.711222 298.400011 
L 944.438494 297.946759 
L 933.165767 297.575119 
L 921.89304 297.463943 
L 910.620313 297.240316 
L 899.347585 296.962516 
L 888.074858 296.758816 
L 876.802131 296.558095 
L 865.529403 296.395791 
L 854.256676 296.151836 
L 842.983949 295.749891 
L 831.711222 295.334345 
L 820.438494 294.998473 
L 809.165767 294.764887 
L 797.89304 294.325399 
L 786.620313 294.099682 
L 775.347585 293.776232 
L 764.074858 293.398011 
L 752.802131 292.942977 
L 741.529403 292.475343 
L 730.256676 292.040223 
L 718.983949 291.519725 
L 707.711222 291.138315 
L 696.438494 290.701902 
L 685.165767 290.238234 
L 673.89304 289.770644 
L 662.620313 289.154799 
L 651.347585 288.550241 
L 640.074858 287.790852 
L 628.802131 287.251862 
L 617.529403 286.484026 
L 606.256676 285.879953 
L 594.983949 285.351606 
L 583.711222 284.785038 
L 572.438494 283.691883 
L 561.165767 282.826044 
L 549.89304 282.06472 
L 538.620313 281.106371 
L 527.347585 280.234894 
L 516.074858 279.292472 
L 504.802131 278.319425 
L 493.529403 277.285105 
L 482.256676 276.166877 
L 470.983949 275.172386 
L 459.711222 274.195897 
L 448.438494 272.958479 
L 437.165767 271.86319 
L 425.89304 270.456094 
L 414.620313 269.199362 
L 403.347585 267.995501 
L 392.074858 266.758016 
L 380.802131 265.261032 
L 369.529403 264.286823 
L 358.256676 263.054945 
L 346.983949 261.952199 
L 335.711222 260.578927 
L 324.438494 259.453896 
L 313.165767 258.102196 
L 301.89304 256.637833 
L 290.620313 255.426839 
L 279.347585 254.183087 
L 268.074858 252.932516 
L 256.802131 251.573833 
L 245.529403 250.054543 
L 234.256676 248.44083 
L 222.983949 246.92754 
L 211.711222 245.644358 
L 200.438494 244.222352 
L 189.165767 242.800345 
L 177.89304 241.324587 
L 166.620313 239.719544 
L 155.347585 238.282231 
L 144.074858 236.98073 
L 132.802131 235.703737 
L 121.529403 234.396511 
L 110.256676 233.092592 
L 98.983949 231.598335 
L 87.711222 230.014595 
L 76.438494 228.58563 
L 65.165767 227.047354 
L 53.89304 225.457111 
L 42.620313 223.86689 
z
" style="fill:#1f77b4;fill-opacity:0.15;"/>
   </g>
   <g id="matplotlib.axis_1">
    <g id="xtick_1">
     <g id="line2d_1">
      <defs>
       <path d="M 0 0 
L 0 3.5 
" id="mc09f825c87" style="stroke:#000000;stroke-width:0.8;"/>
      </defs>
      <g>
       <use style="stroke:#000000;stroke-width:0.8;" x="145.960899" xlink:href="#mc09f825c87" y="566.52"/>
      </g>
     </g>
     <g id="text_1">
      <!-- −3 -->
      <g transform="translate(138.589805 581.118437)scale(0.1 -0.1)">
       <defs>
        <path d="M 10.59375 35.5 
L 73.1875 35.5 
L 73.1875 27.203125 
L 10.59375 27.203125 
z
" id="DejaVuSans-8722"/>
        <path d="M 40.578125 39.3125 
Q 47.65625 37.796875 51.625 33 
Q 55.609375 28.21875 55.609375 21.1875 
Q 55.609375 10.40625 48.1875 4.484375 
Q 40.765625 -1.421875 27.09375 -1.421875 
Q 22.515625 -1.421875 17.65625 -0.515625 
Q 12.796875 0.390625 7.625 2.203125 
L 7.625 11.71875 
Q 11.71875 9.328125 16.59375 8.109375 
Q 21.484375 6.890625 26.8125 6.890625 
Q 36.078125 6.890625 40.9375 10.546875 
Q 45.796875 14.203125 45.796875 21.1875 
Q 45.796875 27.640625 41.28125 31.265625 
Q 36.765625 34.90625 28.71875 34.90625 
L 20.21875 34.90625 
L 20.21875 43.015625 
L 29.109375 43.015625 
Q 36.375 43.015625 40.234375 45.921875 
Q 44.09375 48.828125 44.09375 54.296875 
Q 44.09375 59.90625 40.109375 62.90625 
Q 36.140625 65.921875 28.71875 65.921875 
Q 24.65625 65.921875 20.015625 65.03125 
Q 15.375 64.15625 9.8125 62.3125 
L 9.8125 71.09375 
Q 15.4375 72.65625 20.34375 73.4375 
Q 25.25 74.21875 29.59375 74.21875 
Q 40.828125 74.21875 47.359375 69.109375 
Q 53.90625 64.015625 53.90625 55.328125 
Q 53.90625 49.265625 50.4375 45.09375 
Q 46.96875 40.921875 40.578125 39.3125 
z
" id="DejaVuSans-51"/>
       </defs>
       <use xlink:href="#DejaVuSans-8722"/>
       <use x="83.789062" xlink:href="#DejaVuSans-51"/>
      </g>
     </g>
    </g>
    <g id="xtick_2">
     <g id="line2d_2">
      <g>
       <use style="stroke:#000000;stroke-width:0.8;" x="286.808037" xlink:href="#mc09f825c87" y="566.52"/>
      </g>
     </g>
     <g id="text_2">
      <!-- −2 -->
      <g transform="translate(279.436944 581.118437)scale(0.1 -0.1)">
       <defs>
        <path d="M 19.1875 8.296875 
L 53.609375 8.296875 
L 53.609375 0 
L 7.328125 0 
L 7.328125 8.296875 
Q 12.9375 14.109375 22.625 23.890625 
Q 32.328125 33.6875 34.8125 36.53125 
Q 39.546875 41.84375 41.421875 45.53125 
Q 43.3125 49.21875 43.3125 52.78125 
Q 43.3125 58.59375 39.234375 62.25 
Q 35.15625 65.921875 28.609375 65.921875 
Q 23.96875 65.921875 18.8125 64.3125 
Q 13.671875 62.703125 7.8125 59.421875 
L 7.8125 69.390625 
Q 13.765625 71.78125 18.9375 73 
Q 24.125 74.21875 28.421875 74.21875 
Q 39.75 74.21875 46.484375 68.546875 
Q 53.21875 62.890625 53.21875 53.421875 
Q 53.21875 48.921875 51.53125 44.890625 
Q 49.859375 40.875 45.40625 35.40625 
Q 44.1875 33.984375 37.640625 27.21875 
Q 31.109375 20.453125 19.1875 8.296875 
z
" id="DejaVuSans-50"/>
       </defs>
       <use xlink:href="#DejaVuSans-8722"/>
       <use x="83.789062" xlink:href="#DejaVuSans-50"/>
      </g>
     </g>
    </g>
    <g id="xtick_3">
     <g id="line2d_3">
      <g>
       <use style="stroke:#000000;stroke-width:0.8;" x="427.655176" xlink:href="#mc09f825c87" y="566.52"/>
      </g>
     </g>
     <g id="text_3">
      <!-- −1 -->
      <g transform="translate(420.284082 581.118437)scale(0.1 -0.1)">
       <defs>
        <path d="M 12.40625 8.296875 
L 28.515625 8.296875 
L 28.515625 63.921875 
L 10.984375 60.40625 
L 10.984375 69.390625 
L 28.421875 72.90625 
L 38.28125 72.90625 
L 38.28125 8.296875 
L 54.390625 8.296875 
L 54.390625 0 
L 12.40625 0 
z
" id="DejaVuSans-49"/>
       </defs>
       <use xlink:href="#DejaVuSans-8722"/>
       <use x="83.789062" xlink:href="#DejaVuSans-49"/>
      </g>
     </g>
    </g>
    <g id="xtick_4">
     <g id="line2d_4">
      <g>
       <use style="stroke:#000000;stroke-width:0.8;" x="568.502314" xlink:href="#mc09f825c87" y="566.52"/>
      </g>
     </g>
     <g id="text_4">
      <!-- 0 -->
      <g transform="translate(565.321064 581.118437)scale(0.1 -0.1)">
       <defs>
        <path d="M 31.78125 66.40625 
Q 24.171875 66.40625 20.328125 58.90625 
Q 16.5 51.421875 16.5 36.375 
Q 16.5 21.390625 20.328125 13.890625 
Q 24.171875 6.390625 31.78125 6.390625 
Q 39.453125 6.390625 43.28125 13.890625 
Q 47.125 21.390625 47.125 36.375 
Q 47.125 51.421875 43.28125 58.90625 
Q 39.453125 66.40625 31.78125 66.40625 
z
M 31.78125 74.21875 
Q 44.046875 74.21875 50.515625 64.515625 
Q 56.984375 54.828125 56.984375 36.375 
Q 56.984375 17.96875 50.515625 8.265625 
Q 44.046875 -1.421875 31.78125 -1.421875 
Q 19.53125 -1.421875 13.0625 8.265625 
Q 6.59375 17.96875 6.59375 36.375 
Q 6.59375 54.828125 13.0625 64.515625 
Q 19.53125 74.21875 31.78125 74.21875 
z
" id="DejaVuSans-48"/>
       </defs>
       <use xlink:href="#DejaVuSans-48"/>
      </g>
     </g>
    </g>
    <g id="xtick_5">
     <g id="line2d_5">
      <g>
       <use style="stroke:#000000;stroke-width:0.8;" x="709.349452" xlink:href="#mc09f825c87" y="566.52"/>
      </g>
     </g>
     <g id="text_5">
      <!-- 1 -->
      <g transform="translate(706.168202 581.118437)scale(0.1 -0.1)">
       <use xlink:href="#DejaVuSans-49"/>
      </g>
     </g>
    </g>
    <g id="xtick_6">
     <g id="line2d_6">
      <g>
       <use style="stroke:#000000;stroke-width:0.8;" x="850.19659" xlink:href="#mc09f825c87" y="566.52"/>
      </g>
     </g>
     <g id="text_6">
      <!-- 2 -->
      <g transform="translate(847.01534 581.118437)scale(0.1 -0.1)">
       <use xlink:href="#DejaVuSans-50"/>
      </g>
     </g>
    </g>
    <g id="xtick_7">
     <g id="line2d_7">
      <g>
       <use style="stroke:#000000;stroke-width:0.8;" x="991.043729" xlink:href="#mc09f825c87" y="566.52"/>
      </g>
     </g>
     <g id="text_7">
      <!-- 3 -->
      <g transform="translate(987.862479 581.118437)scale(0.1 -0.1)">
       <use xlink:href="#DejaVuSans-51"/>
      </g>
     </g>
    </g>
    <g id="xtick_8">
     <g id="line2d_8">
      <g>
       <use style="stroke:#000000;stroke-width:0.8;" x="1131.890867" xlink:href="#mc09f825c87" y="566.52"/>
      </g>
     </g>
     <g id="text_8">
      <!-- 4 -->
      <g transform="translate(1128.709617 581.118437)scale(0.1 -0.1)">
       <defs>
        <path d="M 37.796875 64.3125 
L 12.890625 25.390625 
L 37.796875 25.390625 
z
M 35.203125 72.90625 
L 47.609375 72.90625 
L 47.609375 25.390625 
L 58.015625 25.390625 
L 58.015625 17.1875 
L 47.609375 17.1875 
L 47.609375 0 
L 37.796875 0 
L 37.796875 17.1875 
L 4.890625 17.1875 
L 4.890625 26.703125 
z
" id="DejaVuSans-52"/>
       </defs>
       <use xlink:href="#DejaVuSans-52"/>
      </g>
     </g>
    </g>
    <g id="text_9">
     <!-- m1 -->
     <g transform="translate(592.56875 594.796562)scale(0.1 -0.1)">
      <defs>
       <path d="M 52 44.1875 
Q 55.375 50.25 60.0625 53.125 
Q 64.75 56 71.09375 56 
Q 79.640625 56 84.28125 50.015625 
Q 88.921875 44.046875 88.921875 33.015625 
L 88.921875 0 
L 79.890625 0 
L 79.890625 32.71875 
Q 79.890625 40.578125 77.09375 44.375 
Q 74.3125 48.1875 68.609375 48.1875 
Q 61.625 48.1875 57.5625 43.546875 
Q 53.515625 38.921875 53.515625 30.90625 
L 53.515625 0 
L 44.484375 0 
L 44.484375 32.71875 
Q 44.484375 40.625 41.703125 44.40625 
Q 38.921875 48.1875 33.109375 48.1875 
Q 26.21875 48.1875 22.15625 43.53125 
Q 18.109375 38.875 18.109375 30.90625 
L 18.109375 0 
L 9.078125 0 
L 9.078125 54.6875 
L 18.109375 54.6875 
L 18.109375 46.1875 
Q 21.1875 51.21875 25.484375 53.609375 
Q 29.78125 56 35.6875 56 
Q 41.65625 56 45.828125 52.96875 
Q 50 49.953125 52 44.1875 
z
" id="DejaVuSans-109"/>
      </defs>
      <use xlink:href="#DejaVuSans-109"/>
      <use x="97.412109" xlink:href="#DejaVuSans-49"/>
     </g>
    </g>
   </g>
   <g id="matplotlib.axis_2">
    <g id="ytick_1">
     <g id="line2d_9">
      <defs>
       <path d="M 0 0 
L -3.5 0 
" id="mb043b2f25d" style="stroke:#000000;stroke-width:0.8;"/>
      </defs>
      <g>
       <use style="stroke:#000000;stroke-width:0.8;" x="42.620313" xlink:href="#mb043b2f25d" y="514.09431"/>
      </g>
     </g>
     <g id="text_10">
      <!-- −6 -->
      <g transform="translate(20.878125 517.893528)scale(0.1 -0.1)">
       <defs>
        <path d="M 33.015625 40.375 
Q 26.375 40.375 22.484375 35.828125 
Q 18.609375 31.296875 18.609375 23.390625 
Q 18.609375 15.53125 22.484375 10.953125 
Q 26.375 6.390625 33.015625 6.390625 
Q 39.65625 6.390625 43.53125 10.953125 
Q 47.40625 15.53125 47.40625 23.390625 
Q 47.40625 31.296875 43.53125 35.828125 
Q 39.65625 40.375 33.015625 40.375 
z
M 52.59375 71.296875 
L 52.59375 62.3125 
Q 48.875 64.0625 45.09375 64.984375 
Q 41.3125 65.921875 37.59375 65.921875 
Q 27.828125 65.921875 22.671875 59.328125 
Q 17.53125 52.734375 16.796875 39.40625 
Q 19.671875 43.65625 24.015625 45.921875 
Q 28.375 48.1875 33.59375 48.1875 
Q 44.578125 48.1875 50.953125 41.515625 
Q 57.328125 34.859375 57.328125 23.390625 
Q 57.328125 12.15625 50.6875 5.359375 
Q 44.046875 -1.421875 33.015625 -1.421875 
Q 20.359375 -1.421875 13.671875 8.265625 
Q 6.984375 17.96875 6.984375 36.375 
Q 6.984375 53.65625 15.1875 63.9375 
Q 23.390625 74.21875 37.203125 74.21875 
Q 40.921875 74.21875 44.703125 73.484375 
Q 48.484375 72.75 52.59375 71.296875 
z
" id="DejaVuSans-54"/>
       </defs>
       <use xlink:href="#DejaVuSans-8722"/>
       <use x="83.789062" xlink:href="#DejaVuSans-54"/>
      </g>
     </g>
    </g>
    <g id="ytick_2">
     <g id="line2d_10">
      <g>
       <use style="stroke:#000000;stroke-width:0.8;" x="42.620313" xlink:href="#mb043b2f25d" y="441.202767"/>
      </g>
     </g>
     <g id="text_11">
      <!-- −4 -->
      <g transform="translate(20.878125 445.001986)scale(0.1 -0.1)">
       <use xlink:href="#DejaVuSans-8722"/>
       <use x="83.789062" xlink:href="#DejaVuSans-52"/>
      </g>
     </g>
    </g>
    <g id="ytick_3">
     <g id="line2d_11">
      <g>
       <use style="stroke:#000000;stroke-width:0.8;" x="42.620313" xlink:href="#mb043b2f25d" y="368.311224"/>
      </g>
     </g>
     <g id="text_12">
      <!-- −2 -->
      <g transform="translate(20.878125 372.110443)scale(0.1 -0.1)">
       <use xlink:href="#DejaVuSans-8722"/>
       <use x="83.789062" xlink:href="#DejaVuSans-50"/>
      </g>
     </g>
    </g>
    <g id="ytick_4">
     <g id="line2d_12">
      <g>
       <use style="stroke:#000000;stroke-width:0.8;" x="42.620313" xlink:href="#mb043b2f25d" y="295.419682"/>
      </g>
     </g>
     <g id="text_13">
      <!-- 0 -->
      <g transform="translate(29.257813 299.2189)scale(0.1 -0.1)">
       <use xlink:href="#DejaVuSans-48"/>
      </g>
     </g>
    </g>
    <g id="ytick_5">
     <g id="line2d_13">
      <g>
       <use style="stroke:#000000;stroke-width:0.8;" x="42.620313" xlink:href="#mb043b2f25d" y="222.528139"/>
      </g>
     </g>
     <g id="text_14">
      <!-- 2 -->
      <g transform="translate(29.257813 226.327358)scale(0.1 -0.1)">
       <use xlink:href="#DejaVuSans-50"/>
      </g>
     </g>
    </g>
    <g id="ytick_6">
     <g id="line2d_14">
      <g>
       <use style="stroke:#000000;stroke-width:0.8;" x="42.620313" xlink:href="#mb043b2f25d" y="149.636596"/>
      </g>
     </g>
     <g id="text_15">
      <!-- 4 -->
      <g transform="translate(29.257813 153.435815)scale(0.1 -0.1)">
       <use xlink:href="#DejaVuSans-52"/>
      </g>
     </g>
    </g>
    <g id="ytick_7">
     <g id="line2d_15">
      <g>
       <use style="stroke:#000000;stroke-width:0.8;" x="42.620313" xlink:href="#mb043b2f25d" y="76.745054"/>
      </g>
     </g>
     <g id="text_16">
      <!-- 6 -->
      <g transform="translate(29.257813 80.544273)scale(0.1 -0.1)">
       <use xlink:href="#DejaVuSans-54"/>
      </g>
     </g>
    </g>
    <g id="text_17">
     <!-- unemp -->
     <g transform="translate(14.798438 312.178594)rotate(-90)scale(0.1 -0.1)">
      <defs>
       <path d="M 8.5 21.578125 
L 8.5 54.6875 
L 17.484375 54.6875 
L 17.484375 21.921875 
Q 17.484375 14.15625 20.5 10.265625 
Q 23.53125 6.390625 29.59375 6.390625 
Q 36.859375 6.390625 41.078125 11.03125 
Q 45.3125 15.671875 45.3125 23.6875 
L 45.3125 54.6875 
L 54.296875 54.6875 
L 54.296875 0 
L 45.3125 0 
L 45.3125 8.40625 
Q 42.046875 3.421875 37.71875 1 
Q 33.40625 -1.421875 27.6875 -1.421875 
Q 18.265625 -1.421875 13.375 4.4375 
Q 8.5 10.296875 8.5 21.578125 
z
M 31.109375 56 
z
" id="DejaVuSans-117"/>
       <path d="M 54.890625 33.015625 
L 54.890625 0 
L 45.90625 0 
L 45.90625 32.71875 
Q 45.90625 40.484375 42.875 44.328125 
Q 39.84375 48.1875 33.796875 48.1875 
Q 26.515625 48.1875 22.3125 43.546875 
Q 18.109375 38.921875 18.109375 30.90625 
L 18.109375 0 
L 9.078125 0 
L 9.078125 54.6875 
L 18.109375 54.6875 
L 18.109375 46.1875 
Q 21.34375 51.125 25.703125 53.5625 
Q 30.078125 56 35.796875 56 
Q 45.21875 56 50.046875 50.171875 
Q 54.890625 44.34375 54.890625 33.015625 
z
" id="DejaVuSans-110"/>
       <path d="M 56.203125 29.59375 
L 56.203125 25.203125 
L 14.890625 25.203125 
Q 15.484375 15.921875 20.484375 11.0625 
Q 25.484375 6.203125 34.421875 6.203125 
Q 39.59375 6.203125 44.453125 7.46875 
Q 49.3125 8.734375 54.109375 11.28125 
L 54.109375 2.78125 
Q 49.265625 0.734375 44.1875 -0.34375 
Q 39.109375 -1.421875 33.890625 -1.421875 
Q 20.796875 -1.421875 13.15625 6.1875 
Q 5.515625 13.8125 5.515625 26.8125 
Q 5.515625 40.234375 12.765625 48.109375 
Q 20.015625 56 32.328125 56 
Q 43.359375 56 49.78125 48.890625 
Q 56.203125 41.796875 56.203125 29.59375 
z
M 47.21875 32.234375 
Q 47.125 39.59375 43.09375 43.984375 
Q 39.0625 48.390625 32.421875 48.390625 
Q 24.90625 48.390625 20.390625 44.140625 
Q 15.875 39.890625 15.1875 32.171875 
z
" id="DejaVuSans-101"/>
       <path d="M 18.109375 8.203125 
L 18.109375 -20.796875 
L 9.078125 -20.796875 
L 9.078125 54.6875 
L 18.109375 54.6875 
L 18.109375 46.390625 
Q 20.953125 51.265625 25.265625 53.625 
Q 29.59375 56 35.59375 56 
Q 45.5625 56 51.78125 48.09375 
Q 58.015625 40.1875 58.015625 27.296875 
Q 58.015625 14.40625 51.78125 6.484375 
Q 45.5625 -1.421875 35.59375 -1.421875 
Q 29.59375 -1.421875 25.265625 0.953125 
Q 20.953125 3.328125 18.109375 8.203125 
z
M 48.6875 27.296875 
Q 48.6875 37.203125 44.609375 42.84375 
Q 40.53125 48.484375 33.40625 48.484375 
Q 26.265625 48.484375 22.1875 42.84375 
Q 18.109375 37.203125 18.109375 27.296875 
Q 18.109375 17.390625 22.1875 11.75 
Q 26.265625 6.109375 33.40625 6.109375 
Q 40.53125 6.109375 44.609375 11.75 
Q 48.6875 17.390625 48.6875 27.296875 
z
" id="DejaVuSans-112"/>
      </defs>
      <use xlink:href="#DejaVuSans-117"/>
      <use x="63.378906" xlink:href="#DejaVuSans-110"/>
      <use x="126.757812" xlink:href="#DejaVuSans-101"/>
      <use x="188.28125" xlink:href="#DejaVuSans-109"/>
      <use x="285.693359" xlink:href="#DejaVuSans-112"/>
     </g>
    </g>
   </g>
   <g id="line2d_16">
    <path clip-path="url(#p3680658121)" d="M 42.620313 259.315271 
L 53.89304 260.087872 
L 65.165767 260.860472 
L 76.438494 261.633073 
L 87.711222 262.405674 
L 98.983949 263.178275 
L 110.256676 263.950875 
L 121.529403 264.723476 
L 132.802131 265.496077 
L 144.074858 266.268678 
L 155.347585 267.041278 
L 166.620313 267.813879 
L 177.89304 268.58648 
L 189.165767 269.359081 
L 200.438494 270.131681 
L 211.711222 270.904282 
L 222.983949 271.676883 
L 234.256676 272.449484 
L 245.529403 273.222084 
L 256.802131 273.994685 
L 268.074858 274.767286 
L 279.347585 275.539887 
L 290.620313 276.312487 
L 301.89304 277.085088 
L 313.165767 277.857689 
L 324.438494 278.63029 
L 335.711222 279.40289 
L 346.983949 280.175491 
L 358.256676 280.948092 
L 369.529403 281.720693 
L 380.802131 282.493293 
L 392.074858 283.265894 
L 403.347585 284.038495 
L 414.620313 284.811096 
L 425.89304 285.583696 
L 437.165767 286.356297 
L 448.438494 287.128898 
L 459.711222 287.901499 
L 470.983949 288.674099 
L 482.256676 289.4467 
L 493.529403 290.219301 
L 504.802131 290.991902 
L 516.074858 291.764503 
L 527.347585 292.537103 
L 538.620313 293.309704 
L 549.89304 294.082305 
L 561.165767 294.854906 
L 572.438494 295.627506 
L 583.711222 296.400107 
L 594.983949 297.172708 
L 606.256676 297.945309 
L 617.529403 298.717909 
L 628.802131 299.49051 
L 640.074858 300.263111 
L 651.347585 301.035712 
L 662.620313 301.808312 
L 673.89304 302.580913 
L 685.165767 303.353514 
L 696.438494 304.126115 
L 707.711222 304.898715 
L 718.983949 305.671316 
L 730.256676 306.443917 
L 741.529403 307.216518 
L 752.802131 307.989118 
L 764.074858 308.761719 
L 775.347585 309.53432 
L 786.620313 310.306921 
L 797.89304 311.079521 
L 809.165767 311.852122 
L 820.438494 312.624723 
L 831.711222 313.397324 
L 842.983949 314.169924 
L 854.256676 314.942525 
L 865.529403 315.715126 
L 876.802131 316.487727 
L 888.074858 317.260327 
L 899.347585 318.032928 
L 910.620313 318.805529 
L 921.89304 319.57813 
L 933.165767 320.35073 
L 944.438494 321.123331 
L 955.711222 321.895932 
L 966.983949 322.668533 
L 978.256676 323.441133 
L 989.529403 324.213734 
L 1000.802131 324.986335 
L 1012.074858 325.758936 
L 1023.347585 326.531536 
L 1034.620313 327.304137 
L 1045.89304 328.076738 
L 1057.165767 328.849339 
L 1068.438494 329.621939 
L 1079.711222 330.39454 
L 1090.983949 331.167141 
L 1102.256676 331.939742 
L 1113.529403 332.712342 
L 1124.802131 333.484943 
L 1136.074858 334.257544 
L 1147.347585 335.030145 
L 1158.620313 335.802745 
" style="fill:none;stroke:#1f77b4;stroke-linecap:square;stroke-width:2.25;"/>
   </g>
   <g id="patch_3">
    <path d="M 42.620313 566.52 
L 42.620313 22.92 
" style="fill:none;stroke:#000000;stroke-linecap:square;stroke-linejoin:miter;stroke-width:0.8;"/>
   </g>
   <g id="patch_4">
    <path d="M 1158.620312 566.52 
L 1158.620312 22.92 
" style="fill:none;stroke:#000000;stroke-linecap:square;stroke-linejoin:miter;stroke-width:0.8;"/>
   </g>
   <g id="patch_5">
    <path d="M 42.620313 566.52 
L 1158.620313 566.52 
" style="fill:none;stroke:#000000;stroke-linecap:square;stroke-linejoin:miter;stroke-width:0.8;"/>
   </g>
   <g id="patch_6">
    <path d="M 42.620313 22.92 
L 1158.620313 22.92 
" style="fill:none;stroke:#000000;stroke-linecap:square;stroke-linejoin:miter;stroke-width:0.8;"/>
   </g>
   <g id="text_18">
    <!-- Zależność $\log$ m1 od $\log$ unemp -->
    <g transform="translate(504.500312 16.92)scale(0.12 -0.12)">
     <defs>
      <path d="M 5.609375 72.90625 
L 62.890625 72.90625 
L 62.890625 65.375 
L 16.796875 8.296875 
L 64.015625 8.296875 
L 64.015625 0 
L 4.5 0 
L 4.5 7.515625 
L 50.59375 64.59375 
L 5.609375 64.59375 
z
" id="DejaVuSans-90"/>
      <path d="M 34.28125 27.484375 
Q 23.390625 27.484375 19.1875 25 
Q 14.984375 22.515625 14.984375 16.5 
Q 14.984375 11.71875 18.140625 8.90625 
Q 21.296875 6.109375 26.703125 6.109375 
Q 34.1875 6.109375 38.703125 11.40625 
Q 43.21875 16.703125 43.21875 25.484375 
L 43.21875 27.484375 
z
M 52.203125 31.203125 
L 52.203125 0 
L 43.21875 0 
L 43.21875 8.296875 
Q 40.140625 3.328125 35.546875 0.953125 
Q 30.953125 -1.421875 24.3125 -1.421875 
Q 15.921875 -1.421875 10.953125 3.296875 
Q 6 8.015625 6 15.921875 
Q 6 25.140625 12.171875 29.828125 
Q 18.359375 34.515625 30.609375 34.515625 
L 43.21875 34.515625 
L 43.21875 35.40625 
Q 43.21875 41.609375 39.140625 45 
Q 35.0625 48.390625 27.6875 48.390625 
Q 23 48.390625 18.546875 47.265625 
Q 14.109375 46.140625 10.015625 43.890625 
L 10.015625 52.203125 
Q 14.9375 54.109375 19.578125 55.046875 
Q 24.21875 56 28.609375 56 
Q 40.484375 56 46.34375 49.84375 
Q 52.203125 43.703125 52.203125 31.203125 
z
" id="DejaVuSans-97"/>
      <path d="M 9.421875 75.984375 
L 18.40625 75.984375 
L 18.40625 0 
L 9.421875 0 
z
" id="DejaVuSans-108"/>
      <path d="M 21.53125 75.984375 
L 30.515625 75.984375 
L 30.515625 64.59375 
L 21.53125 64.59375 
z
M 26.125 56 
z
M 5.515625 54.6875 
L 48.1875 54.6875 
L 48.1875 46.484375 
L 14.40625 7.171875 
L 48.1875 7.171875 
L 48.1875 0 
L 4.296875 0 
L 4.296875 8.203125 
L 38.09375 47.515625 
L 5.515625 47.515625 
z
" id="DejaVuSans-380"/>
      <path d="M 30.609375 48.390625 
Q 23.390625 48.390625 19.1875 42.75 
Q 14.984375 37.109375 14.984375 27.296875 
Q 14.984375 17.484375 19.15625 11.84375 
Q 23.34375 6.203125 30.609375 6.203125 
Q 37.796875 6.203125 41.984375 11.859375 
Q 46.1875 17.53125 46.1875 27.296875 
Q 46.1875 37.015625 41.984375 42.703125 
Q 37.796875 48.390625 30.609375 48.390625 
z
M 30.609375 56 
Q 42.328125 56 49.015625 48.375 
Q 55.71875 40.765625 55.71875 27.296875 
Q 55.71875 13.875 49.015625 6.21875 
Q 42.328125 -1.421875 30.609375 -1.421875 
Q 18.84375 -1.421875 12.171875 6.21875 
Q 5.515625 13.875 5.515625 27.296875 
Q 5.515625 40.765625 12.171875 48.375 
Q 18.84375 56 30.609375 56 
z
" id="DejaVuSans-111"/>
      <path d="M 35.015625 80.328125 
L 44.734375 80.328125 
L 28.8125 61.96875 
L 21.34375 61.96875 
z
M 44.28125 53.078125 
L 44.28125 44.578125 
Q 40.484375 46.53125 36.375 47.5 
Q 32.28125 48.484375 27.875 48.484375 
Q 21.1875 48.484375 17.84375 46.4375 
Q 14.5 44.390625 14.5 40.28125 
Q 14.5 37.15625 16.890625 35.375 
Q 19.28125 33.59375 26.515625 31.984375 
L 29.59375 31.296875 
Q 39.15625 29.25 43.1875 25.515625 
Q 47.21875 21.78125 47.21875 15.09375 
Q 47.21875 7.46875 41.1875 3.015625 
Q 35.15625 -1.421875 24.609375 -1.421875 
Q 20.21875 -1.421875 15.453125 -0.5625 
Q 10.6875 0.296875 5.421875 2 
L 5.421875 11.28125 
Q 10.40625 8.6875 15.234375 7.390625 
Q 20.0625 6.109375 24.8125 6.109375 
Q 31.15625 6.109375 34.5625 8.28125 
Q 37.984375 10.453125 37.984375 14.40625 
Q 37.984375 18.0625 35.515625 20.015625 
Q 33.0625 21.96875 24.703125 23.78125 
L 21.578125 24.515625 
Q 13.234375 26.265625 9.515625 29.90625 
Q 5.8125 33.546875 5.8125 39.890625 
Q 5.8125 47.609375 11.28125 51.796875 
Q 16.75 56 26.8125 56 
Q 31.78125 56 36.171875 55.265625 
Q 40.578125 54.546875 44.28125 53.078125 
z
" id="DejaVuSans-347"/>
      <path d="M 48.78125 52.59375 
L 48.78125 44.1875 
Q 44.96875 46.296875 41.140625 47.34375 
Q 37.3125 48.390625 33.40625 48.390625 
Q 24.65625 48.390625 19.8125 42.84375 
Q 14.984375 37.3125 14.984375 27.296875 
Q 14.984375 17.28125 19.8125 11.734375 
Q 24.65625 6.203125 33.40625 6.203125 
Q 37.3125 6.203125 41.140625 7.25 
Q 44.96875 8.296875 48.78125 10.40625 
L 48.78125 2.09375 
Q 45.015625 0.34375 40.984375 -0.53125 
Q 36.96875 -1.421875 32.421875 -1.421875 
Q 20.0625 -1.421875 12.78125 6.34375 
Q 5.515625 14.109375 5.515625 27.296875 
Q 5.515625 40.671875 12.859375 48.328125 
Q 20.21875 56 33.015625 56 
Q 37.15625 56 41.109375 55.140625 
Q 45.0625 54.296875 48.78125 52.59375 
z
M 38.484375 79.984375 
L 48.1875 79.984375 
L 32.28125 61.625 
L 24.8125 61.625 
z
" id="DejaVuSans-263"/>
      <path id="DejaVuSans-32"/>
      <path d="M 45.40625 27.984375 
Q 45.40625 37.75 41.375 43.109375 
Q 37.359375 48.484375 30.078125 48.484375 
Q 22.859375 48.484375 18.828125 43.109375 
Q 14.796875 37.75 14.796875 27.984375 
Q 14.796875 18.265625 18.828125 12.890625 
Q 22.859375 7.515625 30.078125 7.515625 
Q 37.359375 7.515625 41.375 12.890625 
Q 45.40625 18.265625 45.40625 27.984375 
z
M 54.390625 6.78125 
Q 54.390625 -7.171875 48.1875 -13.984375 
Q 42 -20.796875 29.203125 -20.796875 
Q 24.46875 -20.796875 20.265625 -20.09375 
Q 16.0625 -19.390625 12.109375 -17.921875 
L 12.109375 -9.1875 
Q 16.0625 -11.328125 19.921875 -12.34375 
Q 23.78125 -13.375 27.78125 -13.375 
Q 36.625 -13.375 41.015625 -8.765625 
Q 45.40625 -4.15625 45.40625 5.171875 
L 45.40625 9.625 
Q 42.625 4.78125 38.28125 2.390625 
Q 33.9375 0 27.875 0 
Q 17.828125 0 11.671875 7.65625 
Q 5.515625 15.328125 5.515625 27.984375 
Q 5.515625 40.671875 11.671875 48.328125 
Q 17.828125 56 27.875 56 
Q 33.9375 56 38.28125 53.609375 
Q 42.625 51.21875 45.40625 46.390625 
L 45.40625 54.6875 
L 54.390625 54.6875 
z
" id="DejaVuSans-103"/>
      <path d="M 45.40625 46.390625 
L 45.40625 75.984375 
L 54.390625 75.984375 
L 54.390625 0 
L 45.40625 0 
L 45.40625 8.203125 
Q 42.578125 3.328125 38.25 0.953125 
Q 33.9375 -1.421875 27.875 -1.421875 
Q 17.96875 -1.421875 11.734375 6.484375 
Q 5.515625 14.40625 5.515625 27.296875 
Q 5.515625 40.1875 11.734375 48.09375 
Q 17.96875 56 27.875 56 
Q 33.9375 56 38.25 53.625 
Q 42.578125 51.265625 45.40625 46.390625 
z
M 14.796875 27.296875 
Q 14.796875 17.390625 18.875 11.75 
Q 22.953125 6.109375 30.078125 6.109375 
Q 37.203125 6.109375 41.296875 11.75 
Q 45.40625 17.390625 45.40625 27.296875 
Q 45.40625 37.203125 41.296875 42.84375 
Q 37.203125 48.484375 30.078125 48.484375 
Q 22.953125 48.484375 18.875 42.84375 
Q 14.796875 37.203125 14.796875 27.296875 
z
" id="DejaVuSans-100"/>
     </defs>
     <use transform="translate(0 0.671875)" xlink:href="#DejaVuSans-90"/>
     <use transform="translate(68.505859 0.671875)" xlink:href="#DejaVuSans-97"/>
     <use transform="translate(129.785156 0.671875)" xlink:href="#DejaVuSans-108"/>
     <use transform="translate(157.568359 0.671875)" xlink:href="#DejaVuSans-101"/>
     <use transform="translate(219.091797 0.671875)" xlink:href="#DejaVuSans-380"/>
     <use transform="translate(271.582031 0.671875)" xlink:href="#DejaVuSans-110"/>
     <use transform="translate(334.960938 0.671875)" xlink:href="#DejaVuSans-111"/>
     <use transform="translate(396.142578 0.671875)" xlink:href="#DejaVuSans-347"/>
     <use transform="translate(448.242188 0.671875)" xlink:href="#DejaVuSans-263"/>
     <use transform="translate(503.222656 0.671875)" xlink:href="#DejaVuSans-32"/>
     <use transform="translate(535.009766 0.671875)" xlink:href="#DejaVuSans-108"/>
     <use transform="translate(562.792969 0.671875)" xlink:href="#DejaVuSans-111"/>
     <use transform="translate(623.974609 0.671875)" xlink:href="#DejaVuSans-103"/>
     <use transform="translate(687.451172 0.671875)" xlink:href="#DejaVuSans-32"/>
     <use transform="translate(719.238281 0.671875)" xlink:href="#DejaVuSans-109"/>
     <use transform="translate(816.650391 0.671875)" xlink:href="#DejaVuSans-49"/>
     <use transform="translate(880.273438 0.671875)" xlink:href="#DejaVuSans-32"/>
     <use transform="translate(912.060547 0.671875)" xlink:href="#DejaVuSans-111"/>
     <use transform="translate(973.242188 0.671875)" xlink:href="#DejaVuSans-100"/>
     <use transform="translate(1036.71875 0.671875)" xlink:href="#DejaVuSans-32"/>
     <use transform="translate(1068.505859 0.671875)" xlink:href="#DejaVuSans-108"/>
     <use transform="translate(1096.289062 0.671875)" xlink:href="#DejaVuSans-111"/>
     <use transform="translate(1157.470703 0.671875)" xlink:href="#DejaVuSans-103"/>
     <use transform="translate(1220.947266 0.671875)" xlink:href="#DejaVuSans-32"/>
     <use transform="translate(1252.734375 0.671875)" xlink:href="#DejaVuSans-117"/>
     <use transform="translate(1316.113281 0.671875)" xlink:href="#DejaVuSans-110"/>
     <use transform="translate(1379.492188 0.671875)" xlink:href="#DejaVuSans-101"/>
     <use transform="translate(1441.015625 0.671875)" xlink:href="#DejaVuSans-109"/>
     <use transform="translate(1538.427734 0.671875)" xlink:href="#DejaVuSans-112"/>
    </g>
   </g>
  </g>
 </g>
 <defs>
  <clipPath id="p3680658121">
   <rect height="543.6" width="1116" x="42.620313" y="22.92"/>
  </clipPath>
 </defs>
</svg>
